<svg width="16" height="16" viewBox="0 0 16 16" fill="none" xmlns="http://www.w3.org/2000/svg">
<path d="M8.01519 15.1432C8.21658 15.3392 8.21658 15.657 8.01519 15.853C7.81379 16.049 7.48727 16.049 7.28588 15.853L0.55383 9.30125C-0.18461 8.58259 -0.18461 7.41741 0.55383 6.69874L7.28588 0.146999C7.48727 -0.0489997 7.81379 -0.0489997 8.01519 0.146999C8.21658 0.342998 8.21658 0.660776 8.01519 0.856774L1.28314 7.40852C1.2526 7.43824 1.22484 7.46964 1.19986 7.50241L15.4823 7.50241C15.7682 7.50241 16 7.72627 16 8.00242C16 8.27856 15.7682 8.50242 15.4823 8.50242L1.20358 8.50243C1.22759 8.53345 1.25411 8.56323 1.28314 8.59148L8.01519 15.1432Z" fill="#404243"/>
</svg>
