<svg width="466" height="650" viewBox="0 0 466 650" fill="none" xmlns="http://www.w3.org/2000/svg">
<circle cx="43" cy="33" r="32.5" fill="url(#paint0_linear)" stroke="url(#paint1_linear)"/>
<circle cx="121" cy="173" r="32.5" fill="url(#paint2_linear)" stroke="url(#paint3_linear)"/>
<circle cx="43" cy="173" r="32.5" fill="url(#paint4_linear)" stroke="url(#paint5_linear)"/>
<circle r="32.5" transform="matrix(-1 0 0 1 199 173)" fill="url(#paint6_linear)" stroke="url(#paint7_linear)"/>
<circle r="32.5" transform="matrix(-1 0 0 1 277 173)" fill="url(#paint8_linear)" stroke="url(#paint9_linear)"/>
<circle r="32.5" transform="matrix(-1 0 0 1 355 173)" fill="url(#paint10_linear)" stroke="url(#paint11_linear)"/>
<circle r="32.5" transform="matrix(-1 0 0 1 433 173)" fill="url(#paint12_linear)" stroke="url(#paint13_linear)"/>
<circle r="32.5" transform="matrix(-1 0 0 1 121 33)" fill="url(#paint14_linear)" stroke="url(#paint15_linear)"/>
<circle r="32.5" transform="matrix(-1 0 0 1 199 33)" fill="url(#paint16_linear)" stroke="url(#paint17_linear)"/>
<circle r="32.5" transform="matrix(-1 0 0 1 277 33)" fill="url(#paint18_linear)" stroke="url(#paint19_linear)"/>
<circle r="32.5" transform="matrix(-1 0 0 1 355 33)" fill="url(#paint20_linear)" stroke="url(#paint21_linear)"/>
<circle r="32.5" transform="matrix(-1 0 0 1 433 33)" fill="url(#paint22_linear)" stroke="url(#paint23_linear)"/>
<circle cx="121" cy="99" r="32.5" fill="url(#paint24_linear)" stroke="url(#paint25_linear)"/>
<circle cx="43" cy="99" r="32.5" fill="url(#paint26_linear)" stroke="url(#paint27_linear)"/>
<circle r="32.5" transform="matrix(-1 0 0 1 199 99)" fill="url(#paint28_linear)" stroke="url(#paint29_linear)"/>
<path d="M244.5 99C244.5 116.949 259.051 131.5 277 131.5C294.949 131.5 309.5 116.949 309.5 99C309.5 81.0507 294.949 66.5 277 66.5C259.051 66.5 244.5 81.0507 244.5 99Z" fill="url(#paint30_linear)" stroke="url(#paint31_linear)"/>
<circle r="32.5" transform="matrix(-1 0 0 1 355 99)" fill="url(#paint32_linear)" stroke="url(#paint33_linear)"/>
<circle r="32.5" transform="matrix(-1 0 0 1 433 99)" fill="url(#paint34_linear)" stroke="url(#paint35_linear)"/>
<circle cx="111" cy="247" r="32.5" fill="url(#paint36_linear)" stroke="url(#paint37_linear)"/>
<circle cx="33" cy="247" r="32.5" fill="url(#paint38_linear)" stroke="url(#paint39_linear)"/>
<circle r="32.5" transform="matrix(-1 0 0 1 189 247)" fill="url(#paint40_linear)" stroke="url(#paint41_linear)"/>
<circle r="32.5" transform="matrix(-1 0 0 1 267 247)" fill="url(#paint42_linear)" stroke="url(#paint43_linear)"/>
<circle r="32.5" transform="matrix(-1 0 0 1 345 247)" fill="url(#paint44_linear)" stroke="url(#paint45_linear)"/>
<circle r="32.5" transform="matrix(-1 0 0 1 423 247)" fill="url(#paint46_linear)" stroke="url(#paint47_linear)"/>
<circle cx="111" cy="321" r="32.5" fill="url(#paint48_linear)" stroke="url(#paint49_linear)"/>
<circle cx="33" cy="321" r="32.5" fill="url(#paint50_linear)" stroke="url(#paint51_linear)"/>
<circle r="32.5" transform="matrix(-1 0 0 1 189 321)" fill="url(#paint52_linear)" stroke="url(#paint53_linear)"/>
<circle r="32.5" transform="matrix(-1 0 0 1 267 321)" fill="url(#paint54_linear)" stroke="url(#paint55_linear)"/>
<circle r="32.5" transform="matrix(-1 0 0 1 345 321)" fill="url(#paint56_linear)" stroke="url(#paint57_linear)"/>
<circle r="32.5" transform="matrix(-1 0 0 1 423 321)" fill="url(#paint58_linear)" stroke="url(#paint59_linear)"/>
<circle cx="111" cy="395" r="32.5" fill="url(#paint60_linear)" stroke="url(#paint61_linear)"/>
<circle cx="33" cy="395" r="32.5" fill="url(#paint62_linear)" stroke="url(#paint63_linear)"/>
<circle r="32.5" transform="matrix(-1 0 0 1 189 395)" fill="url(#paint64_linear)" stroke="url(#paint65_linear)"/>
<circle r="32.5" transform="matrix(-1 0 0 1 267 395)" fill="url(#paint66_linear)" stroke="url(#paint67_linear)"/>
<circle r="32.5" transform="matrix(-1 0 0 1 345 395)" fill="url(#paint68_linear)" stroke="url(#paint69_linear)"/>
<circle r="32.5" transform="matrix(-1 0 0 1 423 395)" fill="url(#paint70_linear)" stroke="url(#paint71_linear)"/>
<circle cx="111" cy="469" r="32.5" fill="url(#paint72_linear)" stroke="url(#paint73_linear)"/>
<circle cx="33" cy="469" r="32.5" fill="url(#paint74_linear)" stroke="url(#paint75_linear)"/>
<circle r="32.5" transform="matrix(-1 0 0 1 189 469)" fill="url(#paint76_linear)" stroke="url(#paint77_linear)"/>
<circle r="32.5" transform="matrix(-1 0 0 1 267 469)" fill="url(#paint78_linear)" stroke="url(#paint79_linear)"/>
<circle r="32.5" transform="matrix(-1 0 0 1 345 469)" fill="url(#paint80_linear)" stroke="url(#paint81_linear)"/>
<circle r="32.5" transform="matrix(-1 0 0 1 423 469)" fill="url(#paint82_linear)" stroke="url(#paint83_linear)"/>
<circle cx="111" cy="543" r="32.5" fill="url(#paint84_linear)" stroke="url(#paint85_linear)"/>
<circle cx="33" cy="543" r="32.5" fill="url(#paint86_linear)" stroke="url(#paint87_linear)"/>
<circle r="32.5" transform="matrix(-1 0 0 1 189 543)" fill="url(#paint88_linear)" stroke="url(#paint89_linear)"/>
<circle r="32.5" transform="matrix(-1 0 0 1 267 543)" fill="url(#paint90_linear)" stroke="url(#paint91_linear)"/>
<circle r="32.5" transform="matrix(-1 0 0 1 345 543)" fill="url(#paint92_linear)" stroke="url(#paint93_linear)"/>
<circle r="32.5" transform="matrix(-1 0 0 1 423 543)" fill="url(#paint94_linear)" stroke="url(#paint95_linear)"/>
<circle cx="111" cy="617" r="32.5" fill="url(#paint96_linear)" stroke="url(#paint97_linear)"/>
<circle cx="33" cy="617" r="32.5" fill="url(#paint98_linear)" stroke="url(#paint99_linear)"/>
<circle r="32.5" transform="matrix(-1 0 0 1 189 617)" fill="url(#paint100_linear)" stroke="url(#paint101_linear)"/>
<circle r="32.5" transform="matrix(-1 0 0 1 267 617)" fill="url(#paint102_linear)" stroke="url(#paint103_linear)"/>
<circle r="32.5" transform="matrix(-1 0 0 1 345 617)" fill="url(#paint104_linear)" stroke="url(#paint105_linear)"/>
<circle r="32.5" transform="matrix(-1 0 0 1 423 617)" fill="url(#paint106_linear)" stroke="url(#paint107_linear)"/>
<defs>
<linearGradient id="paint0_linear" x1="21.5" y1="12.5" x2="76" y2="71" gradientUnits="userSpaceOnUse">
<stop stop-color="#51459E"/>
<stop offset="0.8125" stop-color="#483D8F" stop-opacity="0"/>
</linearGradient>
<linearGradient id="paint1_linear" x1="33.5" y1="5.5" x2="63.5" y2="66" gradientUnits="userSpaceOnUse">
<stop offset="0.216135" stop-color="#594CAE"/>
<stop offset="0.914943" stop-color="#4E439B" stop-opacity="0"/>
</linearGradient>
<linearGradient id="paint2_linear" x1="99.5" y1="152.5" x2="154" y2="211" gradientUnits="userSpaceOnUse">
<stop stop-color="#51459E"/>
<stop offset="0.8125" stop-color="#483D8F" stop-opacity="0"/>
</linearGradient>
<linearGradient id="paint3_linear" x1="111.5" y1="145.5" x2="141.5" y2="206" gradientUnits="userSpaceOnUse">
<stop offset="0.216135" stop-color="#594CAE"/>
<stop offset="0.914943" stop-color="#4E439B" stop-opacity="0"/>
</linearGradient>
<linearGradient id="paint4_linear" x1="21.5" y1="152.5" x2="76" y2="211" gradientUnits="userSpaceOnUse">
<stop stop-color="#51459E"/>
<stop offset="0.8125" stop-color="#483D8F" stop-opacity="0"/>
</linearGradient>
<linearGradient id="paint5_linear" x1="33.5" y1="145.5" x2="63.5" y2="206" gradientUnits="userSpaceOnUse">
<stop offset="0.216135" stop-color="#594CAE"/>
<stop offset="0.914943" stop-color="#4E439B" stop-opacity="0"/>
</linearGradient>
<linearGradient id="paint6_linear" x1="11.5" y1="12.5" x2="66" y2="71" gradientUnits="userSpaceOnUse">
<stop stop-color="#51459E"/>
<stop offset="0.8125" stop-color="#483D8F" stop-opacity="0"/>
</linearGradient>
<linearGradient id="paint7_linear" x1="23.5" y1="5.5" x2="53.5" y2="66" gradientUnits="userSpaceOnUse">
<stop offset="0.216135" stop-color="#594CAE"/>
<stop offset="0.914943" stop-color="#4E439B" stop-opacity="0"/>
</linearGradient>
<linearGradient id="paint8_linear" x1="11.5" y1="12.5" x2="66" y2="71" gradientUnits="userSpaceOnUse">
<stop stop-color="#51459E"/>
<stop offset="0.8125" stop-color="#483D8F" stop-opacity="0"/>
</linearGradient>
<linearGradient id="paint9_linear" x1="23.5" y1="5.5" x2="53.5" y2="66" gradientUnits="userSpaceOnUse">
<stop offset="0.216135" stop-color="#594CAE"/>
<stop offset="0.914943" stop-color="#4E439B" stop-opacity="0"/>
</linearGradient>
<linearGradient id="paint10_linear" x1="11.5" y1="12.5" x2="66" y2="71" gradientUnits="userSpaceOnUse">
<stop stop-color="#51459E"/>
<stop offset="0.8125" stop-color="#483D8F" stop-opacity="0"/>
</linearGradient>
<linearGradient id="paint11_linear" x1="23.5" y1="5.5" x2="53.5" y2="66" gradientUnits="userSpaceOnUse">
<stop offset="0.216135" stop-color="#594CAE"/>
<stop offset="0.914943" stop-color="#4E439B" stop-opacity="0"/>
</linearGradient>
<linearGradient id="paint12_linear" x1="11.5" y1="12.5" x2="66" y2="71" gradientUnits="userSpaceOnUse">
<stop stop-color="#51459E"/>
<stop offset="0.8125" stop-color="#483D8F" stop-opacity="0"/>
</linearGradient>
<linearGradient id="paint13_linear" x1="23.5" y1="5.5" x2="53.5" y2="66" gradientUnits="userSpaceOnUse">
<stop offset="0.216135" stop-color="#594CAE"/>
<stop offset="0.914943" stop-color="#4E439B" stop-opacity="0"/>
</linearGradient>
<linearGradient id="paint14_linear" x1="11.5" y1="12.5" x2="66" y2="71" gradientUnits="userSpaceOnUse">
<stop stop-color="#51459E"/>
<stop offset="0.8125" stop-color="#483D8F" stop-opacity="0"/>
</linearGradient>
<linearGradient id="paint15_linear" x1="23.5" y1="5.5" x2="53.5" y2="66" gradientUnits="userSpaceOnUse">
<stop offset="0.216135" stop-color="#594CAE"/>
<stop offset="0.914943" stop-color="#4E439B" stop-opacity="0"/>
</linearGradient>
<linearGradient id="paint16_linear" x1="11.5" y1="12.5" x2="66" y2="71" gradientUnits="userSpaceOnUse">
<stop stop-color="#51459E"/>
<stop offset="0.8125" stop-color="#483D8F" stop-opacity="0"/>
</linearGradient>
<linearGradient id="paint17_linear" x1="23.5" y1="5.5" x2="53.5" y2="66" gradientUnits="userSpaceOnUse">
<stop offset="0.216135" stop-color="#594CAE"/>
<stop offset="0.914943" stop-color="#4E439B" stop-opacity="0"/>
</linearGradient>
<linearGradient id="paint18_linear" x1="11.5" y1="12.5" x2="66" y2="71" gradientUnits="userSpaceOnUse">
<stop stop-color="#51459E"/>
<stop offset="0.8125" stop-color="#483D8F" stop-opacity="0"/>
</linearGradient>
<linearGradient id="paint19_linear" x1="23.5" y1="5.5" x2="53.5" y2="66" gradientUnits="userSpaceOnUse">
<stop offset="0.216135" stop-color="#594CAE"/>
<stop offset="0.914943" stop-color="#4E439B" stop-opacity="0"/>
</linearGradient>
<linearGradient id="paint20_linear" x1="11.5" y1="12.5" x2="66" y2="71" gradientUnits="userSpaceOnUse">
<stop stop-color="#51459E"/>
<stop offset="0.8125" stop-color="#483D8F" stop-opacity="0"/>
</linearGradient>
<linearGradient id="paint21_linear" x1="23.5" y1="5.5" x2="53.5" y2="66" gradientUnits="userSpaceOnUse">
<stop offset="0.216135" stop-color="#594CAE"/>
<stop offset="0.914943" stop-color="#4E439B" stop-opacity="0"/>
</linearGradient>
<linearGradient id="paint22_linear" x1="11.5" y1="12.5" x2="66" y2="71" gradientUnits="userSpaceOnUse">
<stop stop-color="#51459E"/>
<stop offset="0.8125" stop-color="#483D8F" stop-opacity="0"/>
</linearGradient>
<linearGradient id="paint23_linear" x1="23.5" y1="5.5" x2="53.5" y2="66" gradientUnits="userSpaceOnUse">
<stop offset="0.216135" stop-color="#594CAE"/>
<stop offset="0.914943" stop-color="#4E439B" stop-opacity="0"/>
</linearGradient>
<linearGradient id="paint24_linear" x1="99.5" y1="78.5" x2="154" y2="137" gradientUnits="userSpaceOnUse">
<stop stop-color="#51459E"/>
<stop offset="0.8125" stop-color="#483D8F" stop-opacity="0"/>
</linearGradient>
<linearGradient id="paint25_linear" x1="111.5" y1="71.5" x2="141.5" y2="132" gradientUnits="userSpaceOnUse">
<stop offset="0.216135" stop-color="#594CAE"/>
<stop offset="0.914943" stop-color="#4E439B" stop-opacity="0"/>
</linearGradient>
<linearGradient id="paint26_linear" x1="21.5" y1="78.5" x2="76" y2="137" gradientUnits="userSpaceOnUse">
<stop stop-color="#51459E"/>
<stop offset="0.8125" stop-color="#483D8F" stop-opacity="0"/>
</linearGradient>
<linearGradient id="paint27_linear" x1="33.5" y1="71.5" x2="63.5" y2="132" gradientUnits="userSpaceOnUse">
<stop offset="0.216135" stop-color="#594CAE"/>
<stop offset="0.914943" stop-color="#4E439B" stop-opacity="0"/>
</linearGradient>
<linearGradient id="paint28_linear" x1="11.5" y1="12.5" x2="66" y2="71" gradientUnits="userSpaceOnUse">
<stop stop-color="#51459E"/>
<stop offset="0.8125" stop-color="#483D8F" stop-opacity="0"/>
</linearGradient>
<linearGradient id="paint29_linear" x1="23.5" y1="5.5" x2="53.5" y2="66" gradientUnits="userSpaceOnUse">
<stop offset="0.216135" stop-color="#594CAE"/>
<stop offset="0.914943" stop-color="#4E439B" stop-opacity="0"/>
</linearGradient>
<linearGradient id="paint30_linear" x1="298.5" y1="78.5" x2="244" y2="137" gradientUnits="userSpaceOnUse">
<stop stop-color="#51459E"/>
<stop offset="0.8125" stop-color="#483D8F" stop-opacity="0"/>
</linearGradient>
<linearGradient id="paint31_linear" x1="286.5" y1="71.5" x2="256.5" y2="132" gradientUnits="userSpaceOnUse">
<stop offset="0.216135" stop-color="#594CAE"/>
<stop offset="0.914943" stop-color="#4E439B" stop-opacity="0"/>
</linearGradient>
<linearGradient id="paint32_linear" x1="11.5" y1="12.5" x2="66" y2="71" gradientUnits="userSpaceOnUse">
<stop stop-color="#51459E"/>
<stop offset="0.8125" stop-color="#483D8F" stop-opacity="0"/>
</linearGradient>
<linearGradient id="paint33_linear" x1="23.5" y1="5.5" x2="53.5" y2="66" gradientUnits="userSpaceOnUse">
<stop offset="0.216135" stop-color="#594CAE"/>
<stop offset="0.914943" stop-color="#4E439B" stop-opacity="0"/>
</linearGradient>
<linearGradient id="paint34_linear" x1="11.5" y1="12.5" x2="66" y2="71" gradientUnits="userSpaceOnUse">
<stop stop-color="#51459E"/>
<stop offset="0.8125" stop-color="#483D8F" stop-opacity="0"/>
</linearGradient>
<linearGradient id="paint35_linear" x1="23.5" y1="5.5" x2="53.5" y2="66" gradientUnits="userSpaceOnUse">
<stop offset="0.216135" stop-color="#594CAE"/>
<stop offset="0.914943" stop-color="#4E439B" stop-opacity="0"/>
</linearGradient>
<linearGradient id="paint36_linear" x1="89.5" y1="226.5" x2="144" y2="285" gradientUnits="userSpaceOnUse">
<stop stop-color="#51459E"/>
<stop offset="0.8125" stop-color="#483D8F" stop-opacity="0"/>
</linearGradient>
<linearGradient id="paint37_linear" x1="101.5" y1="219.5" x2="131.5" y2="280" gradientUnits="userSpaceOnUse">
<stop offset="0.216135" stop-color="#594CAE"/>
<stop offset="0.914943" stop-color="#4E439B" stop-opacity="0"/>
</linearGradient>
<linearGradient id="paint38_linear" x1="11.5" y1="226.5" x2="66" y2="285" gradientUnits="userSpaceOnUse">
<stop stop-color="#51459E"/>
<stop offset="0.8125" stop-color="#483D8F" stop-opacity="0"/>
</linearGradient>
<linearGradient id="paint39_linear" x1="23.5" y1="219.5" x2="53.5" y2="280" gradientUnits="userSpaceOnUse">
<stop offset="0.216135" stop-color="#594CAE"/>
<stop offset="0.914943" stop-color="#4E439B" stop-opacity="0"/>
</linearGradient>
<linearGradient id="paint40_linear" x1="11.5" y1="12.5" x2="66" y2="71" gradientUnits="userSpaceOnUse">
<stop stop-color="#51459E"/>
<stop offset="0.8125" stop-color="#483D8F" stop-opacity="0"/>
</linearGradient>
<linearGradient id="paint41_linear" x1="23.5" y1="5.5" x2="53.5" y2="66" gradientUnits="userSpaceOnUse">
<stop offset="0.216135" stop-color="#594CAE"/>
<stop offset="0.914943" stop-color="#4E439B" stop-opacity="0"/>
</linearGradient>
<linearGradient id="paint42_linear" x1="11.5" y1="12.5" x2="66" y2="71" gradientUnits="userSpaceOnUse">
<stop stop-color="#51459E"/>
<stop offset="0.8125" stop-color="#483D8F" stop-opacity="0"/>
</linearGradient>
<linearGradient id="paint43_linear" x1="23.5" y1="5.5" x2="53.5" y2="66" gradientUnits="userSpaceOnUse">
<stop offset="0.216135" stop-color="#594CAE"/>
<stop offset="0.914943" stop-color="#4E439B" stop-opacity="0"/>
</linearGradient>
<linearGradient id="paint44_linear" x1="11.5" y1="12.5" x2="66" y2="71" gradientUnits="userSpaceOnUse">
<stop stop-color="#51459E"/>
<stop offset="0.8125" stop-color="#483D8F" stop-opacity="0"/>
</linearGradient>
<linearGradient id="paint45_linear" x1="23.5" y1="5.5" x2="53.5" y2="66" gradientUnits="userSpaceOnUse">
<stop offset="0.216135" stop-color="#594CAE"/>
<stop offset="0.914943" stop-color="#4E439B" stop-opacity="0"/>
</linearGradient>
<linearGradient id="paint46_linear" x1="11.5" y1="12.5" x2="66" y2="71" gradientUnits="userSpaceOnUse">
<stop stop-color="#51459E"/>
<stop offset="0.8125" stop-color="#483D8F" stop-opacity="0"/>
</linearGradient>
<linearGradient id="paint47_linear" x1="23.5" y1="5.5" x2="53.5" y2="66" gradientUnits="userSpaceOnUse">
<stop offset="0.216135" stop-color="#594CAE"/>
<stop offset="0.914943" stop-color="#4E439B" stop-opacity="0"/>
</linearGradient>
<linearGradient id="paint48_linear" x1="89.5" y1="300.5" x2="144" y2="359" gradientUnits="userSpaceOnUse">
<stop stop-color="#51459E"/>
<stop offset="0.8125" stop-color="#483D8F" stop-opacity="0"/>
</linearGradient>
<linearGradient id="paint49_linear" x1="101.5" y1="293.5" x2="131.5" y2="354" gradientUnits="userSpaceOnUse">
<stop offset="0.216135" stop-color="#594CAE"/>
<stop offset="0.914943" stop-color="#4E439B" stop-opacity="0"/>
</linearGradient>
<linearGradient id="paint50_linear" x1="11.5" y1="300.5" x2="66" y2="359" gradientUnits="userSpaceOnUse">
<stop stop-color="#51459E"/>
<stop offset="0.8125" stop-color="#483D8F" stop-opacity="0"/>
</linearGradient>
<linearGradient id="paint51_linear" x1="23.5" y1="293.5" x2="53.5" y2="354" gradientUnits="userSpaceOnUse">
<stop offset="0.216135" stop-color="#594CAE"/>
<stop offset="0.914943" stop-color="#4E439B" stop-opacity="0"/>
</linearGradient>
<linearGradient id="paint52_linear" x1="11.5" y1="12.5" x2="66" y2="71" gradientUnits="userSpaceOnUse">
<stop stop-color="#51459E"/>
<stop offset="0.8125" stop-color="#483D8F" stop-opacity="0"/>
</linearGradient>
<linearGradient id="paint53_linear" x1="23.5" y1="5.5" x2="53.5" y2="66" gradientUnits="userSpaceOnUse">
<stop offset="0.216135" stop-color="#594CAE"/>
<stop offset="0.914943" stop-color="#4E439B" stop-opacity="0"/>
</linearGradient>
<linearGradient id="paint54_linear" x1="11.5" y1="12.5" x2="66" y2="71" gradientUnits="userSpaceOnUse">
<stop stop-color="#51459E"/>
<stop offset="0.8125" stop-color="#483D8F" stop-opacity="0"/>
</linearGradient>
<linearGradient id="paint55_linear" x1="23.5" y1="5.5" x2="53.5" y2="66" gradientUnits="userSpaceOnUse">
<stop offset="0.216135" stop-color="#594CAE"/>
<stop offset="0.914943" stop-color="#4E439B" stop-opacity="0"/>
</linearGradient>
<linearGradient id="paint56_linear" x1="11.5" y1="12.5" x2="66" y2="71" gradientUnits="userSpaceOnUse">
<stop stop-color="#51459E"/>
<stop offset="0.8125" stop-color="#483D8F" stop-opacity="0"/>
</linearGradient>
<linearGradient id="paint57_linear" x1="23.5" y1="5.5" x2="53.5" y2="66" gradientUnits="userSpaceOnUse">
<stop offset="0.216135" stop-color="#594CAE"/>
<stop offset="0.914943" stop-color="#4E439B" stop-opacity="0"/>
</linearGradient>
<linearGradient id="paint58_linear" x1="11.5" y1="12.5" x2="66" y2="71" gradientUnits="userSpaceOnUse">
<stop stop-color="#51459E"/>
<stop offset="0.8125" stop-color="#483D8F" stop-opacity="0"/>
</linearGradient>
<linearGradient id="paint59_linear" x1="23.5" y1="5.5" x2="53.5" y2="66" gradientUnits="userSpaceOnUse">
<stop offset="0.216135" stop-color="#594CAE"/>
<stop offset="0.914943" stop-color="#4E439B" stop-opacity="0"/>
</linearGradient>
<linearGradient id="paint60_linear" x1="89.5" y1="374.5" x2="144" y2="433" gradientUnits="userSpaceOnUse">
<stop stop-color="#51459E"/>
<stop offset="0.8125" stop-color="#483D8F" stop-opacity="0"/>
</linearGradient>
<linearGradient id="paint61_linear" x1="101.5" y1="367.5" x2="131.5" y2="428" gradientUnits="userSpaceOnUse">
<stop offset="0.216135" stop-color="#594CAE"/>
<stop offset="0.914943" stop-color="#4E439B" stop-opacity="0"/>
</linearGradient>
<linearGradient id="paint62_linear" x1="11.5" y1="374.5" x2="66" y2="433" gradientUnits="userSpaceOnUse">
<stop stop-color="#51459E"/>
<stop offset="0.8125" stop-color="#483D8F" stop-opacity="0"/>
</linearGradient>
<linearGradient id="paint63_linear" x1="23.5" y1="367.5" x2="53.5" y2="428" gradientUnits="userSpaceOnUse">
<stop offset="0.216135" stop-color="#594CAE"/>
<stop offset="0.914943" stop-color="#4E439B" stop-opacity="0"/>
</linearGradient>
<linearGradient id="paint64_linear" x1="11.5" y1="12.5" x2="66" y2="71" gradientUnits="userSpaceOnUse">
<stop stop-color="#51459E"/>
<stop offset="0.8125" stop-color="#483D8F" stop-opacity="0"/>
</linearGradient>
<linearGradient id="paint65_linear" x1="23.5" y1="5.5" x2="53.5" y2="66" gradientUnits="userSpaceOnUse">
<stop offset="0.216135" stop-color="#594CAE"/>
<stop offset="0.914943" stop-color="#4E439B" stop-opacity="0"/>
</linearGradient>
<linearGradient id="paint66_linear" x1="11.5" y1="12.5" x2="66" y2="71" gradientUnits="userSpaceOnUse">
<stop stop-color="#51459E"/>
<stop offset="0.8125" stop-color="#483D8F" stop-opacity="0"/>
</linearGradient>
<linearGradient id="paint67_linear" x1="23.5" y1="5.5" x2="53.5" y2="66" gradientUnits="userSpaceOnUse">
<stop offset="0.216135" stop-color="#594CAE"/>
<stop offset="0.914943" stop-color="#4E439B" stop-opacity="0"/>
</linearGradient>
<linearGradient id="paint68_linear" x1="11.5" y1="12.5" x2="66" y2="71" gradientUnits="userSpaceOnUse">
<stop stop-color="#51459E"/>
<stop offset="0.8125" stop-color="#483D8F" stop-opacity="0"/>
</linearGradient>
<linearGradient id="paint69_linear" x1="23.5" y1="5.5" x2="53.5" y2="66" gradientUnits="userSpaceOnUse">
<stop offset="0.216135" stop-color="#594CAE"/>
<stop offset="0.914943" stop-color="#4E439B" stop-opacity="0"/>
</linearGradient>
<linearGradient id="paint70_linear" x1="11.5" y1="12.5" x2="66" y2="71" gradientUnits="userSpaceOnUse">
<stop stop-color="#51459E"/>
<stop offset="0.8125" stop-color="#483D8F" stop-opacity="0"/>
</linearGradient>
<linearGradient id="paint71_linear" x1="23.5" y1="5.5" x2="53.5" y2="66" gradientUnits="userSpaceOnUse">
<stop offset="0.216135" stop-color="#594CAE"/>
<stop offset="0.914943" stop-color="#4E439B" stop-opacity="0"/>
</linearGradient>
<linearGradient id="paint72_linear" x1="89.5" y1="448.5" x2="144" y2="507" gradientUnits="userSpaceOnUse">
<stop stop-color="#51459E"/>
<stop offset="0.8125" stop-color="#483D8F" stop-opacity="0"/>
</linearGradient>
<linearGradient id="paint73_linear" x1="101.5" y1="441.5" x2="131.5" y2="502" gradientUnits="userSpaceOnUse">
<stop offset="0.216135" stop-color="#594CAE"/>
<stop offset="0.914943" stop-color="#4E439B" stop-opacity="0"/>
</linearGradient>
<linearGradient id="paint74_linear" x1="11.5" y1="448.5" x2="66" y2="507" gradientUnits="userSpaceOnUse">
<stop stop-color="#51459E"/>
<stop offset="0.8125" stop-color="#483D8F" stop-opacity="0"/>
</linearGradient>
<linearGradient id="paint75_linear" x1="23.5" y1="441.5" x2="53.5" y2="502" gradientUnits="userSpaceOnUse">
<stop offset="0.216135" stop-color="#594CAE"/>
<stop offset="0.914943" stop-color="#4E439B" stop-opacity="0"/>
</linearGradient>
<linearGradient id="paint76_linear" x1="11.5" y1="12.5" x2="66" y2="71" gradientUnits="userSpaceOnUse">
<stop stop-color="#51459E"/>
<stop offset="0.8125" stop-color="#483D8F" stop-opacity="0"/>
</linearGradient>
<linearGradient id="paint77_linear" x1="23.5" y1="5.5" x2="53.5" y2="66" gradientUnits="userSpaceOnUse">
<stop offset="0.216135" stop-color="#594CAE"/>
<stop offset="0.914943" stop-color="#4E439B" stop-opacity="0"/>
</linearGradient>
<linearGradient id="paint78_linear" x1="11.5" y1="12.5" x2="66" y2="71" gradientUnits="userSpaceOnUse">
<stop stop-color="#51459E"/>
<stop offset="0.8125" stop-color="#483D8F" stop-opacity="0"/>
</linearGradient>
<linearGradient id="paint79_linear" x1="23.5" y1="5.5" x2="53.5" y2="66" gradientUnits="userSpaceOnUse">
<stop offset="0.216135" stop-color="#594CAE"/>
<stop offset="0.914943" stop-color="#4E439B" stop-opacity="0"/>
</linearGradient>
<linearGradient id="paint80_linear" x1="11.5" y1="12.5" x2="66" y2="71" gradientUnits="userSpaceOnUse">
<stop stop-color="#51459E"/>
<stop offset="0.8125" stop-color="#483D8F" stop-opacity="0"/>
</linearGradient>
<linearGradient id="paint81_linear" x1="23.5" y1="5.5" x2="53.5" y2="66" gradientUnits="userSpaceOnUse">
<stop offset="0.216135" stop-color="#594CAE"/>
<stop offset="0.914943" stop-color="#4E439B" stop-opacity="0"/>
</linearGradient>
<linearGradient id="paint82_linear" x1="11.5" y1="12.5" x2="66" y2="71" gradientUnits="userSpaceOnUse">
<stop stop-color="#51459E"/>
<stop offset="0.8125" stop-color="#483D8F" stop-opacity="0"/>
</linearGradient>
<linearGradient id="paint83_linear" x1="23.5" y1="5.5" x2="53.5" y2="66" gradientUnits="userSpaceOnUse">
<stop offset="0.216135" stop-color="#594CAE"/>
<stop offset="0.914943" stop-color="#4E439B" stop-opacity="0"/>
</linearGradient>
<linearGradient id="paint84_linear" x1="89.5" y1="522.5" x2="144" y2="581" gradientUnits="userSpaceOnUse">
<stop stop-color="#51459E"/>
<stop offset="0.8125" stop-color="#483D8F" stop-opacity="0"/>
</linearGradient>
<linearGradient id="paint85_linear" x1="101.5" y1="515.5" x2="131.5" y2="576" gradientUnits="userSpaceOnUse">
<stop offset="0.216135" stop-color="#594CAE"/>
<stop offset="0.914943" stop-color="#4E439B" stop-opacity="0"/>
</linearGradient>
<linearGradient id="paint86_linear" x1="11.5" y1="522.5" x2="66" y2="581" gradientUnits="userSpaceOnUse">
<stop stop-color="#51459E"/>
<stop offset="0.8125" stop-color="#483D8F" stop-opacity="0"/>
</linearGradient>
<linearGradient id="paint87_linear" x1="23.5" y1="515.5" x2="53.5" y2="576" gradientUnits="userSpaceOnUse">
<stop offset="0.216135" stop-color="#594CAE"/>
<stop offset="0.914943" stop-color="#4E439B" stop-opacity="0"/>
</linearGradient>
<linearGradient id="paint88_linear" x1="11.5" y1="12.5" x2="66" y2="71" gradientUnits="userSpaceOnUse">
<stop stop-color="#51459E"/>
<stop offset="0.8125" stop-color="#483D8F" stop-opacity="0"/>
</linearGradient>
<linearGradient id="paint89_linear" x1="23.5" y1="5.5" x2="53.5" y2="66" gradientUnits="userSpaceOnUse">
<stop offset="0.216135" stop-color="#594CAE"/>
<stop offset="0.914943" stop-color="#4E439B" stop-opacity="0"/>
</linearGradient>
<linearGradient id="paint90_linear" x1="11.5" y1="12.5" x2="66" y2="71" gradientUnits="userSpaceOnUse">
<stop stop-color="#51459E"/>
<stop offset="0.8125" stop-color="#483D8F" stop-opacity="0"/>
</linearGradient>
<linearGradient id="paint91_linear" x1="23.5" y1="5.5" x2="53.5" y2="66" gradientUnits="userSpaceOnUse">
<stop offset="0.216135" stop-color="#594CAE"/>
<stop offset="0.914943" stop-color="#4E439B" stop-opacity="0"/>
</linearGradient>
<linearGradient id="paint92_linear" x1="11.5" y1="12.5" x2="66" y2="71" gradientUnits="userSpaceOnUse">
<stop stop-color="#51459E"/>
<stop offset="0.8125" stop-color="#483D8F" stop-opacity="0"/>
</linearGradient>
<linearGradient id="paint93_linear" x1="23.5" y1="5.5" x2="53.5" y2="66" gradientUnits="userSpaceOnUse">
<stop offset="0.216135" stop-color="#594CAE"/>
<stop offset="0.914943" stop-color="#4E439B" stop-opacity="0"/>
</linearGradient>
<linearGradient id="paint94_linear" x1="11.5" y1="12.5" x2="66" y2="71" gradientUnits="userSpaceOnUse">
<stop stop-color="#51459E"/>
<stop offset="0.8125" stop-color="#483D8F" stop-opacity="0"/>
</linearGradient>
<linearGradient id="paint95_linear" x1="23.5" y1="5.5" x2="53.5" y2="66" gradientUnits="userSpaceOnUse">
<stop offset="0.216135" stop-color="#594CAE"/>
<stop offset="0.914943" stop-color="#4E439B" stop-opacity="0"/>
</linearGradient>
<linearGradient id="paint96_linear" x1="89.5" y1="596.5" x2="144" y2="655" gradientUnits="userSpaceOnUse">
<stop stop-color="#51459E"/>
<stop offset="0.8125" stop-color="#483D8F" stop-opacity="0"/>
</linearGradient>
<linearGradient id="paint97_linear" x1="101.5" y1="589.5" x2="131.5" y2="650" gradientUnits="userSpaceOnUse">
<stop offset="0.216135" stop-color="#594CAE"/>
<stop offset="0.914943" stop-color="#4E439B" stop-opacity="0"/>
</linearGradient>
<linearGradient id="paint98_linear" x1="11.5" y1="596.5" x2="66" y2="655" gradientUnits="userSpaceOnUse">
<stop stop-color="#51459E"/>
<stop offset="0.8125" stop-color="#483D8F" stop-opacity="0"/>
</linearGradient>
<linearGradient id="paint99_linear" x1="23.5" y1="589.5" x2="53.5" y2="650" gradientUnits="userSpaceOnUse">
<stop offset="0.216135" stop-color="#594CAE"/>
<stop offset="0.914943" stop-color="#4E439B" stop-opacity="0"/>
</linearGradient>
<linearGradient id="paint100_linear" x1="11.5" y1="12.5" x2="66" y2="71" gradientUnits="userSpaceOnUse">
<stop stop-color="#51459E"/>
<stop offset="0.8125" stop-color="#483D8F" stop-opacity="0"/>
</linearGradient>
<linearGradient id="paint101_linear" x1="23.5" y1="5.5" x2="53.5" y2="66" gradientUnits="userSpaceOnUse">
<stop offset="0.216135" stop-color="#594CAE"/>
<stop offset="0.914943" stop-color="#4E439B" stop-opacity="0"/>
</linearGradient>
<linearGradient id="paint102_linear" x1="11.5" y1="12.5" x2="66" y2="71" gradientUnits="userSpaceOnUse">
<stop stop-color="#51459E"/>
<stop offset="0.8125" stop-color="#483D8F" stop-opacity="0"/>
</linearGradient>
<linearGradient id="paint103_linear" x1="23.5" y1="5.5" x2="53.5" y2="66" gradientUnits="userSpaceOnUse">
<stop offset="0.216135" stop-color="#594CAE"/>
<stop offset="0.914943" stop-color="#4E439B" stop-opacity="0"/>
</linearGradient>
<linearGradient id="paint104_linear" x1="11.5" y1="12.5" x2="66" y2="71" gradientUnits="userSpaceOnUse">
<stop stop-color="#51459E"/>
<stop offset="0.8125" stop-color="#483D8F" stop-opacity="0"/>
</linearGradient>
<linearGradient id="paint105_linear" x1="23.5" y1="5.5" x2="53.5" y2="66" gradientUnits="userSpaceOnUse">
<stop offset="0.216135" stop-color="#594CAE"/>
<stop offset="0.914943" stop-color="#4E439B" stop-opacity="0"/>
</linearGradient>
<linearGradient id="paint106_linear" x1="11.5" y1="12.5" x2="66" y2="71" gradientUnits="userSpaceOnUse">
<stop stop-color="#51459E"/>
<stop offset="0.8125" stop-color="#483D8F" stop-opacity="0"/>
</linearGradient>
<linearGradient id="paint107_linear" x1="23.5" y1="5.5" x2="53.5" y2="66" gradientUnits="userSpaceOnUse">
<stop offset="0.216135" stop-color="#594CAE"/>
<stop offset="0.914943" stop-color="#4E439B" stop-opacity="0"/>
</linearGradient>
</defs>
</svg>
