<svg width="476" height="476" viewBox="0 0 476 476" fill="none" xmlns="http://www.w3.org/2000/svg">
<path d="M56.0922 181.808C25.1135 282.016 81.2349 388.364 181.443 419.342C281.65 450.321 387.998 394.2 418.977 293.992C449.955 193.784 393.834 87.4367 293.626 56.458C193.418 25.4794 87.0708 81.6007 56.0922 181.808Z" fill="url(#paint0_linear)"/>
<path fill-rule="evenodd" clip-rule="evenodd" d="M164.802 300.28L165.747 300.195C165.386 293.318 160.179 289.472 160.179 289.472C156.532 286.243 155.347 282.697 155.347 282.697C155.347 282.697 161.501 275.525 155.726 270.967C155.726 270.967 151.509 268.416 148.07 268.625C148.07 268.625 152.943 276.788 151.368 277.601C149.791 278.412 146.594 268.111 146.594 268.111C146.594 268.111 136.996 267.182 133.909 268.665C133.909 268.665 142.114 275.374 140.386 275.774C138.658 276.172 129.796 269.588 129.796 269.588C129.796 269.588 120.863 271.106 121.341 276.552C121.816 281.996 124.893 283.676 126.246 283.531C127.599 283.388 135.512 280.37 135.685 281.477C135.858 282.585 131.093 286.204 127.759 286.372C127.759 286.372 134.056 293.313 138.241 291.31C142.427 289.307 142.784 286.133 145.394 284.941C148.001 283.751 150.229 283.753 149.151 284.968C148.074 286.183 143.353 287.363 141.861 289.999C140.369 292.637 139.031 294.415 143.36 293.765C147.69 293.114 154.729 289.947 155.038 286.322C155.051 286.163 155.065 286.013 155.077 285.868C155.084 286.156 155.038 286.322 155.038 286.322C155.942 286.482 157.817 288.143 159.174 289.446C159.383 289.674 159.69 289.979 160.131 290.389C160.297 290.555 160.434 290.696 160.539 290.802C163.287 293.811 164.802 300.28 164.802 300.28Z" fill="#C9D0EF"/>
<path fill-rule="evenodd" clip-rule="evenodd" d="M176.86 273.677C176.86 273.677 167.073 268.2 171.64 260.767C171.64 260.767 175.295 256.202 179.211 255.029C179.211 255.029 177.121 266.112 179.211 266.373C181.298 266.634 180.645 253.855 180.645 253.855C180.645 253.855 190.956 248.9 195.001 249.292C195.001 249.292 188.606 260.114 190.695 259.853C192.782 259.593 199.96 248.639 199.96 248.639C199.96 248.639 210.532 246.683 212.227 252.942C213.924 259.203 211.184 262.331 209.618 262.723C208.053 263.113 198.003 262.984 198.263 264.287C198.524 265.591 205.312 267.678 209.096 266.504C209.096 266.504 204.92 276.805 199.439 276.284C193.957 275.762 192.26 272.373 188.866 272.11C185.475 271.852 182.995 272.763 184.692 273.677C186.389 274.588 192.131 273.976 194.871 276.303C197.612 278.632 199.829 280.067 194.74 281.11C189.651 282.153 180.515 281.5 178.689 277.589C176.86 273.677 176.86 273.677 176.86 273.677Z" fill="#E3E7FD"/>
<path fill-rule="evenodd" clip-rule="evenodd" d="M207.399 254.898C207.399 254.898 179.993 263.766 176.86 273.677C176.86 273.677 176.991 278.111 174.251 283.195C174.251 283.195 170.024 289.609 172.434 297.414L173.52 297.123C173.52 297.123 172.569 289.379 174.365 284.893C174.438 284.727 174.545 284.489 174.678 284.198C175.003 283.562 175.221 283.097 175.36 282.757C176.336 280.752 177.747 278.136 178.688 277.589C178.688 277.589 172.554 268.982 207.399 254.898Z" fill="#C9D0EF"/>
<path fill-rule="evenodd" clip-rule="evenodd" d="M161.29 266.124C161.29 266.124 174.192 258.903 168.172 249.104C168.172 249.104 163.354 243.089 158.193 241.542C158.193 241.542 160.946 256.153 158.193 256.497C155.441 256.841 156.301 239.995 156.301 239.995C156.301 239.995 142.71 233.464 137.378 233.98C137.378 233.98 145.806 248.245 143.054 247.903C140.302 247.558 130.839 233.12 130.839 233.12C130.839 233.12 116.906 230.54 114.668 238.792C112.432 247.042 116.046 251.169 118.11 251.684C120.175 252.2 133.421 252.028 133.077 253.747C132.733 255.466 123.787 258.216 118.798 256.669C118.798 256.669 124.303 270.249 131.527 269.561C138.754 268.874 140.99 264.403 145.462 264.059C149.937 263.716 153.205 264.919 150.969 266.124C148.731 267.327 141.162 266.518 137.55 269.586C133.938 272.655 131.011 274.546 137.722 275.921C144.43 277.296 156.473 276.436 158.881 271.28C161.29 266.124 161.29 266.124 161.29 266.124Z" fill="#E3E7FD"/>
<path fill-rule="evenodd" clip-rule="evenodd" d="M164.728 278.671C161.116 271.968 161.288 266.124 161.288 266.124C157.16 253.059 121.033 241.37 121.033 241.37C166.965 259.934 158.88 271.28 158.88 271.28C160.119 272 161.974 275.442 163.261 278.082C163.445 278.53 163.735 279.151 164.168 279.995C164.342 280.378 164.483 280.689 164.58 280.907C166.943 286.82 165.691 297.03 165.691 297.03L167.125 297.415C170.301 287.125 164.728 278.671 164.728 278.671Z" fill="#C9D0EF"/>
<path fill-rule="evenodd" clip-rule="evenodd" d="M136.451 294.477C136.451 308.424 147.765 319.729 161.724 319.729C164.638 319.729 167.437 319.237 170.042 318.329C179.914 314.893 186.998 305.512 186.998 294.477H136.451Z" fill="#C9D0EF"/>
<path fill-rule="evenodd" clip-rule="evenodd" d="M135.875 295.251H187.829V294.477H135.875V295.251Z" fill="#ABB4DC"/>
<defs>
<linearGradient id="paint0_linear" x1="293.626" y1="56.458" x2="181.443" y2="419.342" gradientUnits="userSpaceOnUse">
<stop stop-color="#E5E8F7"/>
<stop offset="0.53125" stop-color="#F6F7FC" stop-opacity="0"/>
</linearGradient>
</defs>
</svg>
