<svg width="24" height="24" viewBox="0 0 24 24" fill="none" xmlns="http://www.w3.org/2000/svg">
<path d="M12 1.33333C14.1097 1.33333 16.172 1.95892 17.9261 3.13099C19.6802 4.30306 21.0474 5.96896 21.8547 7.91804C22.6621 9.86712 22.8733 12.0118 22.4617 14.081C22.0501 16.1501 21.0342 18.0507 19.5425 19.5425C18.0507 21.0342 16.1501 22.0501 14.081 22.4617C12.0118 22.8733 9.86713 22.662 7.91805 21.8547C5.96897 21.0474 4.30306 19.6802 3.131 17.9261C1.95893 16.172 1.33334 14.1097 1.33334 12C1.33654 9.172 2.46137 6.46075 4.46106 4.46106C6.46076 2.46136 9.17201 1.33653 12 1.33333ZM12 0C9.62663 0 7.30655 0.703788 5.33316 2.02236C3.35977 3.34094 1.8217 5.21508 0.913451 7.4078C0.00519935 9.60051 -0.232441 12.0133 0.230582 14.3411C0.693605 16.6689 1.83649 18.807 3.51472 20.4853C5.19295 22.1635 7.33115 23.3064 9.65892 23.7694C11.9867 24.2324 14.3995 23.9948 16.5922 23.0865C18.7849 22.1783 20.6591 20.6402 21.9776 18.6668C23.2962 16.6934 24 14.3734 24 12C24 8.8174 22.7357 5.76515 20.4853 3.51472C18.2348 1.26428 15.1826 0 12 0ZM12 16.6154C11.7971 16.6154 11.5988 16.6755 11.4302 16.7882C11.2615 16.9009 11.13 17.0611 11.0524 17.2485C10.9748 17.4359 10.9545 17.6422 10.994 17.8411C11.0336 18.0401 11.1313 18.2228 11.2747 18.3663C11.4182 18.5097 11.6009 18.6074 11.7999 18.647C11.9988 18.6865 12.2051 18.6662 12.3925 18.5886C12.5799 18.511 12.7401 18.3795 12.8528 18.2108C12.9655 18.0422 13.0256 17.8439 13.0256 17.641C13.0256 17.5063 12.9991 17.373 12.9476 17.2485C12.896 17.1241 12.8205 17.011 12.7253 16.9158C12.63 16.8205 12.5169 16.745 12.3925 16.6934C12.2681 16.6419 12.1347 16.6154 12 16.6154ZM11.9916 5.33333C11.5479 5.31094 11.1042 5.37983 10.6882 5.53574C10.2721 5.69165 9.89246 5.93126 9.5727 6.23975C9.25294 6.54825 8.99987 6.91906 8.82915 7.32927C8.65842 7.73947 8.57367 8.18034 8.58014 8.62461H8.58076L8.58014 8.62761C8.58014 8.74244 8.60275 8.85614 8.6467 8.96222C8.69064 9.0683 8.75504 9.16469 8.83624 9.24589C8.91743 9.32708 9.01382 9.39149 9.1199 9.43543C9.22599 9.47937 9.33969 9.50198 9.45451 9.50198C9.56933 9.50198 9.68303 9.47937 9.78912 9.43543C9.8952 9.39149 9.99159 9.32708 10.0728 9.24589C10.154 9.16469 10.2184 9.0683 10.2623 8.96222C10.3063 8.85614 10.3289 8.74244 10.3289 8.62761L10.3283 8.62461H10.3289C10.3145 8.39932 10.347 8.17349 10.4246 7.96146C10.5021 7.74944 10.6229 7.55586 10.7793 7.39302C10.9356 7.23018 11.1241 7.10164 11.3328 7.01556C11.5415 6.92949 11.7659 6.88776 11.9915 6.89303C12.2163 6.88856 12.4396 6.93011 12.6477 7.01512C12.8558 7.10013 13.0443 7.2268 13.2016 7.38734C13.359 7.54789 13.4818 7.73892 13.5626 7.94869C13.6434 8.15846 13.6804 8.38253 13.6714 8.60715C13.6436 9.08822 13.4567 9.5464 13.14 9.90961L11.7277 11.9243C11.3324 12.3997 11.125 13.0036 11.1449 13.6217V14.2212H11.1451C11.1451 14.4479 11.2351 14.6654 11.3955 14.8257C11.5558 14.986 11.7732 15.0761 11.9999 15.0761C12.2267 15.0761 12.4441 14.986 12.6044 14.8257C12.7647 14.6654 12.8548 14.4479 12.8548 14.2212H12.8549V13.7069C12.8829 13.3723 13.0031 13.0521 13.2022 12.7817L14.5969 10.7153C15.0966 10.1229 15.386 9.3815 15.4197 8.60715C15.4257 8.16237 15.3398 7.72115 15.1676 7.31103C14.9954 6.90091 14.7405 6.53069 14.4188 6.22348C14.0971 5.91627 13.7156 5.67868 13.298 5.52552C12.8803 5.37237 12.4356 5.30694 11.9916 5.33333Z" fill="#BABCBE"/>
</svg>
