<svg width="16" height="16" viewBox="0 0 16 16" fill="none" xmlns="http://www.w3.org/2000/svg">
<path fill-rule="evenodd" clip-rule="evenodd" d="M1.09878 8.77804C0.967072 8.61999 0.967072 8.39041 1.09878 8.23235C4.69029 3.92255 11.3097 3.92255 14.9012 8.23235C15.0329 8.39041 15.0329 8.61999 14.9012 8.77804C11.3097 13.0879 4.69029 13.0879 1.09878 8.77804ZM0.330563 7.59217C4.32187 2.80261 11.6781 2.80261 15.6694 7.59217C16.1102 8.12107 16.1102 8.88933 15.6694 9.41823C11.6781 14.2078 4.32187 14.2078 0.330562 9.41823C-0.110188 8.88933 -0.110187 8.12107 0.330563 7.59217ZM9.52909 8.5052C9.52909 9.34969 8.8445 10.0343 8 10.0343C7.15551 10.0343 6.47092 9.34969 6.47092 8.5052C6.47092 7.6607 7.15551 6.97611 8 6.97611C8.8445 6.97611 9.52909 7.6607 9.52909 8.5052ZM10.5291 8.5052C10.5291 9.90197 9.39678 11.0343 8 11.0343C6.60323 11.0343 5.47092 9.90197 5.47092 8.5052C5.47092 7.10842 6.60323 5.97611 8 5.97611C9.39678 5.97611 10.5291 7.10842 10.5291 8.5052Z" fill="#BABCBE"/>
<line x1="13.3536" y1="2.35355" x2="2.35355" y2="13.3536" stroke="#BABCBE"/>
</svg>
