<svg width="439" height="780" viewBox="0 0 439 780" fill="none" xmlns="http://www.w3.org/2000/svg">
<path d="M0 12C0 5.37258 5.37258 0 12 0H439V780H12C5.37259 780 0 774.627 0 768V12Z" fill="#483D8F"/>
<mask id="mask0" mask-type="alpha" maskUnits="userSpaceOnUse" x="0" y="0" width="439" height="780">
<path d="M0 12C0 5.37258 5.37258 0 12 0H439V780H12C5.37259 780 0 774.627 0 768V12Z" fill="#483D8F"/>
</mask>
<g mask="url(#mask0)">
<circle cx="26" cy="19" r="32.5" fill="url(#paint0_linear)" stroke="url(#paint1_linear)"/>
<circle cx="144" cy="159" r="32.5" fill="url(#paint2_linear)" stroke="url(#paint3_linear)"/>
<circle cx="66" cy="159" r="32.5" fill="url(#paint4_linear)" stroke="url(#paint5_linear)"/>
<circle r="32.5" transform="matrix(-1 0 0 1 222 159)" fill="url(#paint6_linear)" stroke="url(#paint7_linear)"/>
<circle r="32.5" transform="matrix(-1 0 0 1 300 159)" fill="url(#paint8_linear)" stroke="url(#paint9_linear)"/>
<circle r="32.5" transform="matrix(-1 0 0 1 378 159)" fill="url(#paint10_linear)" stroke="url(#paint11_linear)"/>
<circle r="32.5" transform="matrix(-1 0 0 1 456 159)" fill="url(#paint12_linear)" stroke="url(#paint13_linear)"/>
<circle r="32.5" transform="matrix(-1 0 0 1 104 19)" fill="url(#paint14_linear)" stroke="url(#paint15_linear)"/>
<circle r="32.5" transform="matrix(-1 0 0 1 182 19)" fill="url(#paint16_linear)" stroke="url(#paint17_linear)"/>
<circle r="32.5" transform="matrix(-1 0 0 1 260 19)" fill="url(#paint18_linear)" stroke="url(#paint19_linear)"/>
<circle r="32.5" transform="matrix(-1 0 0 1 338 19)" fill="url(#paint20_linear)" stroke="url(#paint21_linear)"/>
<circle r="32.5" transform="matrix(-1 0 0 1 416 19)" fill="url(#paint22_linear)" stroke="url(#paint23_linear)"/>
<circle cx="144" cy="85" r="32.5" fill="url(#paint24_linear)" stroke="url(#paint25_linear)"/>
<circle cx="66" cy="85" r="32.5" fill="url(#paint26_linear)" stroke="url(#paint27_linear)"/>
<circle r="32.5" transform="matrix(-1 0 0 1 222 85)" fill="url(#paint28_linear)" stroke="url(#paint29_linear)"/>
<path d="M267.5 85C267.5 102.949 282.051 117.5 300 117.5C317.949 117.5 332.5 102.949 332.5 85C332.5 67.0507 317.949 52.5 300 52.5C282.051 52.5 267.5 67.0507 267.5 85Z" fill="url(#paint30_linear)" stroke="url(#paint31_linear)"/>
<circle r="32.5" transform="matrix(-1 0 0 1 378 85)" fill="url(#paint32_linear)" stroke="url(#paint33_linear)"/>
<circle r="32.5" transform="matrix(-1 0 0 1 456 85)" fill="url(#paint34_linear)" stroke="url(#paint35_linear)"/>
<circle cx="94" cy="233" r="32.5" fill="url(#paint36_linear)" stroke="url(#paint37_linear)"/>
<circle cx="16" cy="233" r="32.5" fill="url(#paint38_linear)" stroke="url(#paint39_linear)"/>
<circle r="32.5" transform="matrix(-1 0 0 1 172 233)" fill="url(#paint40_linear)" stroke="url(#paint41_linear)"/>
<circle r="32.5" transform="matrix(-1 0 0 1 250 233)" fill="url(#paint42_linear)" stroke="url(#paint43_linear)"/>
<circle r="32.5" transform="matrix(-1 0 0 1 328 233)" fill="url(#paint44_linear)" stroke="url(#paint45_linear)"/>
<circle r="32.5" transform="matrix(-1 0 0 1 406 233)" fill="url(#paint46_linear)" stroke="url(#paint47_linear)"/>
<circle cx="94" cy="307" r="32.5" fill="url(#paint48_linear)" stroke="url(#paint49_linear)"/>
<circle cx="16" cy="307" r="32.5" fill="url(#paint50_linear)" stroke="url(#paint51_linear)"/>
<circle r="32.5" transform="matrix(-1 0 0 1 172 307)" fill="url(#paint52_linear)" stroke="url(#paint53_linear)"/>
<circle r="32.5" transform="matrix(-1 0 0 1 250 307)" fill="url(#paint54_linear)" stroke="url(#paint55_linear)"/>
<circle r="32.5" transform="matrix(-1 0 0 1 328 307)" fill="url(#paint56_linear)" stroke="url(#paint57_linear)"/>
<circle r="32.5" transform="matrix(-1 0 0 1 406 307)" fill="url(#paint58_linear)" stroke="url(#paint59_linear)"/>
<circle cx="94" cy="381" r="32.5" fill="url(#paint60_linear)" stroke="url(#paint61_linear)"/>
<circle cx="16" cy="381" r="32.5" fill="url(#paint62_linear)" stroke="url(#paint63_linear)"/>
<circle r="32.5" transform="matrix(-1 0 0 1 172 381)" fill="url(#paint64_linear)" stroke="url(#paint65_linear)"/>
<circle r="32.5" transform="matrix(-1 0 0 1 250 381)" fill="url(#paint66_linear)" stroke="url(#paint67_linear)"/>
<circle r="32.5" transform="matrix(-1 0 0 1 328 381)" fill="url(#paint68_linear)" stroke="url(#paint69_linear)"/>
<circle r="32.5" transform="matrix(-1 0 0 1 406 381)" fill="url(#paint70_linear)" stroke="url(#paint71_linear)"/>
<circle cx="94" cy="455" r="32.5" fill="url(#paint72_linear)" stroke="url(#paint73_linear)"/>
<circle cx="16" cy="455" r="32.5" fill="url(#paint74_linear)" stroke="url(#paint75_linear)"/>
<circle r="32.5" transform="matrix(-1 0 0 1 172 455)" fill="url(#paint76_linear)" stroke="url(#paint77_linear)"/>
<circle r="32.5" transform="matrix(-1 0 0 1 250 455)" fill="url(#paint78_linear)" stroke="url(#paint79_linear)"/>
<circle r="32.5" transform="matrix(-1 0 0 1 328 455)" fill="url(#paint80_linear)" stroke="url(#paint81_linear)"/>
<circle r="32.5" transform="matrix(-1 0 0 1 406 455)" fill="url(#paint82_linear)" stroke="url(#paint83_linear)"/>
<circle cx="94" cy="529" r="32.5" fill="url(#paint84_linear)" stroke="url(#paint85_linear)"/>
<circle cx="16" cy="529" r="32.5" fill="url(#paint86_linear)" stroke="url(#paint87_linear)"/>
<circle r="32.5" transform="matrix(-1 0 0 1 172 529)" fill="url(#paint88_linear)" stroke="url(#paint89_linear)"/>
<circle r="32.5" transform="matrix(-1 0 0 1 250 529)" fill="url(#paint90_linear)" stroke="url(#paint91_linear)"/>
<circle r="32.5" transform="matrix(-1 0 0 1 328 529)" fill="url(#paint92_linear)" stroke="url(#paint93_linear)"/>
<circle r="32.5" transform="matrix(-1 0 0 1 406 529)" fill="url(#paint94_linear)" stroke="url(#paint95_linear)"/>
<circle cx="94" cy="603" r="32.5" fill="url(#paint96_linear)" stroke="url(#paint97_linear)"/>
<circle cx="16" cy="603" r="32.5" fill="url(#paint98_linear)" stroke="url(#paint99_linear)"/>
<circle r="32.5" transform="matrix(-1 0 0 1 172 603)" fill="url(#paint100_linear)" stroke="url(#paint101_linear)"/>
<circle r="32.5" transform="matrix(-1 0 0 1 250 603)" fill="url(#paint102_linear)" stroke="url(#paint103_linear)"/>
<circle r="32.5" transform="matrix(-1 0 0 1 328 603)" fill="url(#paint104_linear)" stroke="url(#paint105_linear)"/>
<circle r="32.5" transform="matrix(-1 0 0 1 406 603)" fill="url(#paint106_linear)" stroke="url(#paint107_linear)"/>
<rect width="439" height="780" fill="url(#paint108_linear)"/>
</g>
<defs>
<linearGradient id="paint0_linear" x1="4.5" y1="-1.5" x2="59" y2="57" gradientUnits="userSpaceOnUse">
<stop stop-color="#51459E"/>
<stop offset="0.8125" stop-color="#483D8F" stop-opacity="0"/>
</linearGradient>
<linearGradient id="paint1_linear" x1="16.5" y1="-8.5" x2="46.5" y2="52" gradientUnits="userSpaceOnUse">
<stop offset="0.216135" stop-color="#594CAE"/>
<stop offset="0.914943" stop-color="#4E439B" stop-opacity="0"/>
</linearGradient>
<linearGradient id="paint2_linear" x1="122.5" y1="138.5" x2="177" y2="197" gradientUnits="userSpaceOnUse">
<stop stop-color="#51459E"/>
<stop offset="0.8125" stop-color="#483D8F" stop-opacity="0"/>
</linearGradient>
<linearGradient id="paint3_linear" x1="134.5" y1="131.5" x2="164.5" y2="192" gradientUnits="userSpaceOnUse">
<stop offset="0.216135" stop-color="#594CAE"/>
<stop offset="0.914943" stop-color="#4E439B" stop-opacity="0"/>
</linearGradient>
<linearGradient id="paint4_linear" x1="44.5" y1="138.5" x2="99" y2="197" gradientUnits="userSpaceOnUse">
<stop stop-color="#51459E"/>
<stop offset="0.8125" stop-color="#483D8F" stop-opacity="0"/>
</linearGradient>
<linearGradient id="paint5_linear" x1="56.5" y1="131.5" x2="86.5" y2="192" gradientUnits="userSpaceOnUse">
<stop offset="0.216135" stop-color="#594CAE"/>
<stop offset="0.914943" stop-color="#4E439B" stop-opacity="0"/>
</linearGradient>
<linearGradient id="paint6_linear" x1="11.5" y1="12.5" x2="66" y2="71" gradientUnits="userSpaceOnUse">
<stop stop-color="#51459E"/>
<stop offset="0.8125" stop-color="#483D8F" stop-opacity="0"/>
</linearGradient>
<linearGradient id="paint7_linear" x1="23.5" y1="5.5" x2="53.5" y2="66" gradientUnits="userSpaceOnUse">
<stop offset="0.216135" stop-color="#594CAE"/>
<stop offset="0.914943" stop-color="#4E439B" stop-opacity="0"/>
</linearGradient>
<linearGradient id="paint8_linear" x1="11.5" y1="12.5" x2="66" y2="71" gradientUnits="userSpaceOnUse">
<stop stop-color="#51459E"/>
<stop offset="0.8125" stop-color="#483D8F" stop-opacity="0"/>
</linearGradient>
<linearGradient id="paint9_linear" x1="23.5" y1="5.5" x2="53.5" y2="66" gradientUnits="userSpaceOnUse">
<stop offset="0.216135" stop-color="#594CAE"/>
<stop offset="0.914943" stop-color="#4E439B" stop-opacity="0"/>
</linearGradient>
<linearGradient id="paint10_linear" x1="11.5" y1="12.5" x2="66" y2="71" gradientUnits="userSpaceOnUse">
<stop stop-color="#51459E"/>
<stop offset="0.8125" stop-color="#483D8F" stop-opacity="0"/>
</linearGradient>
<linearGradient id="paint11_linear" x1="23.5" y1="5.5" x2="53.5" y2="66" gradientUnits="userSpaceOnUse">
<stop offset="0.216135" stop-color="#594CAE"/>
<stop offset="0.914943" stop-color="#4E439B" stop-opacity="0"/>
</linearGradient>
<linearGradient id="paint12_linear" x1="11.5" y1="12.5" x2="66" y2="71" gradientUnits="userSpaceOnUse">
<stop stop-color="#51459E"/>
<stop offset="0.8125" stop-color="#483D8F" stop-opacity="0"/>
</linearGradient>
<linearGradient id="paint13_linear" x1="23.5" y1="5.5" x2="53.5" y2="66" gradientUnits="userSpaceOnUse">
<stop offset="0.216135" stop-color="#594CAE"/>
<stop offset="0.914943" stop-color="#4E439B" stop-opacity="0"/>
</linearGradient>
<linearGradient id="paint14_linear" x1="11.5" y1="12.5" x2="66" y2="71" gradientUnits="userSpaceOnUse">
<stop stop-color="#51459E"/>
<stop offset="0.8125" stop-color="#483D8F" stop-opacity="0"/>
</linearGradient>
<linearGradient id="paint15_linear" x1="23.5" y1="5.5" x2="53.5" y2="66" gradientUnits="userSpaceOnUse">
<stop offset="0.216135" stop-color="#594CAE"/>
<stop offset="0.914943" stop-color="#4E439B" stop-opacity="0"/>
</linearGradient>
<linearGradient id="paint16_linear" x1="11.5" y1="12.5" x2="66" y2="71" gradientUnits="userSpaceOnUse">
<stop stop-color="#51459E"/>
<stop offset="0.8125" stop-color="#483D8F" stop-opacity="0"/>
</linearGradient>
<linearGradient id="paint17_linear" x1="23.5" y1="5.5" x2="53.5" y2="66" gradientUnits="userSpaceOnUse">
<stop offset="0.216135" stop-color="#594CAE"/>
<stop offset="0.914943" stop-color="#4E439B" stop-opacity="0"/>
</linearGradient>
<linearGradient id="paint18_linear" x1="11.5" y1="12.5" x2="66" y2="71" gradientUnits="userSpaceOnUse">
<stop stop-color="#51459E"/>
<stop offset="0.8125" stop-color="#483D8F" stop-opacity="0"/>
</linearGradient>
<linearGradient id="paint19_linear" x1="23.5" y1="5.5" x2="53.5" y2="66" gradientUnits="userSpaceOnUse">
<stop offset="0.216135" stop-color="#594CAE"/>
<stop offset="0.914943" stop-color="#4E439B" stop-opacity="0"/>
</linearGradient>
<linearGradient id="paint20_linear" x1="11.5" y1="12.5" x2="66" y2="71" gradientUnits="userSpaceOnUse">
<stop stop-color="#51459E"/>
<stop offset="0.8125" stop-color="#483D8F" stop-opacity="0"/>
</linearGradient>
<linearGradient id="paint21_linear" x1="23.5" y1="5.5" x2="53.5" y2="66" gradientUnits="userSpaceOnUse">
<stop offset="0.216135" stop-color="#594CAE"/>
<stop offset="0.914943" stop-color="#4E439B" stop-opacity="0"/>
</linearGradient>
<linearGradient id="paint22_linear" x1="11.5" y1="12.5" x2="66" y2="71" gradientUnits="userSpaceOnUse">
<stop stop-color="#51459E"/>
<stop offset="0.8125" stop-color="#483D8F" stop-opacity="0"/>
</linearGradient>
<linearGradient id="paint23_linear" x1="23.5" y1="5.5" x2="53.5" y2="66" gradientUnits="userSpaceOnUse">
<stop offset="0.216135" stop-color="#594CAE"/>
<stop offset="0.914943" stop-color="#4E439B" stop-opacity="0"/>
</linearGradient>
<linearGradient id="paint24_linear" x1="122.5" y1="64.5" x2="177" y2="123" gradientUnits="userSpaceOnUse">
<stop stop-color="#51459E"/>
<stop offset="0.8125" stop-color="#483D8F" stop-opacity="0"/>
</linearGradient>
<linearGradient id="paint25_linear" x1="134.5" y1="57.5" x2="164.5" y2="118" gradientUnits="userSpaceOnUse">
<stop offset="0.216135" stop-color="#594CAE"/>
<stop offset="0.914943" stop-color="#4E439B" stop-opacity="0"/>
</linearGradient>
<linearGradient id="paint26_linear" x1="44.5" y1="64.5" x2="99" y2="123" gradientUnits="userSpaceOnUse">
<stop stop-color="#51459E"/>
<stop offset="0.8125" stop-color="#483D8F" stop-opacity="0"/>
</linearGradient>
<linearGradient id="paint27_linear" x1="56.5" y1="57.5" x2="86.5" y2="118" gradientUnits="userSpaceOnUse">
<stop offset="0.216135" stop-color="#594CAE"/>
<stop offset="0.914943" stop-color="#4E439B" stop-opacity="0"/>
</linearGradient>
<linearGradient id="paint28_linear" x1="11.5" y1="12.5" x2="66" y2="71" gradientUnits="userSpaceOnUse">
<stop stop-color="#51459E"/>
<stop offset="0.8125" stop-color="#483D8F" stop-opacity="0"/>
</linearGradient>
<linearGradient id="paint29_linear" x1="23.5" y1="5.5" x2="53.5" y2="66" gradientUnits="userSpaceOnUse">
<stop offset="0.216135" stop-color="#594CAE"/>
<stop offset="0.914943" stop-color="#4E439B" stop-opacity="0"/>
</linearGradient>
<linearGradient id="paint30_linear" x1="321.5" y1="64.5" x2="267" y2="123" gradientUnits="userSpaceOnUse">
<stop stop-color="#51459E"/>
<stop offset="0.8125" stop-color="#483D8F" stop-opacity="0"/>
</linearGradient>
<linearGradient id="paint31_linear" x1="309.5" y1="57.5" x2="279.5" y2="118" gradientUnits="userSpaceOnUse">
<stop offset="0.216135" stop-color="#594CAE"/>
<stop offset="0.914943" stop-color="#4E439B" stop-opacity="0"/>
</linearGradient>
<linearGradient id="paint32_linear" x1="11.5" y1="12.5" x2="66" y2="71" gradientUnits="userSpaceOnUse">
<stop stop-color="#51459E"/>
<stop offset="0.8125" stop-color="#483D8F" stop-opacity="0"/>
</linearGradient>
<linearGradient id="paint33_linear" x1="23.5" y1="5.5" x2="53.5" y2="66" gradientUnits="userSpaceOnUse">
<stop offset="0.216135" stop-color="#594CAE"/>
<stop offset="0.914943" stop-color="#4E439B" stop-opacity="0"/>
</linearGradient>
<linearGradient id="paint34_linear" x1="11.5" y1="12.5" x2="66" y2="71" gradientUnits="userSpaceOnUse">
<stop stop-color="#51459E"/>
<stop offset="0.8125" stop-color="#483D8F" stop-opacity="0"/>
</linearGradient>
<linearGradient id="paint35_linear" x1="23.5" y1="5.5" x2="53.5" y2="66" gradientUnits="userSpaceOnUse">
<stop offset="0.216135" stop-color="#594CAE"/>
<stop offset="0.914943" stop-color="#4E439B" stop-opacity="0"/>
</linearGradient>
<linearGradient id="paint36_linear" x1="72.5" y1="212.5" x2="127" y2="271" gradientUnits="userSpaceOnUse">
<stop stop-color="#51459E"/>
<stop offset="0.8125" stop-color="#483D8F" stop-opacity="0"/>
</linearGradient>
<linearGradient id="paint37_linear" x1="84.5" y1="205.5" x2="114.5" y2="266" gradientUnits="userSpaceOnUse">
<stop offset="0.216135" stop-color="#594CAE"/>
<stop offset="0.914943" stop-color="#4E439B" stop-opacity="0"/>
</linearGradient>
<linearGradient id="paint38_linear" x1="-5.5" y1="212.5" x2="49" y2="271" gradientUnits="userSpaceOnUse">
<stop stop-color="#51459E"/>
<stop offset="0.8125" stop-color="#483D8F" stop-opacity="0"/>
</linearGradient>
<linearGradient id="paint39_linear" x1="6.5" y1="205.5" x2="36.5" y2="266" gradientUnits="userSpaceOnUse">
<stop offset="0.216135" stop-color="#594CAE"/>
<stop offset="0.914943" stop-color="#4E439B" stop-opacity="0"/>
</linearGradient>
<linearGradient id="paint40_linear" x1="11.5" y1="12.5" x2="66" y2="71" gradientUnits="userSpaceOnUse">
<stop stop-color="#51459E"/>
<stop offset="0.8125" stop-color="#483D8F" stop-opacity="0"/>
</linearGradient>
<linearGradient id="paint41_linear" x1="23.5" y1="5.5" x2="53.5" y2="66" gradientUnits="userSpaceOnUse">
<stop offset="0.216135" stop-color="#594CAE"/>
<stop offset="0.914943" stop-color="#4E439B" stop-opacity="0"/>
</linearGradient>
<linearGradient id="paint42_linear" x1="11.5" y1="12.5" x2="66" y2="71" gradientUnits="userSpaceOnUse">
<stop stop-color="#51459E"/>
<stop offset="0.8125" stop-color="#483D8F" stop-opacity="0"/>
</linearGradient>
<linearGradient id="paint43_linear" x1="23.5" y1="5.5" x2="53.5" y2="66" gradientUnits="userSpaceOnUse">
<stop offset="0.216135" stop-color="#594CAE"/>
<stop offset="0.914943" stop-color="#4E439B" stop-opacity="0"/>
</linearGradient>
<linearGradient id="paint44_linear" x1="11.5" y1="12.5" x2="66" y2="71" gradientUnits="userSpaceOnUse">
<stop stop-color="#51459E"/>
<stop offset="0.8125" stop-color="#483D8F" stop-opacity="0"/>
</linearGradient>
<linearGradient id="paint45_linear" x1="23.5" y1="5.5" x2="53.5" y2="66" gradientUnits="userSpaceOnUse">
<stop offset="0.216135" stop-color="#594CAE"/>
<stop offset="0.914943" stop-color="#4E439B" stop-opacity="0"/>
</linearGradient>
<linearGradient id="paint46_linear" x1="11.5" y1="12.5" x2="66" y2="71" gradientUnits="userSpaceOnUse">
<stop stop-color="#51459E"/>
<stop offset="0.8125" stop-color="#483D8F" stop-opacity="0"/>
</linearGradient>
<linearGradient id="paint47_linear" x1="23.5" y1="5.5" x2="53.5" y2="66" gradientUnits="userSpaceOnUse">
<stop offset="0.216135" stop-color="#594CAE"/>
<stop offset="0.914943" stop-color="#4E439B" stop-opacity="0"/>
</linearGradient>
<linearGradient id="paint48_linear" x1="72.5" y1="286.5" x2="127" y2="345" gradientUnits="userSpaceOnUse">
<stop stop-color="#51459E"/>
<stop offset="0.8125" stop-color="#483D8F" stop-opacity="0"/>
</linearGradient>
<linearGradient id="paint49_linear" x1="84.5" y1="279.5" x2="114.5" y2="340" gradientUnits="userSpaceOnUse">
<stop offset="0.216135" stop-color="#594CAE"/>
<stop offset="0.914943" stop-color="#4E439B" stop-opacity="0"/>
</linearGradient>
<linearGradient id="paint50_linear" x1="-5.5" y1="286.5" x2="49" y2="345" gradientUnits="userSpaceOnUse">
<stop stop-color="#51459E"/>
<stop offset="0.8125" stop-color="#483D8F" stop-opacity="0"/>
</linearGradient>
<linearGradient id="paint51_linear" x1="6.5" y1="279.5" x2="36.5" y2="340" gradientUnits="userSpaceOnUse">
<stop offset="0.216135" stop-color="#594CAE"/>
<stop offset="0.914943" stop-color="#4E439B" stop-opacity="0"/>
</linearGradient>
<linearGradient id="paint52_linear" x1="11.5" y1="12.5" x2="66" y2="71" gradientUnits="userSpaceOnUse">
<stop stop-color="#51459E"/>
<stop offset="0.8125" stop-color="#483D8F" stop-opacity="0"/>
</linearGradient>
<linearGradient id="paint53_linear" x1="23.5" y1="5.5" x2="53.5" y2="66" gradientUnits="userSpaceOnUse">
<stop offset="0.216135" stop-color="#594CAE"/>
<stop offset="0.914943" stop-color="#4E439B" stop-opacity="0"/>
</linearGradient>
<linearGradient id="paint54_linear" x1="11.5" y1="12.5" x2="66" y2="71" gradientUnits="userSpaceOnUse">
<stop stop-color="#51459E"/>
<stop offset="0.8125" stop-color="#483D8F" stop-opacity="0"/>
</linearGradient>
<linearGradient id="paint55_linear" x1="23.5" y1="5.5" x2="53.5" y2="66" gradientUnits="userSpaceOnUse">
<stop offset="0.216135" stop-color="#594CAE"/>
<stop offset="0.914943" stop-color="#4E439B" stop-opacity="0"/>
</linearGradient>
<linearGradient id="paint56_linear" x1="11.5" y1="12.5" x2="66" y2="71" gradientUnits="userSpaceOnUse">
<stop stop-color="#51459E"/>
<stop offset="0.8125" stop-color="#483D8F" stop-opacity="0"/>
</linearGradient>
<linearGradient id="paint57_linear" x1="23.5" y1="5.5" x2="53.5" y2="66" gradientUnits="userSpaceOnUse">
<stop offset="0.216135" stop-color="#594CAE"/>
<stop offset="0.914943" stop-color="#4E439B" stop-opacity="0"/>
</linearGradient>
<linearGradient id="paint58_linear" x1="11.5" y1="12.5" x2="66" y2="71" gradientUnits="userSpaceOnUse">
<stop stop-color="#51459E"/>
<stop offset="0.8125" stop-color="#483D8F" stop-opacity="0"/>
</linearGradient>
<linearGradient id="paint59_linear" x1="23.5" y1="5.5" x2="53.5" y2="66" gradientUnits="userSpaceOnUse">
<stop offset="0.216135" stop-color="#594CAE"/>
<stop offset="0.914943" stop-color="#4E439B" stop-opacity="0"/>
</linearGradient>
<linearGradient id="paint60_linear" x1="72.5" y1="360.5" x2="127" y2="419" gradientUnits="userSpaceOnUse">
<stop stop-color="#51459E"/>
<stop offset="0.8125" stop-color="#483D8F" stop-opacity="0"/>
</linearGradient>
<linearGradient id="paint61_linear" x1="84.5" y1="353.5" x2="114.5" y2="414" gradientUnits="userSpaceOnUse">
<stop offset="0.216135" stop-color="#594CAE"/>
<stop offset="0.914943" stop-color="#4E439B" stop-opacity="0"/>
</linearGradient>
<linearGradient id="paint62_linear" x1="-5.5" y1="360.5" x2="49" y2="419" gradientUnits="userSpaceOnUse">
<stop stop-color="#51459E"/>
<stop offset="0.8125" stop-color="#483D8F" stop-opacity="0"/>
</linearGradient>
<linearGradient id="paint63_linear" x1="6.5" y1="353.5" x2="36.5" y2="414" gradientUnits="userSpaceOnUse">
<stop offset="0.216135" stop-color="#594CAE"/>
<stop offset="0.914943" stop-color="#4E439B" stop-opacity="0"/>
</linearGradient>
<linearGradient id="paint64_linear" x1="11.5" y1="12.5" x2="66" y2="71" gradientUnits="userSpaceOnUse">
<stop stop-color="#51459E"/>
<stop offset="0.8125" stop-color="#483D8F" stop-opacity="0"/>
</linearGradient>
<linearGradient id="paint65_linear" x1="23.5" y1="5.5" x2="53.5" y2="66" gradientUnits="userSpaceOnUse">
<stop offset="0.216135" stop-color="#594CAE"/>
<stop offset="0.914943" stop-color="#4E439B" stop-opacity="0"/>
</linearGradient>
<linearGradient id="paint66_linear" x1="11.5" y1="12.5" x2="66" y2="71" gradientUnits="userSpaceOnUse">
<stop stop-color="#51459E"/>
<stop offset="0.8125" stop-color="#483D8F" stop-opacity="0"/>
</linearGradient>
<linearGradient id="paint67_linear" x1="23.5" y1="5.5" x2="53.5" y2="66" gradientUnits="userSpaceOnUse">
<stop offset="0.216135" stop-color="#594CAE"/>
<stop offset="0.914943" stop-color="#4E439B" stop-opacity="0"/>
</linearGradient>
<linearGradient id="paint68_linear" x1="11.5" y1="12.5" x2="66" y2="71" gradientUnits="userSpaceOnUse">
<stop stop-color="#51459E"/>
<stop offset="0.8125" stop-color="#483D8F" stop-opacity="0"/>
</linearGradient>
<linearGradient id="paint69_linear" x1="23.5" y1="5.5" x2="53.5" y2="66" gradientUnits="userSpaceOnUse">
<stop offset="0.216135" stop-color="#594CAE"/>
<stop offset="0.914943" stop-color="#4E439B" stop-opacity="0"/>
</linearGradient>
<linearGradient id="paint70_linear" x1="11.5" y1="12.5" x2="66" y2="71" gradientUnits="userSpaceOnUse">
<stop stop-color="#51459E"/>
<stop offset="0.8125" stop-color="#483D8F" stop-opacity="0"/>
</linearGradient>
<linearGradient id="paint71_linear" x1="23.5" y1="5.5" x2="53.5" y2="66" gradientUnits="userSpaceOnUse">
<stop offset="0.216135" stop-color="#594CAE"/>
<stop offset="0.914943" stop-color="#4E439B" stop-opacity="0"/>
</linearGradient>
<linearGradient id="paint72_linear" x1="72.5" y1="434.5" x2="127" y2="493" gradientUnits="userSpaceOnUse">
<stop stop-color="#51459E"/>
<stop offset="0.8125" stop-color="#483D8F" stop-opacity="0"/>
</linearGradient>
<linearGradient id="paint73_linear" x1="84.5" y1="427.5" x2="114.5" y2="488" gradientUnits="userSpaceOnUse">
<stop offset="0.216135" stop-color="#594CAE"/>
<stop offset="0.914943" stop-color="#4E439B" stop-opacity="0"/>
</linearGradient>
<linearGradient id="paint74_linear" x1="-5.5" y1="434.5" x2="49" y2="493" gradientUnits="userSpaceOnUse">
<stop stop-color="#51459E"/>
<stop offset="0.8125" stop-color="#483D8F" stop-opacity="0"/>
</linearGradient>
<linearGradient id="paint75_linear" x1="6.5" y1="427.5" x2="36.5" y2="488" gradientUnits="userSpaceOnUse">
<stop offset="0.216135" stop-color="#594CAE"/>
<stop offset="0.914943" stop-color="#4E439B" stop-opacity="0"/>
</linearGradient>
<linearGradient id="paint76_linear" x1="11.5" y1="12.5" x2="66" y2="71" gradientUnits="userSpaceOnUse">
<stop stop-color="#51459E"/>
<stop offset="0.8125" stop-color="#483D8F" stop-opacity="0"/>
</linearGradient>
<linearGradient id="paint77_linear" x1="23.5" y1="5.5" x2="53.5" y2="66" gradientUnits="userSpaceOnUse">
<stop offset="0.216135" stop-color="#594CAE"/>
<stop offset="0.914943" stop-color="#4E439B" stop-opacity="0"/>
</linearGradient>
<linearGradient id="paint78_linear" x1="11.5" y1="12.5" x2="66" y2="71" gradientUnits="userSpaceOnUse">
<stop stop-color="#51459E"/>
<stop offset="0.8125" stop-color="#483D8F" stop-opacity="0"/>
</linearGradient>
<linearGradient id="paint79_linear" x1="23.5" y1="5.5" x2="53.5" y2="66" gradientUnits="userSpaceOnUse">
<stop offset="0.216135" stop-color="#594CAE"/>
<stop offset="0.914943" stop-color="#4E439B" stop-opacity="0"/>
</linearGradient>
<linearGradient id="paint80_linear" x1="11.5" y1="12.5" x2="66" y2="71" gradientUnits="userSpaceOnUse">
<stop stop-color="#51459E"/>
<stop offset="0.8125" stop-color="#483D8F" stop-opacity="0"/>
</linearGradient>
<linearGradient id="paint81_linear" x1="23.5" y1="5.5" x2="53.5" y2="66" gradientUnits="userSpaceOnUse">
<stop offset="0.216135" stop-color="#594CAE"/>
<stop offset="0.914943" stop-color="#4E439B" stop-opacity="0"/>
</linearGradient>
<linearGradient id="paint82_linear" x1="11.5" y1="12.5" x2="66" y2="71" gradientUnits="userSpaceOnUse">
<stop stop-color="#51459E"/>
<stop offset="0.8125" stop-color="#483D8F" stop-opacity="0"/>
</linearGradient>
<linearGradient id="paint83_linear" x1="23.5" y1="5.5" x2="53.5" y2="66" gradientUnits="userSpaceOnUse">
<stop offset="0.216135" stop-color="#594CAE"/>
<stop offset="0.914943" stop-color="#4E439B" stop-opacity="0"/>
</linearGradient>
<linearGradient id="paint84_linear" x1="72.5" y1="508.5" x2="127" y2="567" gradientUnits="userSpaceOnUse">
<stop stop-color="#51459E"/>
<stop offset="0.8125" stop-color="#483D8F" stop-opacity="0"/>
</linearGradient>
<linearGradient id="paint85_linear" x1="84.5" y1="501.5" x2="114.5" y2="562" gradientUnits="userSpaceOnUse">
<stop offset="0.216135" stop-color="#594CAE"/>
<stop offset="0.914943" stop-color="#4E439B" stop-opacity="0"/>
</linearGradient>
<linearGradient id="paint86_linear" x1="-5.5" y1="508.5" x2="49" y2="567" gradientUnits="userSpaceOnUse">
<stop stop-color="#51459E"/>
<stop offset="0.8125" stop-color="#483D8F" stop-opacity="0"/>
</linearGradient>
<linearGradient id="paint87_linear" x1="6.5" y1="501.5" x2="36.5" y2="562" gradientUnits="userSpaceOnUse">
<stop offset="0.216135" stop-color="#594CAE"/>
<stop offset="0.914943" stop-color="#4E439B" stop-opacity="0"/>
</linearGradient>
<linearGradient id="paint88_linear" x1="11.5" y1="12.5" x2="66" y2="71" gradientUnits="userSpaceOnUse">
<stop stop-color="#51459E"/>
<stop offset="0.8125" stop-color="#483D8F" stop-opacity="0"/>
</linearGradient>
<linearGradient id="paint89_linear" x1="23.5" y1="5.5" x2="53.5" y2="66" gradientUnits="userSpaceOnUse">
<stop offset="0.216135" stop-color="#594CAE"/>
<stop offset="0.914943" stop-color="#4E439B" stop-opacity="0"/>
</linearGradient>
<linearGradient id="paint90_linear" x1="11.5" y1="12.5" x2="66" y2="71" gradientUnits="userSpaceOnUse">
<stop stop-color="#51459E"/>
<stop offset="0.8125" stop-color="#483D8F" stop-opacity="0"/>
</linearGradient>
<linearGradient id="paint91_linear" x1="23.5" y1="5.5" x2="53.5" y2="66" gradientUnits="userSpaceOnUse">
<stop offset="0.216135" stop-color="#594CAE"/>
<stop offset="0.914943" stop-color="#4E439B" stop-opacity="0"/>
</linearGradient>
<linearGradient id="paint92_linear" x1="11.5" y1="12.5" x2="66" y2="71" gradientUnits="userSpaceOnUse">
<stop stop-color="#51459E"/>
<stop offset="0.8125" stop-color="#483D8F" stop-opacity="0"/>
</linearGradient>
<linearGradient id="paint93_linear" x1="23.5" y1="5.5" x2="53.5" y2="66" gradientUnits="userSpaceOnUse">
<stop offset="0.216135" stop-color="#594CAE"/>
<stop offset="0.914943" stop-color="#4E439B" stop-opacity="0"/>
</linearGradient>
<linearGradient id="paint94_linear" x1="11.5" y1="12.5" x2="66" y2="71" gradientUnits="userSpaceOnUse">
<stop stop-color="#51459E"/>
<stop offset="0.8125" stop-color="#483D8F" stop-opacity="0"/>
</linearGradient>
<linearGradient id="paint95_linear" x1="23.5" y1="5.5" x2="53.5" y2="66" gradientUnits="userSpaceOnUse">
<stop offset="0.216135" stop-color="#594CAE"/>
<stop offset="0.914943" stop-color="#4E439B" stop-opacity="0"/>
</linearGradient>
<linearGradient id="paint96_linear" x1="72.5" y1="582.5" x2="127" y2="641" gradientUnits="userSpaceOnUse">
<stop stop-color="#51459E"/>
<stop offset="0.8125" stop-color="#483D8F" stop-opacity="0"/>
</linearGradient>
<linearGradient id="paint97_linear" x1="84.5" y1="575.5" x2="114.5" y2="636" gradientUnits="userSpaceOnUse">
<stop offset="0.216135" stop-color="#594CAE"/>
<stop offset="0.914943" stop-color="#4E439B" stop-opacity="0"/>
</linearGradient>
<linearGradient id="paint98_linear" x1="-5.5" y1="582.5" x2="49" y2="641" gradientUnits="userSpaceOnUse">
<stop stop-color="#51459E"/>
<stop offset="0.8125" stop-color="#483D8F" stop-opacity="0"/>
</linearGradient>
<linearGradient id="paint99_linear" x1="6.5" y1="575.5" x2="36.5" y2="636" gradientUnits="userSpaceOnUse">
<stop offset="0.216135" stop-color="#594CAE"/>
<stop offset="0.914943" stop-color="#4E439B" stop-opacity="0"/>
</linearGradient>
<linearGradient id="paint100_linear" x1="11.5" y1="12.5" x2="66" y2="71" gradientUnits="userSpaceOnUse">
<stop stop-color="#51459E"/>
<stop offset="0.8125" stop-color="#483D8F" stop-opacity="0"/>
</linearGradient>
<linearGradient id="paint101_linear" x1="23.5" y1="5.5" x2="53.5" y2="66" gradientUnits="userSpaceOnUse">
<stop offset="0.216135" stop-color="#594CAE"/>
<stop offset="0.914943" stop-color="#4E439B" stop-opacity="0"/>
</linearGradient>
<linearGradient id="paint102_linear" x1="11.5" y1="12.5" x2="66" y2="71" gradientUnits="userSpaceOnUse">
<stop stop-color="#51459E"/>
<stop offset="0.8125" stop-color="#483D8F" stop-opacity="0"/>
</linearGradient>
<linearGradient id="paint103_linear" x1="23.5" y1="5.5" x2="53.5" y2="66" gradientUnits="userSpaceOnUse">
<stop offset="0.216135" stop-color="#594CAE"/>
<stop offset="0.914943" stop-color="#4E439B" stop-opacity="0"/>
</linearGradient>
<linearGradient id="paint104_linear" x1="11.5" y1="12.5" x2="66" y2="71" gradientUnits="userSpaceOnUse">
<stop stop-color="#51459E"/>
<stop offset="0.8125" stop-color="#483D8F" stop-opacity="0"/>
</linearGradient>
<linearGradient id="paint105_linear" x1="23.5" y1="5.5" x2="53.5" y2="66" gradientUnits="userSpaceOnUse">
<stop offset="0.216135" stop-color="#594CAE"/>
<stop offset="0.914943" stop-color="#4E439B" stop-opacity="0"/>
</linearGradient>
<linearGradient id="paint106_linear" x1="11.5" y1="12.5" x2="66" y2="71" gradientUnits="userSpaceOnUse">
<stop stop-color="#51459E"/>
<stop offset="0.8125" stop-color="#483D8F" stop-opacity="0"/>
</linearGradient>
<linearGradient id="paint107_linear" x1="23.5" y1="5.5" x2="53.5" y2="66" gradientUnits="userSpaceOnUse">
<stop offset="0.216135" stop-color="#594CAE"/>
<stop offset="0.914943" stop-color="#4E439B" stop-opacity="0"/>
</linearGradient>
<linearGradient id="paint108_linear" x1="210.5" y1="685" x2="375.309" y2="-91.3079" gradientUnits="userSpaceOnUse">
<stop offset="0.249321" stop-color="#483D8F"/>
<stop offset="1" stop-color="#483D8F" stop-opacity="0"/>
</linearGradient>
</defs>
</svg>
