<svg width="16" height="16" viewBox="0 0 16 16" fill="none" xmlns="http://www.w3.org/2000/svg">
<g clip-path="url(#clip0)">
<path d="M15.9996 15.9849C15.9113 15.9849 15.823 15.996 15.7347 15.996C14.7301 15.996 13.7255 15.996 12.7191 15.996C12.5955 15.996 12.5637 15.9609 12.5637 15.8316C12.5637 13.897 12.5637 11.9631 12.5637 10.0297C12.5609 9.71378 12.5188 9.39958 12.4383 9.09505C12.373 8.8087 12.2397 8.54424 12.0506 8.32615C11.8616 8.10806 11.623 7.94341 11.357 7.84744C11.091 7.75148 10.8061 7.72731 10.5288 7.77717C10.2515 7.82703 9.99063 7.94932 9.77049 8.13269C9.51705 8.31723 9.31099 8.56429 9.17056 8.852C9.03013 9.13971 8.95965 9.4592 8.96537 9.78219C8.96537 11.7771 8.96537 13.7714 8.96537 15.7651C8.96537 16.0237 9.00068 15.9923 8.75173 15.9923C7.7312 15.9923 6.71068 15.9923 5.69015 15.9923C5.55597 15.9923 5.53125 15.9535 5.53125 15.8205C5.53125 12.3331 5.53125 8.84569 5.53125 5.35827C5.53125 5.22343 5.56303 5.18834 5.69192 5.19018C6.72834 5.19018 7.76475 5.19018 8.80117 5.19018C8.94948 5.19018 8.97773 5.24006 8.97773 5.3749C8.9689 5.80528 8.97773 6.23567 8.97773 6.6679C9.04129 6.65682 9.05189 6.6014 9.07484 6.56631C9.83052 5.39891 10.8987 4.90387 12.2265 4.94636C13.077 4.94772 13.9017 5.25268 14.5641 5.81082C15.281 6.43331 15.657 7.26084 15.8583 8.1918C15.9219 8.48359 15.9644 8.77997 15.9855 9.07843C15.9855 9.10429 15.9855 9.13385 16.0155 9.14493L15.9996 15.9849Z" fill="#016699"/>
<path d="M0 1.53421C0.0529684 1.50835 0.0406106 1.44924 0.0512043 1.40675C0.139083 1.04571 0.329268 0.720898 0.596789 0.474977C0.864311 0.229056 1.19666 0.0735183 1.55021 0.0287819C2.02585 -0.0574482 2.5154 0.0183024 2.94681 0.244895C3.26481 0.426652 3.52124 0.706934 3.68088 1.04726C3.84053 1.38758 3.89557 1.77126 3.83845 2.14561C3.78973 2.5096 3.63573 2.84927 3.39713 3.11903C3.15853 3.3888 2.84674 3.57573 2.50364 3.65473C1.86449 3.8062 1.25006 3.75633 0.699185 3.34257C0.377831 3.10317 0.150167 2.75017 0.0582656 2.3488C0.0441407 2.29523 0.0582653 2.22873 0 2.18994V1.53421Z" fill="#016699"/>
<path d="M0.201172 10.6083C0.201172 8.86462 0.201172 7.12153 0.201172 5.37905C0.201172 5.23682 0.229422 5.19434 0.377733 5.19434C1.41474 5.20172 2.45116 5.20172 3.48698 5.19434C3.60881 5.19434 3.64236 5.22389 3.64236 5.35504C3.64236 8.84615 3.64236 12.3385 3.64236 15.8321C3.64236 15.954 3.6194 15.9965 3.49051 15.9965C2.4488 15.9965 1.40885 15.9965 0.36714 15.9965C0.227657 15.9965 0.208236 15.9466 0.208236 15.8117C0.204705 14.0804 0.202349 12.3459 0.201172 10.6083Z" fill="#016699"/>
</g>
<defs>
<clipPath id="clip0">
<rect width="16" height="16" fill="white"/>
</clipPath>
</defs>
</svg>
