<svg width="21" height="24" viewBox="0 0 21 24" fill="none" xmlns="http://www.w3.org/2000/svg">
<path fill-rule="evenodd" clip-rule="evenodd" d="M15 6H13.5H7.5H6V4.5C6 2.84315 7.34315 1.5 9 1.5H12C13.6569 1.5 15 2.84315 15 4.5V6ZM16.5 6C16.5 6.2038 16.4594 6.39812 16.3857 6.57527C19.0955 7.7058 21 10.3805 21 13.5V16.5C21 20.6421 17.6421 24 13.5 24H7.5C3.35786 24 0 20.6421 0 16.5V13.5C0 10.3805 1.90453 7.7058 4.61427 6.57527C4.54065 6.39812 4.5 6.2038 4.5 6V4.5C4.5 2.01472 6.51472 0 9 0H12C14.4853 0 16.5 2.01472 16.5 4.5V6ZM7.5 7.5H13.5C16.8137 7.5 19.5 10.1863 19.5 13.5V16.5C19.5 19.8137 16.8137 22.5 13.5 22.5H7.5C4.18629 22.5 1.5 19.8137 1.5 16.5V13.5C1.5 10.1863 4.18629 7.5 7.5 7.5ZM10.6071 18C10.9622 18 11.25 17.7122 11.25 17.3571V14.25C11.25 13.8358 10.9142 13.5 10.5 13.5C10.0858 13.5 9.75 13.8358 9.75 14.25V17.3571C9.75 17.7122 10.0378 18 10.3929 18H10.6071Z" fill="#BABCBE"/>
</svg>
