<svg width="217" height="201" viewBox="0 0 217 201" fill="none" xmlns="http://www.w3.org/2000/svg">
<g clip-path="url(#clip0)">
<path d="M68.2597 184.765C72.5737 178.677 87.4396 194.444 88.9933 200.671H85.6689C81.8381 199.118 64.7646 189.695 68.2597 184.765Z" fill="#6A5EBA"/>
<path d="M87.2056 200.818C78.8149 191.815 68.2311 185.037 68.127 184.967L68.3931 184.552C68.4973 184.621 79.1274 191.434 87.5702 200.483L87.2056 200.818Z" fill="#483D90"/>
<path d="M80.9299 194.655C80.684 194.632 74.8857 194.049 72.9414 193.414L73.0948 192.943C74.987 193.561 80.9212 194.159 80.9791 194.164L80.9299 194.655Z" fill="#483D90"/>
<path d="M74.9948 189.205H74.5C74.5318 187.3 73.4989 184.217 73.4902 184.188L73.959 184.029C74.0024 184.151 75.0295 187.216 74.9948 189.205Z" fill="#483D90"/>
<path d="M82.1329 190.492C85.547 194.06 88.3651 198.148 88.993 200.671C82.7897 196.626 81.6526 191.156 82.1329 190.492Z" fill="#483D90"/>
<path d="M83.6945 180.525C88.6623 178.074 92.5452 192.785 90.3896 200.671H87.9708C86.0063 198.702 79.6757 182.508 83.6945 180.525Z" fill="#6A5EBA"/>
<path d="M88.7506 200.714C87.9984 196.35 85.0992 182.268 85.0703 182.124L85.5535 182.026C85.5824 182.167 88.4844 196.257 89.2396 200.631L88.7506 200.714Z" fill="#483D90"/>
<path d="M89.591 193.111L88.0039 195.699L88.4259 195.957L90.013 193.369L89.591 193.111Z" fill="#483D90"/>
<path d="M83.2433 187.745L83.0039 188.177L86.7387 190.238L86.9781 189.806L83.2433 187.745Z" fill="#483D90"/>
<path d="M66.7568 191.789C68.9442 190.709 70.657 197.195 69.708 200.671H68.6404C67.7752 199.805 64.9861 192.663 66.7568 191.789Z" fill="#6A5EBA"/>
<path d="M68.8497 200.714C68.517 198.792 67.2381 192.585 67.2266 192.525L67.7098 192.424C67.7098 192.487 69.0031 198.699 69.3358 200.631L68.8497 200.714Z" fill="#483D90"/>
<path d="M69.2324 197.285L68.5332 198.425L68.9552 198.682L69.6544 197.542L69.2324 197.285Z" fill="#483D90"/>
<path d="M66.6241 194.851L66.3848 195.283L68.0307 196.19L68.2701 195.758L66.6241 194.851Z" fill="#483D90"/>
<path d="M179.418 177.65C186.759 168.822 205.519 191.687 206.668 200.72H201.841C196.567 198.465 173.487 184.797 179.418 177.65Z" fill="#6A5EBA"/>
<path d="M204.156 200.853C193.572 187.788 179.43 177.95 179.273 177.852L179.563 177.448C179.705 177.546 193.905 187.421 204.535 200.541L204.156 200.853Z" fill="#483D90"/>
<path d="M196.096 191.884C195.743 191.846 187.445 191 184.748 190.085L184.907 189.618C187.552 190.515 196.061 191.384 196.145 191.393L196.096 191.884Z" fill="#8F8434"/>
<path d="M188.286 184.119L187.797 184.05C188.188 181.267 187.219 176.778 187.219 176.735L187.702 176.631C187.745 176.818 188.689 181.25 188.286 184.119Z" fill="#8F8434"/>
<path d="M198.523 185.955C202.843 191.128 206.202 197.06 206.668 200.72C198.387 194.851 197.707 186.919 198.523 185.955Z" fill="#483D8F"/>
<path d="M202.523 160.982C212.91 156.149 217.018 185.172 210.864 200.734H206.09C202.687 196.834 194.112 164.882 202.523 160.982Z" fill="#6A5EBA"/>
<path d="M207.861 200.731C207.43 192.117 205.109 164.33 205.086 164.05L205.578 164.007C205.601 164.296 207.924 192.086 208.353 200.708L207.861 200.731Z" fill="#483D90"/>
<path d="M211.315 185.829L207.562 190.934L207.961 191.226L211.714 186.121L211.315 185.829Z" fill="#483D90"/>
<path d="M199.727 175.434L199.475 175.859L206.343 179.923L206.596 179.498L199.727 175.434Z" fill="#483D90"/>
<path d="M174.718 183.209C179.298 181.079 181.106 193.873 178.395 200.735H176.292C174.79 199.008 171.009 184.921 174.718 183.209Z" fill="#BFB464"/>
<path d="M176.93 200.731C176.742 196.935 175.718 184.69 175.709 184.566L176.201 184.525C176.201 184.65 177.237 196.903 177.425 200.708L176.93 200.731Z" fill="#8F8434"/>
<path d="M178.481 194.103L176.824 196.353L177.223 196.645L178.879 194.395L178.481 194.103Z" fill="#8F8434"/>
<path d="M173.557 189.464L173.305 189.889L176.333 191.681L176.586 191.256L173.557 189.464Z" fill="#8F8434"/>
<path d="M50.6345 174.731C39.7961 164.821 25.4625 190.489 26.8426 200.628H32.256C37.519 198.096 59.41 182.756 50.6345 174.731Z" fill="#6A5EBA"/>
<path d="M29.6645 200.72L29.2305 200.483C37.3058 185.761 50.3518 174.653 50.4733 174.543L50.7916 174.922C50.6614 175.031 37.6935 186.067 29.6645 200.72Z" fill="#483D90"/>
<path d="M36.0345 190.677L35.9824 190.189C36.075 190.189 45.3713 189.205 48.0708 188.197L48.2444 188.659C45.4841 189.69 36.4193 190.639 36.0345 190.677Z" fill="#483D90"/>
<path d="M42.6231 182.054C41.3298 178.844 41.0838 173.876 41.0723 173.666L41.567 173.643C41.567 173.695 41.8187 178.738 43.0802 181.87L42.6231 182.054Z" fill="#483D90"/>
<path d="M31.6368 184.055C28.3124 189.863 26.2899 196.52 26.8425 200.628C34.4115 194.043 32.8346 185.138 31.6368 184.055Z" fill="#483D90"/>
<path d="M22.842 167.826C13.2216 163.837 16.1179 187.788 24.578 200.628H28.5158C30.4717 197.421 30.6279 171.057 22.842 167.826Z" fill="#6A5EBA"/>
<path d="M26.6008 200.679C25.0876 193.564 20.9848 170.626 20.9414 170.395L21.4304 170.309C21.4709 170.54 25.5736 193.468 27.084 200.576L26.6008 200.679Z" fill="#483D90"/>
<path d="M21.0107 188.327L20.6602 188.676L24.8646 192.887L25.2151 192.538L21.0107 188.327Z" fill="#483D90"/>
<path d="M28.2698 179.728L23.4805 183.08L23.7646 183.484L28.554 180.132L28.2698 179.728Z" fill="#483D90"/>
<path d="M119.193 188.625C115.915 184.006 104.611 195.986 103.428 200.72H105.957C108.867 199.536 121.85 192.372 119.193 188.625Z" fill="#6A5EBA"/>
<path d="M104.83 200.876L104.469 200.538C110.892 193.653 118.979 188.469 119.06 188.414L119.326 188.83C119.248 188.885 111.21 194.037 104.83 200.876Z" fill="#483D90"/>
<path d="M109.565 196.2L109.516 195.709C109.562 195.709 114.067 195.253 115.499 194.785L115.652 195.253C114.174 195.741 109.753 196.2 109.565 196.2Z" fill="#483D90"/>
<path d="M114.014 192.002C113.986 190.478 114.772 188.137 114.804 188.039L115.273 188.197C115.273 188.22 114.483 190.556 114.509 191.993L114.014 192.002Z" fill="#483D90"/>
<path d="M108.644 192.978C106.04 195.692 103.907 198.8 103.436 200.72C108.146 197.643 109.011 193.483 108.644 192.978Z" fill="#483D90"/>
<path d="M108.152 179.881C103.017 177.346 99.0008 192.562 101.229 200.72H103.731C105.765 198.682 112.313 181.93 108.152 179.881Z" fill="#6A5EBA"/>
<path d="M102.92 200.76L102.434 200.677C103.212 196.156 106.212 181.581 106.244 181.434L106.727 181.535C106.698 181.682 103.698 196.249 102.92 200.76Z" fill="#483D90"/>
<path d="M102.039 192.884L101.617 193.142L103.26 195.818L103.681 195.56L102.039 192.884Z" fill="#483D90"/>
<path d="M108.632 187.337L104.77 189.466L105.009 189.898L108.871 187.769L108.632 187.337Z" fill="#483D90"/>
<path d="M121.302 191.532C119.039 190.414 117.268 197.123 118.249 200.72H119.352C120.249 199.822 123.142 192.447 121.302 191.532Z" fill="#6A5EBA"/>
<path d="M119.132 200.761L118.643 200.677C118.987 198.682 120.312 192.256 120.324 192.19L120.81 192.291C120.795 192.354 119.473 198.774 119.132 200.761Z" fill="#483D90"/>
<path d="M118.734 197.186L118.312 197.444L119.036 198.623L119.458 198.365L118.734 197.186Z" fill="#483D90"/>
<path d="M121.45 194.696L119.748 195.634L119.987 196.066L121.689 195.128L121.45 194.696Z" fill="#483D90"/>
<path d="M69.7434 46.9461C70.0742 46.9461 70.3424 46.6785 70.3424 46.3485C70.3424 46.0185 70.0742 45.751 69.7434 45.751C69.4127 45.751 69.1445 46.0185 69.1445 46.3485C69.1445 46.6785 69.4127 46.9461 69.7434 46.9461Z" fill="#3088CA"/>
<path d="M43.4316 72.6491V124.263C43.4316 125.615 43.6988 126.954 44.2177 128.202C44.7367 129.451 45.4974 130.586 46.4562 131.541C47.415 132.496 48.5531 133.253 49.8055 133.77C51.058 134.286 52.4 134.55 53.7551 134.548L116.199 134.453C118.93 134.448 121.547 133.363 123.476 131.435C125.406 129.508 126.49 126.895 126.491 124.171V72.6491C126.49 69.9218 125.403 67.3064 123.47 65.3782C121.537 63.4499 118.915 62.3667 116.182 62.3667H53.7406C51.007 62.3667 48.3853 63.4499 46.4521 65.3782C44.5189 67.3064 43.4324 69.9218 43.4316 72.6491V72.6491Z" fill="white" fill-opacity="0.22"/>
<path d="M108.853 98.4532C108.853 103.393 107.385 108.222 104.635 112.329C101.884 116.436 97.9742 119.637 93.4 121.528C88.8258 123.418 83.7925 123.913 78.9365 122.949C74.0806 121.985 69.6201 119.606 66.1192 116.114C62.6182 112.621 60.234 108.17 59.2681 103.326C58.3022 98.4809 58.798 93.4591 60.6927 88.8954C62.5874 84.3317 65.7959 80.431 69.9126 77.6867C74.0293 74.9423 78.8692 73.4775 83.8202 73.4775C87.1077 73.4772 90.3631 74.1229 93.4004 75.3779C96.4378 76.6329 99.1976 78.4726 101.522 80.7919C103.847 83.1112 105.691 85.8646 106.949 88.895C108.206 91.9253 108.854 95.1732 108.853 98.4532V98.4532Z" fill="white"/>
<path d="M49.3635 139.159C46.5646 139.157 43.8808 138.047 41.9017 136.073C39.9226 134.098 38.8101 131.42 38.8086 128.628V77.0111C38.8124 74.2194 39.9257 71.5431 41.9043 69.569C43.8829 67.595 46.5653 66.4843 49.3635 66.4805H111.799C114.597 66.4835 117.28 67.594 119.259 69.5682C121.238 71.5424 122.351 74.2191 122.354 77.0111V128.536C122.349 131.324 121.237 133.998 119.262 135.971C117.287 137.944 114.608 139.056 111.813 139.063L49.3808 139.159H49.3635ZM49.3635 66.9741C46.6963 66.9772 44.1393 68.0356 42.2533 69.9172C40.3673 71.7989 39.3064 74.3501 39.3034 77.0111V128.628C39.3049 131.289 40.3653 133.842 42.2516 135.723C44.1379 137.605 46.6958 138.663 49.3635 138.665H49.3808L111.813 138.57C114.477 138.563 117.03 137.503 118.913 135.622C120.796 133.742 121.855 131.194 121.859 128.536V77.0111C121.856 74.3501 120.795 71.7989 118.909 69.9172C117.023 68.0356 114.466 66.9772 111.799 66.9741H49.3635Z" fill="white" fill-opacity="0.3"/>
<path d="M73.8125 113.556L88.6408 104.062C88.8442 103.932 89.0093 103.75 89.1194 103.536C89.2295 103.321 89.2807 103.081 89.2678 102.84C89.2549 102.599 89.1783 102.366 89.0458 102.165C88.9133 101.963 88.7296 101.8 88.5135 101.692L73.5347 94.2157C73.3252 94.1108 73.0921 94.0614 72.8579 94.0723C72.6237 94.0831 72.3963 94.1538 72.1973 94.2775C71.9984 94.4012 71.8346 94.5739 71.7218 94.7789C71.6089 94.9839 71.5507 95.2144 71.5528 95.4483L71.7032 112.422C71.7057 112.666 71.7737 112.905 71.9001 113.114C72.0266 113.323 72.2069 113.494 72.4223 113.61C72.6377 113.726 72.8802 113.782 73.1247 113.773C73.3692 113.763 73.6067 113.689 73.8125 113.556Z" fill="#E0E0E0"/>
<path d="M73.9284 108.868L73.7461 88.2691C73.7441 88.0352 73.8023 87.8047 73.9151 87.5997C74.028 87.3947 74.1917 87.222 74.3907 87.0983C74.5896 86.9746 74.8171 86.9039 75.0513 86.8931C75.2855 86.8822 75.5185 86.9316 75.7281 87.0365L93.9214 96.1093C94.1374 96.2176 94.321 96.381 94.4534 96.5829C94.5858 96.7847 94.6623 97.018 94.6753 97.2589C94.6882 97.4998 94.637 97.7398 94.527 97.9547C94.4169 98.1695 94.2519 98.3515 94.0487 98.4822L76.0521 110.006C75.846 110.142 75.6067 110.22 75.3598 110.231C75.1129 110.242 74.8675 110.187 74.6497 110.07C74.4319 109.954 74.2499 109.78 74.1229 109.569C73.9959 109.357 73.9287 109.115 73.9284 108.868V108.868Z" fill="#FF8376"/>
<path d="M145.052 191.335C148.457 189.863 147.182 188.16 147.899 185.305H147.914C150.318 184.999 156.032 184.941 160.994 185.057C160.288 189.098 164.015 196.707 161.929 198.763C159.843 200.818 158.555 201.032 153.538 200.682C148.521 200.333 141.965 200.971 136.997 200.954C132.029 200.936 130.461 197.031 130.461 197.031C130.487 193.2 141.039 193.067 145.052 191.335Z" fill="#7A7A7A"/>
<path d="M131.029 197.175C134.547 199.655 138.931 198.503 142.857 198.258C147.622 197.969 152.943 197.747 157.463 198.463C159.086 198.72 160.703 198.408 162.399 197.955C162.31 198.259 162.148 198.538 161.927 198.766C159.835 200.83 158.553 201.035 153.536 200.685C148.519 200.336 141.963 200.974 136.995 200.957C132.331 200.931 130.659 197.493 130.477 197.074C130.624 197.201 130.873 197.066 131.029 197.175Z" fill="#232323"/>
<path d="M137.426 198.93C132.826 198.93 130.584 197.16 130.482 197.074L130.795 196.69C130.824 196.713 133.772 199.025 139.764 198.289C146.292 197.487 152.642 197.49 157.654 198.289L157.573 198.777C152.611 197.98 146.306 197.98 139.822 198.777C139.027 198.876 138.227 198.927 137.426 198.93Z" fill="#000033"/>
<path opacity="0.1" d="M50.8204 75.6313H94.0063C95.0114 75.6313 95.8262 74.8184 95.8262 73.8156C95.8262 72.8128 95.0114 71.9999 94.0063 71.9999H50.8204C49.8153 71.9999 49.0005 72.8128 49.0005 73.8156C49.0005 74.8184 49.8153 75.6313 50.8204 75.6313Z" fill="#2B2F32"/>
<path opacity="0.1" d="M50.8212 80.9922H71.0688C72.0739 80.9922 72.8887 80.1793 72.8887 79.1765C72.8887 78.1737 72.0739 77.3607 71.0688 77.3607H50.8212C49.8161 77.3607 49.0013 78.1737 49.0013 79.1765C49.0013 80.1793 49.8161 80.9922 50.8212 80.9922Z" fill="#2B2F32"/>
<path d="M137.57 195.567C137.411 193.596 136.172 193.316 136.123 193.304L136.219 192.819C136.285 192.819 137.876 193.169 138.064 195.527L137.57 195.567Z" fill="#000033"/>
<path d="M140.078 195.174C139.918 193.186 138.631 192.914 138.631 192.914L138.723 192.429C138.793 192.429 140.381 192.776 140.572 195.134L140.078 195.174Z" fill="#000033"/>
<path d="M142.589 194.785C142.43 192.813 141.192 192.533 141.143 192.522L141.238 192.037C141.305 192.051 142.896 192.386 143.084 194.744L142.589 194.785Z" fill="#000033"/>
<path d="M145.025 194.225C144.866 192.233 143.578 191.965 143.578 191.962L143.674 191.477C143.74 191.477 145.332 191.826 145.52 194.185L145.025 194.225Z" fill="#000033"/>
<path d="M153.867 154.034H144.29L143.176 141.635H155.166L153.867 154.034Z" fill="#F1D8CB"/>
<path d="M170.996 191.335C174.402 189.863 173.123 188.16 173.84 185.305H173.858C176.259 184.999 181.977 184.941 186.936 185.057C186.23 189.098 189.959 196.707 187.873 198.763C185.787 200.818 184.499 201.032 179.482 200.682C174.465 200.333 167.909 200.971 162.941 200.954C157.973 200.936 156.402 197.031 156.402 197.031C156.417 193.2 166.983 193.067 170.996 191.335Z" fill="#7A7A7A"/>
<path d="M156.976 197.175C160.494 199.655 164.877 198.503 168.801 198.258C173.569 197.969 178.89 197.747 183.409 198.463C185.032 198.72 186.647 198.408 188.345 197.955C187.564 201.006 184.5 201.035 179.486 200.685C174.471 200.336 167.912 200.974 162.944 200.957C158.28 200.931 156.608 197.493 156.426 197.074C156.57 197.201 156.819 197.066 156.976 197.175Z" fill="#232323"/>
<path d="M163.36 198.93C158.763 198.93 156.52 197.16 156.416 197.074L156.726 196.69C156.755 196.713 159.706 199.025 165.695 198.289C172.222 197.487 178.576 197.49 183.584 198.289L183.506 198.777C178.541 197.98 172.24 197.98 165.756 198.777C164.961 198.876 164.161 198.927 163.36 198.93V198.93Z" fill="#000033"/>
<path d="M163.511 195.567C163.355 193.596 162.117 193.316 162.064 193.304L162.163 192.819C162.229 192.819 163.818 193.169 164.009 195.527L163.511 195.567Z" fill="#000033"/>
<path d="M166.023 195.174C165.864 193.186 164.576 192.914 164.576 192.914L164.669 192.429C164.735 192.429 166.327 192.776 166.515 195.134L166.023 195.174Z" fill="#000033"/>
<path d="M168.531 194.785C168.374 192.813 167.136 192.533 167.084 192.522L167.182 192.037C167.249 192.051 168.837 192.386 169.028 194.744L168.531 194.785Z" fill="#000033"/>
<path d="M170.97 194.225C170.811 192.254 169.573 191.974 169.523 191.962L169.619 191.477C169.685 191.477 171.274 191.826 171.465 194.185L170.97 194.225Z" fill="#000033"/>
<path d="M132.57 63.0396C132.57 63.0396 133.704 67.13 135.417 67.081C137.13 67.0319 135.29 64.7543 135.29 64.7543C135.29 64.7543 136.653 66.2351 137.107 65.7848C137.561 65.3345 137.396 63.9691 136.595 63.0973C135.793 62.2255 134.74 59.8758 134.24 60.2106C133.739 60.5455 132.321 60.889 132.57 63.0396Z" fill="#C9AD9F"/>
<path d="M161.211 70.438C160.804 71.6009 160.32 72.7358 159.764 73.8356C153.755 70.2186 144.933 61.2497 141.374 59.3878C141.374 59.3878 141.29 54.593 142.508 54.645C145.274 54.7633 161.926 61.7549 162.449 62.0175C162.918 63.5879 162.493 66.8758 161.211 70.438Z" fill="#F1D8CC"/>
<path d="M142.717 54.691C142.717 54.691 140.882 53.8827 136.586 55.7763C132.289 57.67 130.764 61.3448 130.955 65.0917C131.146 68.8386 132.13 67.2798 132.402 66.3878C132.674 65.4958 133.059 60.6751 134.332 60.5538C134.332 60.5538 135.399 60.9666 134.725 62.4215C134.051 63.8764 133.279 65.0657 133.681 66.1194C134.083 67.173 134.618 66.1973 135.087 65.6575C135.556 65.1177 136.487 63.4694 137.176 62.892C137.864 62.3147 140.359 61.3938 141.015 59.7455C141.54 59.7506 142.054 59.8961 142.503 60.167C143.133 60.6 142.717 54.691 142.717 54.691Z" fill="#F1D8CC"/>
<path d="M153.522 147.233C154.251 145.414 141.327 142.689 140.957 142.464C139.863 126.46 140.016 109.33 139.984 99.559C139.953 85.2323 166.641 89.0803 169.146 94.8768C172.167 101.906 170.578 132.023 168.906 146.701C166.791 165.263 169.887 191.301 169.887 191.301C169.887 191.301 161.106 194.71 144.539 191.09C144.539 191.09 141.822 152.154 141.645 150.388C144.984 151.413 152.877 148.872 153.522 147.233Z" fill="#32277B"/>
<path d="M156.286 109.934C155.562 112.67 159.795 116.683 160.825 118.966C162.408 122.476 161.598 140.507 161.983 144.08C162.391 147.948 167.769 159.042 167.914 159.241C168.562 153.935 168.093 151.08 168.906 143.942C169.934 134.929 171.551 120.617 171.606 109.281C170.391 109.792 159.613 110.976 156.286 109.934Z" fill="#1B1258"/>
<path d="M184.114 154.034H169.199L167.877 141.635H182.077L184.114 154.034Z" fill="#F1D8CB"/>
<path d="M190.974 93.5055C194.735 100.535 195.239 129.274 195.109 143.95C194.941 162.512 195.352 194.961 195.352 194.961C195.352 194.961 178.281 196.404 170.11 191.353C170.11 191.353 169.268 160.485 168.282 155.592C167.992 154.189 167.732 152.766 167.474 151.326C170.252 151.822 181.976 151.291 181.976 148.15C181.976 145.01 166.404 143.61 166.213 143.532C163.843 127.366 162.724 110.479 161.644 100.486C160.096 86.1531 187.87 87.7004 190.974 93.5055Z" fill="#32277B"/>
<path d="M164.123 33.07C167.477 33.3414 173.613 33.7339 177.433 39.4207C181.252 45.1075 194.937 102.509 194.937 102.509C194.937 102.509 166.137 112.076 138.338 101.932C138.338 101.932 145.207 53.1036 149.104 43.7796C153.001 34.4556 159.56 32.7005 164.123 33.07Z" fill="#FF8369"/>
<path d="M152.689 28.5266L156.483 37.5879C156.483 37.5879 162.776 38.6588 165.545 33.3473L162.385 25.2271L152.689 28.5266Z" fill="#F1D8CC"/>
<path d="M153.693 30.9422L154.932 33.878C161.297 32.9311 160.365 27.6023 160.342 27.6167C153.957 30.7748 153.693 30.9422 153.693 30.9422Z" fill="#000033"/>
<path d="M152.301 32.689C155.177 32.8968 160.735 29.4011 162.107 26.8665C162.596 25.963 162.63 23.466 162.347 22.2479C161.453 18.3912 160.77 14.9041 157.923 13.6398C156.722 13.1115 153.499 12.589 152.345 12.7333C148.543 13.2212 147.964 16.8382 147.64 20.6486C147.275 24.9094 147.223 32.3253 152.301 32.689Z" fill="#F1D8CC"/>
<path d="M148.384 16.2002C149.871 12.5312 150.137 16.3618 152.944 15.1841C155.987 13.9053 159.13 14.9907 159.13 17.4184C159.13 22.089 160.744 21.0267 160.744 21.0267L163.038 27.2014C163.038 27.2014 166.325 23.0272 166.325 16.0039C166.325 11.0042 160.764 10.6087 156.716 8.68903C151.934 6.41721 146.089 9.97939 148.384 16.2002Z" fill="#000033"/>
<path d="M150.92 25.7894C150.651 25.6941 149.297 25.1803 149.135 24.5135C149.11 24.4112 149.111 24.3042 149.14 24.2029C149.169 24.1016 149.224 24.0096 149.3 23.9361C150.437 22.715 150.359 20.9369 150.33 20.5847C150.085 20.2864 149.758 20.0662 149.39 19.9513C149.021 19.8364 148.627 19.8318 148.255 19.9381L148.137 19.4618C148.615 19.3318 149.122 19.3473 149.591 19.5062C150.061 19.6651 150.472 19.9602 150.773 20.3537L150.807 20.4028V20.4606C150.807 20.5558 151.076 22.7468 149.65 24.271C149.589 24.3374 149.598 24.372 149.604 24.3951C149.676 24.6838 150.527 25.1254 151.076 25.3246L150.92 25.7894Z" fill="#000033"/>
<path d="M160.198 22.4209C160.156 22.9517 160.273 23.4829 160.533 23.9474C160.794 24.4119 161.187 24.7887 161.663 25.0302C162.138 25.2717 162.675 25.367 163.205 25.304C163.735 25.241 164.234 25.0226 164.64 24.6764C165.045 24.3301 165.338 23.8717 165.482 23.3591C165.627 22.8464 165.615 22.3027 165.449 21.7966C165.283 21.2906 164.971 20.845 164.551 20.5162C164.131 20.1875 163.623 19.9904 163.091 19.9499C162.379 19.8949 161.674 20.1244 161.132 20.5877C160.589 21.0511 160.253 21.7105 160.198 22.4209V22.4209Z" fill="#F1D8CB"/>
<path d="M163.153 24.629H163.112C163.015 24.6241 162.92 24.5989 162.832 24.5552C162.745 24.5114 162.668 24.4501 162.606 24.375C162.502 24.2548 162.444 24.1011 162.444 23.942C162.444 23.7829 162.502 23.6292 162.606 23.509C162.681 23.4175 162.729 23.3068 162.745 23.1894C162.76 23.072 162.742 22.9527 162.693 22.845C162.578 22.6111 162.411 22.4066 162.204 22.2475C161.915 21.9791 161.524 21.6124 162.074 21.0091C162.84 20.1662 164.426 21.2487 164.495 21.2978L164.206 21.7048C163.87 21.471 162.826 20.911 162.432 21.3411C162.21 21.5865 162.236 21.6095 162.537 21.8895C162.786 22.1014 162.984 22.3669 163.115 22.6661C163.194 22.8436 163.224 23.0384 163.204 23.2313C163.183 23.4242 163.113 23.6085 163 23.7659C162.881 23.9651 162.887 23.9708 162.959 24.0546C162.978 24.0786 163.001 24.0983 163.028 24.1122C163.055 24.1262 163.085 24.1341 163.115 24.1354C163.345 24.1025 163.558 23.9949 163.72 23.8294L164.061 24.1874C163.815 24.4295 163.496 24.5846 163.153 24.629V24.629Z" fill="#000033"/>
<path d="M149.861 28.7456V28.252C149.884 28.252 152.037 28.1914 153.762 27.2705L153.993 27.7064C152.153 28.6821 149.954 28.7427 149.861 28.7456Z" fill="#000033"/>
<path d="M155.241 20.7814C153.143 19.4824 152.449 20.3426 152.44 20.3513L152.041 20.0626C152.079 20.0107 152.978 18.8011 155.513 20.3513L155.241 20.7814Z" fill="#000033"/>
<path d="M154.646 21.7513C154.636 21.8893 154.585 22.0212 154.5 22.1302C154.414 22.2392 154.299 22.3205 154.167 22.3637C154.035 22.4069 153.893 22.4101 153.76 22.3729C153.626 22.3357 153.507 22.2597 153.417 22.1547C153.326 22.0496 153.269 21.9202 153.253 21.7828C153.237 21.6454 153.261 21.5063 153.324 21.383C153.387 21.2597 153.485 21.1578 153.607 21.0903C153.728 21.0228 153.866 20.9926 154.004 21.0037C154.188 21.0185 154.359 21.1053 154.48 21.2454C154.6 21.3855 154.66 21.5674 154.646 21.7513V21.7513Z" fill="#000033"/>
<path d="M150.029 21.3875C150.018 21.5253 149.967 21.6569 149.881 21.7655C149.795 21.8741 149.679 21.9549 149.548 21.9976C149.416 22.0404 149.274 22.0432 149.141 22.0057C149.008 21.9682 148.889 21.8921 148.799 21.787C148.709 21.6818 148.652 21.5525 148.636 21.4152C148.619 21.2779 148.644 21.1389 148.707 21.0158C148.77 20.8927 148.869 20.791 148.989 20.7235C149.11 20.6561 149.249 20.626 149.387 20.637C149.571 20.6525 149.742 20.74 149.863 20.8805C149.983 21.021 150.043 21.2032 150.029 21.3875Z" fill="#000033"/>
<path d="M120.34 74.116C120.339 74.1436 120.345 74.1709 120.355 74.1965C120.365 74.222 120.38 74.2453 120.4 74.2649C120.419 74.2845 120.442 74.3001 120.468 74.3107C120.493 74.3213 120.521 74.3268 120.548 74.3268H156.946C157.058 74.3268 157.166 74.2824 157.245 74.2033C157.324 74.1243 157.369 74.0171 157.369 73.9053V72.8921H120.334L120.34 74.116Z" fill="#000033"/>
<path d="M152.614 72.4646V72.8918H153.913V72.3145H152.756C152.736 72.314 152.717 72.3176 152.699 72.3251C152.681 72.3326 152.664 72.3438 152.651 72.358C152.638 72.3721 152.627 72.389 152.621 72.4073C152.615 72.4257 152.612 72.4452 152.614 72.4646Z" fill="#000033"/>
<path d="M151.104 72.4645V72.8918H152.406V72.3145H151.248C151.229 72.3144 151.209 72.3183 151.192 72.326C151.174 72.3336 151.157 72.3447 151.144 72.3587C151.13 72.3728 151.12 72.3894 151.113 72.4076C151.106 72.4257 151.103 72.4451 151.104 72.4645Z" fill="#000033"/>
<path d="M149.6 72.4646V72.8918H150.899V72.3145H149.742C149.722 72.314 149.703 72.3176 149.685 72.3251C149.667 72.3326 149.651 72.3438 149.637 72.358C149.624 72.3721 149.614 72.389 149.607 72.4073C149.601 72.4257 149.598 72.4452 149.6 72.4646Z" fill="#000033"/>
<path d="M143.319 72.4645V72.8918H144.618V72.3145H143.46C143.441 72.3144 143.422 72.3183 143.404 72.326C143.386 72.3336 143.37 72.3448 143.357 72.3589C143.344 72.373 143.333 72.3896 143.327 72.4078C143.32 72.4259 143.317 72.4453 143.319 72.4645V72.4645Z" fill="#000033"/>
<path d="M141.811 72.4645V72.8918H143.107V72.3145H141.95C141.931 72.3148 141.912 72.319 141.894 72.3268C141.877 72.3346 141.861 72.3459 141.848 72.3599C141.835 72.374 141.825 72.3905 141.819 72.4084C141.812 72.4264 141.81 72.4455 141.811 72.4645Z" fill="#000033"/>
<path d="M124.116 72.4645V72.8918H125.415V72.3145H124.257C124.238 72.3144 124.219 72.3183 124.201 72.326C124.183 72.3336 124.167 72.3448 124.154 72.3589C124.141 72.373 124.13 72.3896 124.124 72.4078C124.117 72.4259 124.114 72.4453 124.116 72.4645V72.4645Z" fill="#000033"/>
<path d="M122.608 72.4645V72.8918H123.907V72.3145H122.749C122.73 72.3144 122.711 72.3183 122.693 72.326C122.675 72.3336 122.659 72.3448 122.646 72.3589C122.633 72.373 122.622 72.3896 122.616 72.4078C122.609 72.4259 122.607 72.4453 122.608 72.4645Z" fill="#000033"/>
<path d="M144.869 72.4645V72.8918H149.337V72.3145H145.011C144.992 72.3144 144.973 72.3183 144.955 72.326C144.937 72.3336 144.921 72.3448 144.908 72.3589C144.894 72.373 144.884 72.3896 144.878 72.4078C144.871 72.4259 144.868 72.4453 144.869 72.4645V72.4645Z" fill="#000033"/>
<path d="M117.713 72.4645V72.8918H122.18V72.3145H117.855C117.836 72.3144 117.816 72.3183 117.799 72.326C117.781 72.3336 117.765 72.3448 117.751 72.3589C117.738 72.373 117.728 72.3896 117.721 72.4078C117.715 72.4259 117.712 72.4453 117.713 72.4645V72.4645Z" fill="#000033"/>
<path d="M125.764 72.4646V72.8918H141.275V72.3145H125.906C125.886 72.314 125.867 72.3176 125.849 72.3251C125.831 72.3326 125.815 72.3438 125.801 72.358C125.788 72.3721 125.778 72.389 125.771 72.4073C125.765 72.4257 125.763 72.4452 125.764 72.4646Z" fill="#000033"/>
<path d="M118.069 72.323H114.921C114.836 72.323 114.754 72.3568 114.694 72.4169C114.633 72.477 114.6 72.5584 114.6 72.6434V72.8917H118.225V72.4644C118.225 72.4446 118.221 72.4249 118.213 72.4068C118.205 72.3886 118.193 72.3723 118.178 72.359C118.164 72.3456 118.146 72.3355 118.127 72.3293C118.108 72.3231 118.088 72.321 118.069 72.323V72.323Z" fill="url(#paint0_linear)"/>
<path d="M113.717 72.3228H110.569C110.484 72.3228 110.402 72.3565 110.342 72.4166C110.282 72.4767 110.248 72.5582 110.248 72.6432V72.8915H113.859V72.4642C113.859 72.4267 113.844 72.3907 113.817 72.3642C113.791 72.3376 113.755 72.3228 113.717 72.3228Z" fill="url(#paint1_linear)"/>
<path d="M109.368 72.3228H106.218C106.132 72.3228 106.051 72.3565 105.991 72.4166C105.93 72.4767 105.896 72.5582 105.896 72.6432V72.8915H109.51V72.4642C109.51 72.4267 109.495 72.3907 109.469 72.3642C109.442 72.3376 109.406 72.3228 109.368 72.3228Z" fill="url(#paint2_linear)"/>
<path d="M105.017 72.3228H101.869C101.784 72.3228 101.702 72.3564 101.641 72.4164C101.58 72.4764 101.546 72.5579 101.545 72.6432V72.8915H105.159V72.4642C105.159 72.4267 105.144 72.3907 105.117 72.3642C105.091 72.3376 105.055 72.3228 105.017 72.3228Z" fill="url(#paint3_linear)"/>
<path d="M99.8924 72.323H98.2606C98.1754 72.323 98.0937 72.3568 98.0335 72.4169C97.9733 72.477 97.9395 72.5584 97.9395 72.6434V72.8917H100.049V72.4644C100.049 72.4446 100.045 72.4249 100.037 72.4068C100.029 72.3886 100.017 72.3723 100.002 72.359C99.9874 72.3456 99.9701 72.3355 99.9511 72.3293C99.9322 72.3231 99.9122 72.321 99.8924 72.323V72.323Z" fill="url(#paint4_linear)"/>
<path d="M97.3289 72.323H95.6797C95.595 72.3253 95.5147 72.3608 95.4562 72.4219C95.3976 72.483 95.3657 72.5647 95.3672 72.6492V72.8975H97.4794V72.4702C97.4802 72.4504 97.4769 72.4307 97.4696 72.4122C97.4623 72.3938 97.4512 72.3771 97.437 72.3632C97.4228 72.3493 97.4058 72.3386 97.3872 72.3317C97.3686 72.3247 97.3487 72.3218 97.3289 72.323V72.323Z" fill="url(#paint5_linear)"/>
<path d="M94.9118 72.3228H93.2655C93.18 72.3228 93.098 72.3564 93.0373 72.4164C92.9767 72.4764 92.9422 72.5579 92.9414 72.6432V72.8915H95.0535V72.4642C95.0535 72.4267 95.0386 72.3907 95.012 72.3642C94.9854 72.3376 94.9494 72.3228 94.9118 72.3228Z" fill="url(#paint6_linear)"/>
<path d="M123.35 45.7717C123.198 45.2012 122.864 44.6956 122.398 44.3311C121.933 43.9666 121.361 43.763 120.77 43.751L129.16 74.1622C129.559 74.0213 129.889 73.7336 130.083 73.3581C130.276 72.9825 130.319 72.5473 130.202 72.1415C129.889 70.8368 124.968 51.9665 123.35 45.7717Z" fill="#1B1258"/>
<path d="M120.488 43.7275H81.717C81.5904 43.7277 81.4655 43.7566 81.3518 43.8121C81.2381 43.8676 81.1386 43.9483 81.0608 44.0479C80.983 44.1475 80.9289 44.2635 80.9028 44.387C80.8766 44.5106 80.879 44.6385 80.9098 44.761L88.0476 72.8831H128.835L121.631 44.6138C121.565 44.3607 121.418 44.1364 121.211 43.976C121.004 43.8156 120.75 43.7282 120.488 43.7275V43.7275Z" fill="#32277B"/>
<path d="M85.8183 64.9822L80.7057 44.8303C80.6659 44.6704 80.6633 44.5035 80.6983 44.3425C80.7332 44.1815 80.8047 44.0306 80.9073 43.9015C81.0099 43.7724 81.1408 43.6685 81.2899 43.5978C81.4391 43.5271 81.6025 43.4915 81.7676 43.4938H113.684V43.9874H81.7676C81.6774 43.9844 81.5878 44.0025 81.5059 44.0402C81.424 44.0779 81.352 44.1342 81.2958 44.2046C81.2396 44.275 81.2006 44.3575 81.1821 44.4456C81.1635 44.5337 81.1659 44.6249 81.1889 44.7119L86.3014 64.8552L85.8183 64.9822Z" fill="#1B1258"/>
<path d="M87.9766 74.116C87.9766 74.1719 87.9988 74.2255 88.0384 74.265C88.078 74.3046 88.1318 74.3268 88.1878 74.3268H128.188C128.3 74.3268 128.408 74.2824 128.487 74.2033C128.566 74.1243 128.611 74.0171 128.611 73.9053V72.8921H87.9766V74.116Z" fill="#1B1258"/>
<path d="M121.49 72.6465H88.2344V73.1401H121.49V72.6465Z" fill="#1B1258"/>
<path d="M157.37 73.1398H128.676L123.049 51.1808L123.529 51.0596L129.061 72.6462H157.37V73.1398Z" fill="#1B1258"/>
<path d="M141.57 71.7399C141.57 71.7399 137.065 71.5378 136.683 74.4216C136.272 77.5219 131.504 81.673 131.504 81.673C131.504 81.673 134.374 83.3328 138.572 79.8601C142.771 76.3874 145.375 75.4868 145.375 75.4868L141.57 71.7399Z" fill="#F1D8CC"/>
<path d="M131.505 81.6728C131.505 81.6728 125.733 79.248 124.677 77.031C124.446 76.546 124.507 75.9138 125.03 76.0351C127.056 76.5027 131.552 79.8138 131.552 79.8138C131.552 79.8138 127.79 76.2256 128.123 75.6598C128.311 75.3394 129.703 74.2165 130.86 73.3505C131.688 72.7125 132.645 73.1253 133.464 73.7835C134.448 74.5802 135.252 75.0911 135.579 75.1114C136.224 75.1489 136.983 74.1385 136.983 74.1385L135.261 79.5771L131.505 81.6728Z" fill="#F1D8CC"/>
<path d="M130.637 73.5991L134.505 76.9361C134.505 76.9361 131.699 75.1262 130.637 73.5991Z" fill="#C9AD9F"/>
<path d="M129.238 74.5977L133.35 78.9046C133.35 78.9046 130.15 76.22 129.238 74.5977Z" fill="#C9AD9F"/>
<path d="M164.125 62.7651C159.652 64.4163 145.05 70.5592 141.219 71.7571L144.138 76.0035C144.138 76.0035 165.343 74.5861 165.908 74.4216C168.396 70.1753 165.563 64.2229 164.125 62.7651Z" fill="#F1D8CC"/>
<path d="M181.753 45.8923C184.238 52.3786 188.584 67.349 169.716 76.6441C167.575 77.6978 159.734 81.6901 159.734 81.6901C159.734 81.6901 154.417 75.3682 154.995 65.5246L166.516 57.6988C166.516 57.6988 164.112 49.1917 163.409 46.2213C161.861 39.7119 174.768 27.6715 181.753 45.8923Z" fill="#FF8369"/>
<path d="M159.849 81.9097L159.623 81.4709C159.704 81.4305 167.49 77.4642 169.608 76.4221C182.773 69.9357 186.78 59.6793 181.523 45.9791C180.47 43.231 179.222 41.04 177.822 39.461L178.192 39.1348C179.639 40.7571 180.909 43 181.983 45.803C187.35 59.7977 183.259 70.2475 169.831 76.8637C167.701 77.9058 159.927 81.8693 159.849 81.9097Z" fill="#1B1258"/>
<path d="M158.688 63.2475L158.398 62.8405L166.21 57.6011C165.866 56.3772 163.792 48.993 163.149 46.2853C163.127 46.1987 163.108 46.1111 163.094 46.0226L163.58 45.936C163.58 46.014 163.609 46.0948 163.63 46.1699C164.324 49.1027 166.711 57.5549 166.737 57.6387L166.783 57.8119L158.688 63.2475Z" fill="#1B1258"/>
<path opacity="0.11" d="M235.084 200.416H-22.166V201H235.084V200.416Z" fill="#000033"/>
</g>
<defs>
<linearGradient id="paint0_linear" x1="114.6" y1="72.6088" x2="118.21" y2="72.6088" gradientUnits="userSpaceOnUse">
<stop stop-color="#99CEFF"/>
<stop offset="1" stop-color="#D5E9FF"/>
</linearGradient>
<linearGradient id="paint1_linear" x1="-29.4213" y1="489.102" x2="15.6426" y2="489.102" gradientUnits="userSpaceOnUse">
<stop stop-color="#99CEFF"/>
<stop offset="1" stop-color="#D5E9FF"/>
</linearGradient>
<linearGradient id="paint2_linear" x1="-88.2344" y1="489.102" x2="-43.1347" y2="489.102" gradientUnits="userSpaceOnUse">
<stop stop-color="#99CEFF"/>
<stop offset="1" stop-color="#D5E9FF"/>
</linearGradient>
<linearGradient id="paint3_linear" x1="-146.938" y1="489.102" x2="-101.802" y2="489.102" gradientUnits="userSpaceOnUse">
<stop stop-color="#99CEFF"/>
<stop offset="1" stop-color="#D5E9FF"/>
</linearGradient>
<linearGradient id="paint4_linear" x1="-73.4777" y1="489.633" x2="-58.1014" y2="489.633" gradientUnits="userSpaceOnUse">
<stop stop-color="#99CEFF"/>
<stop offset="1" stop-color="#D5E9FF"/>
</linearGradient>
<linearGradient id="paint5_linear" x1="-95.0353" y1="493.508" x2="-79.6155" y2="493.508" gradientUnits="userSpaceOnUse">
<stop stop-color="#99CEFF"/>
<stop offset="1" stop-color="#D5E9FF"/>
</linearGradient>
<linearGradient id="paint6_linear" x1="-115.082" y1="489.102" x2="-99.6637" y2="489.102" gradientUnits="userSpaceOnUse">
<stop stop-color="#99CEFF"/>
<stop offset="1" stop-color="#D5E9FF"/>
</linearGradient>
<clipPath id="clip0">
<rect width="217" height="201" fill="white"/>
</clipPath>
</defs>
</svg>
