<svg width="140" height="188" viewBox="0 0 140 188" fill="none" xmlns="http://www.w3.org/2000/svg">
<path fill-rule="evenodd" clip-rule="evenodd" d="M58.8751 186.088C58.9099 186.105 58.9524 186.121 59.0007 186.14H83.8401C83.6063 185.256 82.7945 183.647 79.9534 183.185C76.0976 182.56 69.4181 180.323 67.928 175.395C67.8816 175.239 67.8391 175.075 67.8004 174.91C66.6176 169.646 58.015 176.523 58.015 176.523C58.015 176.523 57.9879 176.733 57.9512 177.091C57.7521 179.022 57.2419 185.271 58.8751 186.088Z" fill="#2B2F32"/>
<path fill-rule="evenodd" clip-rule="evenodd" d="M93.0608 38.8347C93.0608 38.8347 92.6375 36.2697 93.2985 34.1337C93.9595 31.9974 96.7252 26.364 95.8497 24.4064C94.9761 22.4489 91.8084 17.1819 89.8544 17.1973C87.9004 17.213 91.9089 22.834 91.358 24.59C90.8072 26.346 90.6255 26.4886 89.9452 26.3337C89.2668 26.1788 88.2328 22.8172 87.8888 23.602C87.5467 24.3867 87.7457 29.5892 88.3913 30.8879C89.0368 32.1868 87.7129 39.5102 87.7129 39.5102L93.0608 38.8347Z" fill="#F8A9A6"/>
<path fill-rule="evenodd" clip-rule="evenodd" d="M94.6248 37.6935C94.6248 37.6935 90.2994 35.2387 86.9538 36.2733C86.9538 36.2733 80.3149 55.3771 76.6601 69.4264C69.6404 52.1231 65.3226 34.8672 65.3226 34.8672C65.3226 34.8672 56.8148 46.6081 53.7437 54.4154C50.6726 62.2231 69.0277 89.6129 76.1518 91.7622C83.585 94.0063 82.2321 91.7584 86.4262 89.3599C87.7771 87.6122 92.091 78.9045 94.6248 37.6935Z" fill="#D55F61"/>
<path fill-rule="evenodd" clip-rule="evenodd" d="M114.192 186.982C114.227 187 114.27 187.017 114.318 187.034H139.157C138.924 186.15 138.112 184.541 135.271 184.08C131.415 183.454 124.735 181.218 123.245 176.289C123.199 176.133 123.156 175.971 123.118 175.805C121.935 170.542 113.332 177.417 113.332 177.417C113.332 177.417 113.305 177.628 113.268 177.985C113.067 179.916 112.559 186.165 114.192 186.982Z" fill="#2B2F32"/>
<path fill-rule="evenodd" clip-rule="evenodd" d="M96.5455 95.5573C96.5455 95.5573 94.1257 96.633 91.1396 98.8326C90.8014 97.1042 90.3105 95.9822 90.3105 95.9822C68.9944 90.4339 11.9362 90.8858 11.9362 90.8858C11.9362 90.8858 -0.330855 93.9564 3.27176 111.798C6.5864 128.219 61.3697 120.616 79.0678 115.69C79.4814 115.574 79.8815 115.454 80.2699 115.329C78.861 125.79 88.7218 140.714 97.3534 154.448C104.468 165.771 110.523 177.23 110.523 177.23C114.097 179.445 126.095 178.165 126.095 178.165C118.511 156.766 96.5455 95.5573 96.5455 95.5573Z" fill="#483D8F"/>
<path fill-rule="evenodd" clip-rule="evenodd" d="M49.5059 29.071C49.5059 29.071 55.6249 48.6453 64.8169 53.0233C64.8169 53.0233 65.6867 47.0852 64.1985 42.5687C65.4122 41.6402 66.4888 40.7787 67.4261 40.0026C70.5436 37.4102 72.1188 35.7509 72.1188 35.7509L69.8247 19.73C68.3307 21.4416 66.7883 22.8419 65.2479 23.9913C57.3121 29.9051 49.5059 29.071 49.5059 29.071Z" fill="#FFC2C0"/>
<path fill-rule="evenodd" clip-rule="evenodd" d="M65.2471 23.9912C65.2471 23.9912 62.1644 32.4648 67.4253 40.0025C70.5429 37.4101 72.118 35.7509 72.118 35.7509L70.7516 26.2061C67.4601 24.3672 65.2471 23.9912 65.2471 23.9912Z" fill="#F8A9A6"/>
<path fill-rule="evenodd" clip-rule="evenodd" d="M74.4495 37.6053C74.4495 37.6053 60.8972 28.6213 66.6278 20.2748C72.3564 11.9285 74.465 5.14757 83.3613 10.5307C92.2557 15.9138 91.7319 20.2389 90.4989 23.4894C89.2639 26.7401 78.1217 39.727 74.4495 37.6053Z" fill="#FFC2C0"/>
<path fill-rule="evenodd" clip-rule="evenodd" d="M68.2034 2.80122C68.1435 2.57392 67.8903 2.28985 67.2042 1.90535C67.2042 1.90535 67.9425 1.82347 68.7078 2.17378C69.3418 1.25049 70.7295 -0.256205 72.6274 0.142388C72.6274 0.142388 71.4794 0.18893 70.8416 1.18927C73.7967 0.108594 78.7155 0.676549 89.8635 7.28693C104.554 15.9988 94.6432 23.4674 92.0823 23.6823C89.5214 23.8977 86.1295 18.2106 82.2949 16.7018C78.4623 15.1929 75.1071 20.2584 73.4913 20.388C71.8775 20.5177 73.012 19.4461 71.6997 17.8406C70.3874 16.235 68.8315 19.0033 68.4121 21.0938C67.9927 23.1843 64.4694 24.4869 64.4694 24.4869C64.4694 24.4869 64.4694 24.4869 63.3793 20.7669C62.2873 17.0467 65.4087 5.07961 67.6139 3.28324C67.8091 3.12449 68.0043 2.96266 68.2034 2.80122Z" fill="#2B2F32"/>
<path fill-rule="evenodd" clip-rule="evenodd" d="M65.9958 61.6863C61.9255 71.3189 58.2031 77.4697 57.716 78.275C55.963 81.1718 54.0786 83.831 52.3565 86.1522C52.3024 86.2276 52.2483 86.299 52.1942 86.3724C48.8023 90.9319 43.6167 92.1871 43.7771 93.3323C44.0999 95.6246 38.3036 101.128 28.7424 103.568C17.6485 106.401 4.79395 107.764 1.54503 104.017C0.458832 102.758 0.0974119 100.445 0.217241 97.5674C0.454967 91.5093 8.08733 67.109 8.08733 67.109C21.1449 27.6284 58.5355 27.6284 58.5355 27.6284C58.5355 27.6284 57.803 37.0865 66.9796 40.3691C66.9912 40.3892 69.1365 54.2513 65.9958 61.6863Z" fill="#FF6A46"/>
<path fill-rule="evenodd" clip-rule="evenodd" d="M87.9551 89.7788C87.9551 89.7788 93.5697 91.7621 95.11 92.7258C96.6485 93.6894 100.195 98.5367 100.593 100.236C100.991 101.936 101.459 106.93 101.169 107.766C100.877 108.602 96.5809 105.398 95.6242 102.382C94.6694 99.3651 92.2148 98.554 92.3095 98.7163C92.4042 98.8785 93.6605 102.739 93.3938 102.907C93.129 103.073 91.9848 103.361 90.9489 101.206C89.913 99.0504 87.8584 97.4764 88.2469 95.2479C88.6354 93.0212 87.9551 89.7788 87.9551 89.7788Z" fill="#F8A9A6"/>
<path fill-rule="evenodd" clip-rule="evenodd" d="M43.9619 93.6512C44.2866 95.9435 38.3028 101.129 28.7416 103.568C20.7671 87.7167 35.9294 51.4263 35.9294 51.4263L52.3557 86.1525C48.8903 90.8279 43.7995 92.4887 43.9619 93.6512Z" fill="#D55F61"/>
<path fill-rule="evenodd" clip-rule="evenodd" d="M57.7162 78.2749C55.9632 81.1716 54.0788 83.8308 52.3567 86.1521C52.3026 86.2274 52.2485 86.2989 52.1944 86.3722C49.9408 85.5052 47.7047 83.7729 46.5779 82.1816C43.9899 78.5317 43.7773 56.5859 43.7773 56.5859C43.7773 56.5859 54.3687 69.6599 57.7162 78.2749Z" fill="#D45F61"/>
<path fill-rule="evenodd" clip-rule="evenodd" d="M90.1084 90.2714C90.1084 90.2714 64.49 83.1067 51.3397 79.9705C52.4974 64.469 56.2952 17.5979 32.4028 36.3599C32.4028 36.3599 30.5976 86.5906 42.1747 96.7639C42.1747 96.7639 79.3392 97.5499 86.4149 97.1173C86.4149 97.1173 88.4946 96.0417 89.0125 95.3252C90.6631 93.031 90.1084 90.2714 90.1084 90.2714Z" fill="#FF6A46"/>
<path fill-rule="evenodd" clip-rule="evenodd" d="M91.7278 96.9474C91.7278 96.9474 75.572 154.284 70.7073 176.457C70.7073 176.457 58.7167 178.862 56.8516 175.096C56.8516 175.096 60.7151 112.657 67.8218 104.726C76.6621 94.8617 91.7278 96.9474 91.7278 96.9474Z" fill="#483D8F"/>
<path fill-rule="evenodd" clip-rule="evenodd" d="M68.2571 119.961V127.688C68.2571 129.282 66.5859 130.588 64.5433 130.588H6.07509C4.03253 130.588 2.36328 129.282 2.36328 127.688V119.961C2.36328 118.367 4.03253 117.061 6.07509 117.061H64.5433C66.5859 117.061 68.2571 118.367 68.2571 119.961Z" fill="#C9D0EF"/>
<path fill-rule="evenodd" clip-rule="evenodd" d="M16.8061 130.588L14.0663 141.496L14.0643 141.5L2.66096 186.499H1.46094L8.05207 149.165C8.0581 149.127 8.06815 149.091 8.07418 149.052L11.3346 130.588H16.8061Z" fill="#C9D0EF"/>
<path fill-rule="evenodd" clip-rule="evenodd" d="M68.2569 186.499H67.1275L58.3833 149.841V149.835L56.395 141.5L56.3912 141.496L53.8145 130.588H58.9641L62.0327 149.052C62.0384 149.091 62.0478 149.127 62.0535 149.165L68.2569 186.499Z" fill="#C9D0EF"/>
</svg>
