<svg width="32" height="32" viewBox="0 0 32 32" fill="none" xmlns="http://www.w3.org/2000/svg">
<rect width="32" height="32" rx="6" transform="matrix(-1 0 0 1 32 0)" fill="#3E3670"/>
<path d="M14.9062 11.228V18.088C14.9062 19.04 14.6309 19.782 14.0802 20.314C13.5295 20.8367 12.7922 21.098 11.8682 21.098C10.9349 21.098 10.1789 20.8273 9.60019 20.286C9.03085 19.7447 8.74619 18.9887 8.74619 18.018H10.7062C10.7155 18.438 10.8135 18.7647 11.0002 18.998C11.1962 19.2313 11.4762 19.348 11.8402 19.348C12.1949 19.348 12.4655 19.236 12.6522 19.012C12.8389 18.788 12.9322 18.48 12.9322 18.088V11.228H14.9062ZM20.5666 21.098C19.8852 21.098 19.2692 20.9813 18.7186 20.748C18.1772 20.5147 17.7479 20.1787 17.4306 19.74C17.1132 19.3013 16.9499 18.7833 16.9406 18.186H19.0406C19.0686 18.5873 19.2086 18.9047 19.4606 19.138C19.7219 19.3713 20.0766 19.488 20.5246 19.488C20.9819 19.488 21.3412 19.3807 21.6026 19.166C21.8639 18.942 21.9946 18.6527 21.9946 18.298C21.9946 18.0087 21.9059 17.7707 21.7286 17.584C21.5512 17.3973 21.3272 17.2527 21.0566 17.15C20.7952 17.038 20.4312 16.9167 19.9646 16.786C19.3299 16.5993 18.8119 16.4173 18.4106 16.24C18.0186 16.0533 17.6779 15.778 17.3886 15.414C17.1086 15.0407 16.9686 14.546 16.9686 13.93C16.9686 13.3513 17.1132 12.8473 17.4026 12.418C17.6919 11.9887 18.0979 11.662 18.6206 11.438C19.1432 11.2047 19.7406 11.088 20.4126 11.088C21.4206 11.088 22.2372 11.3353 22.8626 11.83C23.4972 12.3153 23.8472 12.9967 23.9126 13.874H21.7566C21.7379 13.538 21.5932 13.2627 21.3226 13.048C21.0612 12.824 20.7112 12.712 20.2726 12.712C19.8899 12.712 19.5819 12.81 19.3486 13.006C19.1246 13.202 19.0126 13.4867 19.0126 13.86C19.0126 14.1213 19.0966 14.3407 19.2646 14.518C19.4419 14.686 19.6566 14.826 19.9086 14.938C20.1699 15.0407 20.5339 15.162 21.0006 15.302C21.6352 15.4887 22.1532 15.6753 22.5546 15.862C22.9559 16.0487 23.3012 16.3287 23.5906 16.702C23.8799 17.0753 24.0246 17.5653 24.0246 18.172C24.0246 18.6947 23.8892 19.18 23.6186 19.628C23.3479 20.076 22.9512 20.4353 22.4286 20.706C21.9059 20.9673 21.2852 21.098 20.5666 21.098Z" fill="#F2F2F5"/>
</svg>
