<svg width="476" height="476" viewBox="0 0 476 476" fill="none" xmlns="http://www.w3.org/2000/svg">
<path d="M56.0922 181.808C25.1135 282.016 81.2349 388.364 181.443 419.342C281.65 450.321 387.998 394.2 418.977 293.992C449.955 193.784 393.834 87.4367 293.626 56.458C193.418 25.4794 87.0708 81.6007 56.0922 181.808Z" fill="url(#paint0_linear)"/>
<g clip-path="url(#clip0)">
<path fill-rule="evenodd" clip-rule="evenodd" d="M281.875 319.088C281.91 319.105 281.952 319.121 282.001 319.14H306.84C306.606 318.256 305.795 316.647 302.953 316.185C299.098 315.56 292.418 313.323 290.928 308.395C290.882 308.239 290.839 308.075 290.8 307.91C289.618 302.646 281.015 309.523 281.015 309.523C281.015 309.523 280.988 309.733 280.951 310.091C280.752 312.022 280.242 318.271 281.875 319.088Z" fill="#2B2F32"/>
<path fill-rule="evenodd" clip-rule="evenodd" d="M316.061 171.835C316.061 171.835 315.637 169.27 316.298 167.134C316.959 164.997 319.725 159.364 318.85 157.406C317.976 155.449 314.808 150.182 312.854 150.197C310.9 150.213 314.909 155.834 314.358 157.59C313.807 159.346 313.626 159.489 312.945 159.334C312.267 159.179 311.233 155.817 310.889 156.602C310.547 157.387 310.746 162.589 311.391 163.888C312.037 165.187 310.713 172.51 310.713 172.51L316.061 171.835Z" fill="#F8A9A6"/>
<path fill-rule="evenodd" clip-rule="evenodd" d="M317.625 170.693C317.625 170.693 313.299 168.239 309.954 169.273C309.954 169.273 303.315 188.377 299.66 202.426C292.64 185.123 288.323 167.867 288.323 167.867C288.323 167.867 279.815 179.608 276.744 187.415C273.673 195.223 292.028 222.613 299.152 224.762C306.585 227.006 305.232 224.758 309.426 222.36C310.777 220.612 315.091 211.905 317.625 170.693Z" fill="#D55F61"/>
<path fill-rule="evenodd" clip-rule="evenodd" d="M337.192 319.982C337.227 320 337.27 320.017 337.318 320.034H362.157C361.924 319.15 361.112 317.541 358.271 317.08C354.415 316.454 347.735 314.218 346.245 309.289C346.199 309.133 346.156 308.971 346.118 308.805C344.935 303.542 336.332 310.417 336.332 310.417C336.332 310.417 336.305 310.628 336.268 310.985C336.067 312.916 335.559 319.165 337.192 319.982Z" fill="#2B2F32"/>
<path fill-rule="evenodd" clip-rule="evenodd" d="M319.545 228.557C319.545 228.557 317.126 229.633 314.14 231.833C313.801 230.104 313.31 228.982 313.31 228.982C291.994 223.434 234.936 223.886 234.936 223.886C234.936 223.886 222.669 226.956 226.272 244.798C229.586 261.219 284.37 253.616 302.068 248.69C302.481 248.574 302.881 248.454 303.27 248.329C301.861 258.79 311.722 273.714 320.353 287.448C327.468 298.771 333.523 310.23 333.523 310.23C337.097 312.445 349.095 311.165 349.095 311.165C341.511 289.766 319.545 228.557 319.545 228.557Z" fill="#483D8F"/>
<path fill-rule="evenodd" clip-rule="evenodd" d="M272.506 162.071C272.506 162.071 278.625 181.645 287.817 186.023C287.817 186.023 288.687 180.085 287.198 175.569C288.412 174.64 289.489 173.779 290.426 173.003C293.544 170.41 295.119 168.751 295.119 168.751L292.825 152.73C291.331 154.442 289.788 155.842 288.248 156.991C280.312 162.905 272.506 162.071 272.506 162.071Z" fill="#FFC2C0"/>
<path fill-rule="evenodd" clip-rule="evenodd" d="M288.247 156.991C288.247 156.991 285.164 165.465 290.425 173.003C293.543 170.41 295.118 168.751 295.118 168.751L293.752 159.206C290.46 157.367 288.247 156.991 288.247 156.991Z" fill="#F8A9A6"/>
<path fill-rule="evenodd" clip-rule="evenodd" d="M297.449 170.605C297.449 170.605 283.897 161.621 289.628 153.275C295.356 144.928 297.465 138.148 306.361 143.531C315.256 148.914 314.732 153.239 313.499 156.489C312.264 159.74 301.122 172.727 297.449 170.605Z" fill="#FFC2C0"/>
<path fill-rule="evenodd" clip-rule="evenodd" d="M291.203 135.801C291.143 135.574 290.89 135.29 290.204 134.905C290.204 134.905 290.942 134.823 291.708 135.174C292.342 134.25 293.729 132.744 295.627 133.142C295.627 133.142 294.479 133.189 293.842 134.189C296.797 133.109 301.716 133.677 312.864 140.287C327.554 148.999 317.643 156.467 315.082 156.682C312.521 156.898 309.129 151.211 305.295 149.702C301.462 148.193 298.107 153.258 296.491 153.388C294.878 153.518 296.012 152.446 294.7 150.841C293.387 149.235 291.832 152.003 291.412 154.094C290.993 156.184 287.469 157.487 287.469 157.487C287.469 157.487 287.469 157.487 286.379 153.767C285.287 150.047 288.409 138.08 290.614 136.283C290.809 136.124 291.004 135.963 291.203 135.801Z" fill="#2B2F32"/>
<path fill-rule="evenodd" clip-rule="evenodd" d="M288.996 194.686C284.925 204.319 281.203 210.47 280.716 211.275C278.963 214.172 277.079 216.831 275.357 219.152C275.302 219.228 275.248 219.299 275.194 219.372C271.802 223.932 266.617 225.187 266.777 226.332C267.1 228.625 261.304 234.128 251.742 236.568C240.649 239.401 227.794 240.764 224.545 237.017C223.459 235.758 223.097 233.445 223.217 230.567C223.455 224.509 231.087 200.109 231.087 200.109C244.145 160.628 281.535 160.628 281.535 160.628C281.535 160.628 280.803 170.087 289.98 173.369C289.991 173.389 292.137 187.251 288.996 194.686Z" fill="#FF6A46"/>
<path fill-rule="evenodd" clip-rule="evenodd" d="M310.955 222.779C310.955 222.779 316.57 224.762 318.11 225.726C319.649 226.689 323.195 231.537 323.593 233.236C323.991 234.936 324.459 239.93 324.169 240.766C323.877 241.602 319.581 238.398 318.624 235.382C317.669 232.365 315.215 231.554 315.31 231.716C315.404 231.878 316.66 235.739 316.394 235.907C316.129 236.073 314.985 236.361 313.949 234.206C312.913 232.05 310.858 230.476 311.247 228.248C311.635 226.021 310.955 222.779 310.955 222.779Z" fill="#F8A9A6"/>
<path fill-rule="evenodd" clip-rule="evenodd" d="M266.962 226.651C267.287 228.944 261.303 234.129 251.742 236.568C243.767 220.717 258.929 184.426 258.929 184.426L275.356 219.153C271.89 223.828 266.8 225.489 266.962 226.651Z" fill="#D55F61"/>
<path fill-rule="evenodd" clip-rule="evenodd" d="M280.716 211.275C278.963 214.172 277.079 216.831 275.357 219.152C275.303 219.227 275.249 219.299 275.194 219.372C272.941 218.505 270.705 216.773 269.578 215.182C266.99 211.532 266.777 189.586 266.777 189.586C266.777 189.586 277.369 202.66 280.716 211.275Z" fill="#D45F61"/>
<path fill-rule="evenodd" clip-rule="evenodd" d="M313.108 223.271C313.108 223.271 287.49 216.107 274.34 212.971C275.497 197.469 279.295 150.598 255.403 169.36C255.403 169.36 253.598 219.591 265.175 229.764C265.175 229.764 302.339 230.55 309.415 230.117C309.415 230.117 311.495 229.042 312.013 228.325C313.663 226.031 313.108 223.271 313.108 223.271Z" fill="#FF6A46"/>
<path fill-rule="evenodd" clip-rule="evenodd" d="M314.728 229.947C314.728 229.947 298.572 287.284 293.707 309.457C293.707 309.457 281.717 311.862 279.852 308.096C279.852 308.096 283.715 245.657 290.822 237.726C299.662 227.862 314.728 229.947 314.728 229.947Z" fill="#483D8F"/>
<path fill-rule="evenodd" clip-rule="evenodd" d="M291.257 252.961V260.688C291.257 262.282 289.586 263.588 287.543 263.588H229.075C227.033 263.588 225.363 262.282 225.363 260.688V252.961C225.363 251.367 227.033 250.061 229.075 250.061H287.543C289.586 250.061 291.257 251.367 291.257 252.961Z" fill="#C9D0EF"/>
<path fill-rule="evenodd" clip-rule="evenodd" d="M239.806 263.588L237.066 274.496L237.064 274.5L225.661 319.499H224.461L231.052 282.165C231.058 282.127 231.068 282.091 231.074 282.052L234.335 263.588H239.806Z" fill="#C9D0EF"/>
<path fill-rule="evenodd" clip-rule="evenodd" d="M291.257 319.499H290.127L281.383 282.841V282.835L279.395 274.5L279.391 274.496L276.814 263.588H281.964L285.033 282.052C285.038 282.091 285.048 282.127 285.053 282.165L291.257 319.499Z" fill="#C9D0EF"/>
<path fill-rule="evenodd" clip-rule="evenodd" d="M164.736 300.28L165.681 300.195C165.319 293.318 160.113 289.472 160.113 289.472C156.466 286.243 155.281 282.697 155.281 282.697C155.281 282.697 161.435 275.525 155.66 270.967C155.66 270.967 151.442 268.416 148.004 268.625C148.004 268.625 152.876 276.788 151.301 277.601C149.724 278.412 146.527 268.111 146.527 268.111C146.527 268.111 136.929 267.182 133.843 268.665C133.843 268.665 142.047 275.374 140.319 275.774C138.592 276.172 129.73 269.588 129.73 269.588C129.73 269.588 120.797 271.106 121.274 276.552C121.75 281.996 124.827 283.676 126.18 283.531C127.533 283.388 135.445 280.37 135.619 281.477C135.791 282.585 131.027 286.204 127.693 286.372C127.693 286.372 133.99 293.313 138.174 291.31C142.36 289.307 142.718 286.133 145.327 284.941C147.934 283.751 150.163 283.753 149.084 284.968C148.008 286.183 143.286 287.363 141.794 289.999C140.302 292.637 138.965 294.415 143.294 293.765C147.623 293.114 154.662 289.947 154.972 286.322C154.985 286.163 154.999 286.013 155.01 285.868C155.018 286.156 154.972 286.322 154.972 286.322C155.876 286.482 157.751 288.143 159.108 289.446C159.316 289.674 159.624 289.979 160.064 290.389C160.231 290.555 160.368 290.696 160.472 290.802C163.22 293.811 164.736 300.28 164.736 300.28Z" fill="#C9D0EF"/>
<path fill-rule="evenodd" clip-rule="evenodd" d="M176.794 273.677C176.794 273.677 167.007 268.2 171.574 260.767C171.574 260.767 175.228 256.202 179.144 255.029C179.144 255.029 177.055 266.112 179.144 266.373C181.231 266.634 180.578 253.855 180.578 253.855C180.578 253.855 190.889 248.9 194.935 249.292C194.935 249.292 188.539 260.114 190.628 259.853C192.716 259.593 199.894 248.639 199.894 248.639C199.894 248.639 210.466 246.683 212.161 252.942C213.858 259.203 211.117 262.331 209.552 262.723C207.986 263.113 197.936 262.984 198.197 264.287C198.458 265.591 205.246 267.678 209.03 266.504C209.03 266.504 204.853 276.805 199.372 276.284C193.891 275.762 192.194 272.373 188.8 272.11C185.408 271.852 182.928 272.763 184.625 273.677C186.322 274.588 192.064 273.976 194.805 276.303C197.546 278.632 199.763 280.067 194.674 281.11C189.585 282.153 180.449 281.5 178.622 277.589C176.794 273.677 176.794 273.677 176.794 273.677Z" fill="#E3E7FD"/>
<path fill-rule="evenodd" clip-rule="evenodd" d="M207.333 254.898C207.333 254.898 179.927 263.766 176.794 273.677C176.794 273.677 176.925 278.111 174.184 283.195C174.184 283.195 169.958 289.609 172.368 297.414L173.454 297.123C173.454 297.123 172.503 289.379 174.299 284.893C174.372 284.727 174.478 284.489 174.612 284.198C174.936 283.562 175.155 283.097 175.294 282.757C176.27 280.752 177.681 278.136 178.622 277.589C178.622 277.589 172.488 268.982 207.333 254.898Z" fill="#C9D0EF"/>
<path fill-rule="evenodd" clip-rule="evenodd" d="M161.221 266.124C161.221 266.124 174.124 258.903 168.104 249.104C168.104 249.104 163.285 243.089 158.125 241.542C158.125 241.542 160.877 256.153 158.125 256.497C155.373 256.841 156.233 239.995 156.233 239.995C156.233 239.995 142.642 233.464 137.309 233.98C137.309 233.98 145.738 248.245 142.986 247.903C140.234 247.558 130.771 233.12 130.771 233.12C130.771 233.12 116.838 230.54 114.6 238.792C112.364 247.042 115.978 251.169 118.042 251.684C120.106 252.2 133.353 252.028 133.009 253.747C132.665 255.466 123.718 258.216 118.73 256.669C118.73 256.669 124.234 270.249 131.459 269.561C138.686 268.874 140.922 264.403 145.394 264.059C149.868 263.716 153.137 264.919 150.9 266.124C148.662 267.327 141.094 266.518 137.481 269.586C133.869 272.655 130.943 274.546 137.653 275.921C144.362 277.296 156.405 276.436 158.813 271.28C161.221 266.124 161.221 266.124 161.221 266.124Z" fill="#E3E7FD"/>
<path fill-rule="evenodd" clip-rule="evenodd" d="M164.662 278.671C161.05 271.968 161.222 266.124 161.222 266.124C157.093 253.059 120.967 241.37 120.967 241.37C166.898 259.934 158.814 271.28 158.814 271.28C160.052 272 161.908 275.442 163.195 278.082C163.379 278.53 163.669 279.151 164.102 279.995C164.275 280.378 164.417 280.689 164.513 280.907C166.877 286.82 165.625 297.03 165.625 297.03L167.059 297.415C170.234 287.125 164.662 278.671 164.662 278.671Z" fill="#C9D0EF"/>
<path fill-rule="evenodd" clip-rule="evenodd" d="M136.383 294.478C136.383 308.424 147.697 319.729 161.655 319.729C164.57 319.729 167.368 319.237 169.974 318.329C179.846 314.894 186.93 305.512 186.93 294.478H136.383Z" fill="#C9D0EF"/>
<path fill-rule="evenodd" clip-rule="evenodd" d="M135.809 295.252H187.762V294.478H135.809V295.252Z" fill="#ABB4DC"/>
<path fill-rule="evenodd" clip-rule="evenodd" d="M273.418 280.743L273.4 280.729C273.375 280.687 273.381 280.696 273.418 280.743Z" fill="#3662C1"/>
<path fill-rule="evenodd" clip-rule="evenodd" d="M441.447 320.225H34.4499C34.2026 320.225 34 320.023 34 319.776V319.594C34 319.347 34.2026 319.144 34.4499 319.144H441.447C441.695 319.144 441.898 319.347 441.898 319.594V319.776C441.898 320.023 441.695 320.225 441.447 320.225Z" fill="#C9D0EF"/>
</g>
<defs>
<linearGradient id="paint0_linear" x1="293.626" y1="56.458" x2="181.443" y2="419.342" gradientUnits="userSpaceOnUse">
<stop stop-color="#E5E8F7"/>
<stop offset="0.53125" stop-color="#F6F7FC" stop-opacity="0"/>
</linearGradient>
<clipPath id="clip0">
<rect width="408" height="202" fill="white" transform="translate(34 118.4)"/>
</clipPath>
</defs>
</svg>
