<svg width="408" height="272" viewBox="0 0 408 272" fill="none" xmlns="http://www.w3.org/2000/svg">
<g clip-path="url(#clip0)">
<path d="M22.0913 133.808C-8.88729 234.016 47.234 340.364 147.442 371.342C247.65 402.321 353.997 346.2 384.976 245.992C415.954 145.784 359.833 39.4367 259.625 8.45803C159.418 -22.5206 53.07 33.6007 22.0913 133.808Z" fill="url(#paint0_linear)"/>
<g clip-path="url(#clip1)">
<path fill-rule="evenodd" clip-rule="evenodd" d="M247.943 271.088C247.978 271.106 248.021 271.121 248.069 271.141H272.909C272.675 270.256 271.863 268.647 269.022 268.186C265.166 267.56 258.486 265.324 256.996 260.396C256.95 260.239 256.907 260.075 256.869 259.911C255.686 254.647 247.083 261.523 247.083 261.523C247.083 261.523 247.056 261.734 247.02 262.091C246.82 264.022 246.31 270.272 247.943 271.088Z" fill="#2B2F32"/>
<path fill-rule="evenodd" clip-rule="evenodd" d="M280.796 181.947C280.796 181.947 264.64 239.284 259.776 261.457C259.776 261.457 247.785 263.862 245.92 260.096C245.92 260.096 249.783 197.657 256.89 189.726C265.73 179.862 280.796 181.947 280.796 181.947Z" fill="#483D8F"/>
<path fill-rule="evenodd" clip-rule="evenodd" d="M282.129 123.835C282.129 123.835 281.706 121.27 282.367 119.134C283.028 116.997 285.794 111.364 284.918 109.406C284.044 107.449 280.877 102.182 278.923 102.197C276.969 102.213 280.977 107.834 280.426 109.59C279.876 111.346 279.694 111.489 279.014 111.334C278.335 111.179 277.301 107.817 276.957 108.602C276.615 109.387 276.814 114.589 277.46 115.888C278.105 117.187 276.781 124.51 276.781 124.51L282.129 123.835Z" fill="#F8A9A6"/>
<path fill-rule="evenodd" clip-rule="evenodd" d="M283.693 122.693C283.693 122.693 279.368 120.239 276.022 121.273C276.022 121.273 269.383 140.377 265.728 154.426C258.709 137.123 254.391 119.867 254.391 119.867C254.391 119.867 245.883 131.608 242.812 139.415C239.741 147.223 258.096 174.613 265.22 176.762C272.653 179.006 271.3 176.758 275.495 174.36C276.846 172.612 281.159 163.905 283.693 122.693Z" fill="#D55F61"/>
<path fill-rule="evenodd" clip-rule="evenodd" d="M303.261 271.982C303.295 272 303.338 272.017 303.386 272.034H328.226C327.992 271.15 327.18 269.541 324.339 269.08C320.483 268.454 313.804 266.218 312.314 261.289C312.267 261.133 312.225 260.971 312.186 260.805C311.003 255.542 302.401 262.417 302.401 262.417C302.401 262.417 302.374 262.628 302.337 262.985C302.136 264.916 301.627 271.165 303.261 271.982Z" fill="#2B2F32"/>
<path fill-rule="evenodd" clip-rule="evenodd" d="M285.614 180.557C285.614 180.557 283.194 181.633 280.208 183.833C279.87 182.104 279.379 180.982 279.379 180.982C258.063 175.434 201.005 175.886 201.005 175.886C201.005 175.886 188.738 178.956 192.34 196.798C195.655 213.219 250.438 205.616 268.136 200.69C268.55 200.574 268.95 200.454 269.338 200.329C267.929 210.79 277.79 225.714 286.422 239.448C293.536 250.771 299.591 262.23 299.591 262.23C303.165 264.445 315.163 263.165 315.163 263.165C307.579 241.766 285.614 180.557 285.614 180.557Z" fill="#483D8F"/>
<path fill-rule="evenodd" clip-rule="evenodd" d="M238.574 114.071C238.574 114.071 244.693 133.645 253.885 138.023C253.885 138.023 254.755 132.085 253.267 127.569C254.481 126.64 255.557 125.779 256.494 125.003C259.612 122.41 261.187 120.751 261.187 120.751L258.893 104.73C257.399 106.442 255.857 107.842 254.316 108.991C246.381 114.905 238.574 114.071 238.574 114.071Z" fill="#FFC2C0"/>
<path fill-rule="evenodd" clip-rule="evenodd" d="M254.315 108.991C254.315 108.991 251.233 117.465 256.494 125.003C259.611 122.41 261.186 120.751 261.186 120.751L259.82 111.206C256.529 109.367 254.315 108.991 254.315 108.991Z" fill="#F8A9A6"/>
<path fill-rule="evenodd" clip-rule="evenodd" d="M263.518 122.605C263.518 122.605 249.966 113.621 255.696 105.275C261.425 96.9285 263.533 90.1476 272.43 95.5307C281.324 100.914 280.8 105.239 279.567 108.489C278.332 111.74 267.19 124.727 263.518 122.605Z" fill="#FFC2C0"/>
<path fill-rule="evenodd" clip-rule="evenodd" d="M257.272 87.8012C257.212 87.5739 256.959 87.2898 256.273 86.9054C256.273 86.9054 257.011 86.8235 257.776 87.1738C258.41 86.2505 259.798 84.7438 261.696 85.1424C261.696 85.1424 260.548 85.1889 259.91 86.1893C262.865 85.1086 267.784 85.6765 278.932 92.2869C293.623 100.999 283.712 108.467 281.151 108.682C278.59 108.898 275.198 103.211 271.363 101.702C267.531 100.193 264.175 105.258 262.56 105.388C260.946 105.518 262.08 104.446 260.768 102.841C259.456 101.235 257.9 104.003 257.48 106.094C257.061 108.184 253.538 109.487 253.538 109.487C253.538 109.487 253.538 109.487 252.448 105.767C251.356 102.047 254.477 90.0796 256.682 88.2832C256.877 88.1245 257.073 87.9627 257.272 87.8012Z" fill="#2B2F32"/>
<path fill-rule="evenodd" clip-rule="evenodd" d="M255.064 146.686C250.994 156.319 247.271 162.47 246.784 163.275C245.031 166.172 243.147 168.831 241.425 171.152C241.371 171.228 241.317 171.299 241.263 171.372C237.871 175.932 232.685 177.187 232.846 178.332C233.168 180.625 227.372 186.128 217.811 188.568C206.717 191.401 193.862 192.764 190.613 189.017C189.527 187.758 189.166 185.445 189.286 182.567C189.523 176.509 197.156 152.109 197.156 152.109C210.213 112.628 247.604 112.628 247.604 112.628C247.604 112.628 246.871 122.087 256.048 125.369C256.06 125.389 258.205 139.251 255.064 146.686Z" fill="#FF6A46"/>
<path fill-rule="evenodd" clip-rule="evenodd" d="M277.023 174.779C277.023 174.779 282.638 176.762 284.178 177.726C285.717 178.689 289.263 183.537 289.662 185.236C290.06 186.936 290.527 191.93 290.238 192.766C289.946 193.602 285.649 190.398 284.693 187.382C283.738 184.365 281.283 183.554 281.378 183.716C281.473 183.878 282.729 187.739 282.462 187.907C282.197 188.073 281.053 188.361 280.017 186.206C278.981 184.05 276.927 182.476 277.315 180.248C277.704 178.021 277.023 174.779 277.023 174.779Z" fill="#F8A9A6"/>
<path fill-rule="evenodd" clip-rule="evenodd" d="M233.03 178.651C233.355 180.944 227.371 186.129 217.81 188.568C209.835 172.717 224.998 136.426 224.998 136.426L241.424 171.153C237.959 175.828 232.868 177.489 233.03 178.651Z" fill="#D55F61"/>
<path fill-rule="evenodd" clip-rule="evenodd" d="M246.785 163.275C245.032 166.172 243.147 168.831 241.425 171.152C241.371 171.227 241.317 171.299 241.263 171.372C239.009 170.505 236.773 168.773 235.646 167.182C233.058 163.532 232.846 141.586 232.846 141.586C232.846 141.586 243.437 154.66 246.785 163.275Z" fill="#D45F61"/>
<path fill-rule="evenodd" clip-rule="evenodd" d="M279.177 175.271C279.177 175.271 253.558 168.107 240.408 164.971C241.566 149.469 245.364 102.598 221.471 121.36C221.471 121.36 219.666 171.591 231.243 181.764C231.243 181.764 268.408 182.55 275.483 182.117C275.483 182.117 277.563 181.042 278.081 180.325C279.731 178.031 279.177 175.271 279.177 175.271Z" fill="#FF6A46"/>
<path fill-rule="evenodd" clip-rule="evenodd" d="M130.804 252.281L131.749 252.196C131.388 245.319 126.181 241.472 126.181 241.472C122.534 238.243 121.349 234.698 121.349 234.698C121.349 234.698 127.503 227.525 121.728 222.968C121.728 222.968 117.511 220.417 114.072 220.625C114.072 220.625 118.945 228.788 117.37 229.601C115.793 230.412 112.596 220.111 112.596 220.111C112.596 220.111 102.998 219.183 99.9113 220.666C99.9113 220.666 108.116 227.375 106.388 227.774C104.66 228.172 95.7984 221.589 95.7984 221.589C95.7984 221.589 86.8653 223.107 87.3427 228.553C87.8181 233.997 90.8951 235.677 92.248 235.532C93.6009 235.389 101.514 232.37 101.687 233.477C101.859 234.586 97.0953 238.205 93.7613 238.373C93.7613 238.373 100.058 245.313 104.243 243.311C108.429 241.308 108.786 238.133 111.396 236.942C114.003 235.752 116.231 235.754 115.153 236.969C114.076 238.183 109.355 239.363 107.863 241.999C106.37 244.637 105.033 246.416 109.362 245.765C113.692 245.114 120.731 241.947 121.04 238.322C121.053 238.164 121.067 238.013 121.079 237.869C121.086 238.156 121.04 238.322 121.04 238.322C121.944 238.483 123.819 240.143 125.176 241.447C125.385 241.675 125.692 241.98 126.133 242.389C126.299 242.555 126.436 242.696 126.54 242.803C129.289 245.811 130.804 252.281 130.804 252.281Z" fill="#C9D0EF"/>
<path fill-rule="evenodd" clip-rule="evenodd" d="M142.862 225.677C142.862 225.677 133.075 220.2 137.642 212.767C137.642 212.767 141.297 208.202 145.213 207.029C145.213 207.029 143.123 218.112 145.213 218.373C147.3 218.634 146.647 205.855 146.647 205.855C146.647 205.855 156.958 200.9 161.003 201.292C161.003 201.292 154.608 212.114 156.697 211.853C158.784 211.593 165.962 200.639 165.962 200.639C165.962 200.639 176.534 198.683 178.229 204.942C179.926 211.203 177.186 214.331 175.62 214.723C174.055 215.113 164.004 214.984 164.265 216.287C164.526 217.591 171.314 219.678 175.098 218.504C175.098 218.504 170.922 228.805 165.441 228.284C159.959 227.762 158.262 224.373 154.868 224.11C151.476 223.852 148.997 224.763 150.694 225.677C152.391 226.588 158.133 225.976 160.873 228.303C163.614 230.632 165.831 232.067 160.742 233.11C155.653 234.153 146.517 233.5 144.691 229.589C142.862 225.677 142.862 225.677 142.862 225.677Z" fill="#E3E7FD"/>
<path fill-rule="evenodd" clip-rule="evenodd" d="M173.401 206.898C173.401 206.898 145.995 215.766 142.862 225.677C142.862 225.677 142.993 230.111 140.253 235.196C140.253 235.196 136.026 241.609 138.436 249.415L139.522 249.123C139.522 249.123 138.571 241.379 140.367 236.893C140.44 236.727 140.547 236.49 140.68 236.198C141.005 235.563 141.223 235.097 141.362 234.757C142.338 232.753 143.749 230.136 144.69 229.59C144.69 229.59 138.556 220.982 173.401 206.898Z" fill="#C9D0EF"/>
<path fill-rule="evenodd" clip-rule="evenodd" d="M127.29 218.124C127.29 218.124 140.192 210.903 134.172 201.104C134.172 201.104 129.354 195.089 124.193 193.542C124.193 193.542 126.946 208.153 124.193 208.497C121.441 208.841 122.301 191.995 122.301 191.995C122.301 191.995 108.71 185.464 103.378 185.98C103.378 185.98 111.806 200.245 109.054 199.903C106.302 199.558 96.8393 185.12 96.8393 185.12C96.8393 185.12 82.9063 182.54 80.6682 190.792C78.432 199.042 82.0462 203.169 84.1104 203.684C86.1745 204.2 99.4215 204.028 99.0774 205.747C98.7334 207.466 89.7868 210.216 84.7984 208.669C84.7984 208.669 90.3028 222.249 97.5274 221.561C104.754 220.874 106.99 216.403 111.462 216.059C115.937 215.716 119.205 216.919 116.969 218.124C114.731 219.327 107.162 218.518 103.55 221.586C99.9375 224.655 97.0114 226.546 103.722 227.921C110.43 229.296 122.473 228.436 124.881 223.28C127.29 218.124 127.29 218.124 127.29 218.124Z" fill="#E3E7FD"/>
<path fill-rule="evenodd" clip-rule="evenodd" d="M130.73 230.671C127.118 223.968 127.29 218.124 127.29 218.124C123.162 205.059 87.0352 193.37 87.0352 193.37C132.967 211.934 124.882 223.28 124.882 223.28C126.121 224 127.976 227.442 129.263 230.082C129.447 230.53 129.737 231.151 130.17 231.995C130.344 232.378 130.485 232.689 130.582 232.907C132.945 238.82 131.693 249.03 131.693 249.03L133.127 249.415C136.302 239.125 130.73 230.671 130.73 230.671Z" fill="#C9D0EF"/>
<path fill-rule="evenodd" clip-rule="evenodd" d="M102.451 246.478C102.451 260.424 113.765 271.729 127.724 271.729C130.638 271.729 133.437 271.237 136.042 270.329C145.914 266.894 152.998 257.512 152.998 246.478H102.451Z" fill="#C9D0EF"/>
<path fill-rule="evenodd" clip-rule="evenodd" d="M101.877 247.252H153.831V246.478H101.877V247.252Z" fill="#ABB4DC"/>
<path fill-rule="evenodd" clip-rule="evenodd" d="M257.325 204.961V212.689C257.325 214.283 255.654 215.588 253.612 215.588H195.143C193.101 215.588 191.432 214.283 191.432 212.689V204.961C191.432 203.367 193.101 202.062 195.143 202.062H253.612C255.654 202.062 257.325 203.367 257.325 204.961Z" fill="#C9D0EF"/>
<path fill-rule="evenodd" clip-rule="evenodd" d="M205.874 215.588L203.135 226.496L203.133 226.5L191.729 271.499H190.529L197.12 234.165C197.126 234.127 197.137 234.091 197.143 234.052L200.403 215.588H205.874Z" fill="#C9D0EF"/>
<path fill-rule="evenodd" clip-rule="evenodd" d="M257.325 271.499H256.196L247.452 234.841V234.835L245.463 226.5L245.46 226.496L242.883 215.588H248.032L251.101 234.052C251.107 234.091 251.116 234.127 251.122 234.165L257.325 271.499Z" fill="#C9D0EF"/>
<path fill-rule="evenodd" clip-rule="evenodd" d="M239.486 232.743L239.469 232.729C239.443 232.687 239.449 232.696 239.486 232.743Z" fill="#3662C1"/>
<path fill-rule="evenodd" clip-rule="evenodd" d="M407.516 272.226H0.5183C0.27091 272.226 0.0683594 272.023 0.0683594 271.776V271.594C0.0683594 271.347 0.27091 271.145 0.5183 271.145H407.516C407.763 271.145 407.966 271.347 407.966 271.594V271.776C407.966 272.023 407.763 272.226 407.516 272.226Z" fill="#C9D0EF"/>
</g>
</g>
<defs>
<linearGradient id="paint0_linear" x1="259.626" y1="8.45804" x2="147.443" y2="371.342" gradientUnits="userSpaceOnUse">
<stop stop-color="#E5E8F7"/>
<stop offset="0.53125" stop-color="#F6F7FC" stop-opacity="0"/>
</linearGradient>
<clipPath id="clip0">
<rect width="408" height="272" fill="white"/>
</clipPath>
<clipPath id="clip1">
<rect width="408" height="202" fill="white" transform="translate(0.0683594 70.4004)"/>
</clipPath>
</defs>
</svg>
