<svg width="16" height="16" viewBox="0 0 16 16" fill="none" xmlns="http://www.w3.org/2000/svg">
<path fill-rule="evenodd" clip-rule="evenodd" d="M13.6569 2.34315C16.7811 5.46735 16.7811 10.5327 13.6569 13.6569C10.5327 16.7811 5.46732 16.7811 2.34315 13.6569C-0.78105 10.5327 -0.78105 5.46732 2.34315 2.34315C5.46735 -0.78105 10.5327 -0.78105 13.6569 2.34315Z" fill="#A39FAA"/>
<path fill-rule="evenodd" clip-rule="evenodd" d="M7.99971 11.9999C7.55788 11.9999 7.19971 11.6417 7.19971 11.1999V7.1999C7.19971 6.75808 7.55788 6.3999 7.99971 6.3999C8.44153 6.3999 8.79971 6.75808 8.79971 7.1999V11.1999C8.79971 11.6417 8.44153 11.9999 7.99971 11.9999Z" fill="white"/>
<path fill-rule="evenodd" clip-rule="evenodd" d="M7.99971 5.6C7.55788 5.6 7.19971 5.24183 7.19971 4.8C7.19971 4.35818 7.55788 4 7.99971 4C8.44153 4 8.79971 4.35818 8.79971 4.8C8.79971 5.24183 8.44153 5.6 7.99971 5.6Z" fill="white"/>
</svg>
