<svg width="101" height="28" viewBox="0 0 101 28" fill="none" xmlns="http://www.w3.org/2000/svg">
<path fill-rule="evenodd" clip-rule="evenodd" d="M10.2678 16.3179C7.77321 15.5869 4.65092 10.4699 9.09484 6.96435C8.56619 4.76026 6.20711 0.491618 1 1.04984L1.62776 4.82117C3.3899 4.68826 6.86791 5.80471 6.68289 11.3338C6.4461 10.049 5.4571 7.49599 3.3954 7.56245C2.8172 11.3338 3.81837 16.3179 10.2678 16.3179ZM9.72238 6.53241C10.7686 5.8457 13.6541 5.03384 16.826 7.28003C16.402 6.69301 15.1079 5.47909 13.3237 5.3196C13.4229 3.9905 12.5506 1.73102 8.26862 3.32595C8.59351 3.65822 9.33911 4.7647 9.72238 6.53241Z" fill="#FF8369"/>
<path d="M9.09484 6.96435L9.40451 7.35692L9.65566 7.1588L9.58105 6.84774L9.09484 6.96435ZM10.2678 16.3179V16.8179L10.4084 15.8381L10.2678 16.3179ZM1 1.04984L0.946703 0.55269L0.41977 0.609179L0.506786 1.13194L1 1.04984ZM1.62776 4.82117L1.13455 4.90327L1.2096 5.35413L1.66537 5.31976L1.62776 4.82117ZM6.68289 11.3338L6.19117 11.4244L7.18261 11.3505L6.68289 11.3338ZM3.3954 7.56245L3.3793 7.06271L2.96413 7.07609L2.90118 7.48668L3.3954 7.56245ZM16.826 7.28003L16.537 7.68807L17.2313 6.98726L16.826 7.28003ZM9.72238 6.53241L9.23373 6.63835L9.38801 7.34994L9.99673 6.95041L9.72238 6.53241ZM13.3237 5.3196L12.8251 5.28242L12.7885 5.77375L13.2792 5.81762L13.3237 5.3196ZM8.26862 3.32595L8.09409 2.85739L7.37358 3.12576L7.91111 3.67551L8.26862 3.32595ZM8.78517 6.57179C6.39155 8.45996 6.00899 10.8326 6.60004 12.8239C6.89114 13.8046 7.41536 14.687 8.03568 15.3756C8.65155 16.0593 9.38947 16.5816 10.1272 16.7977L10.4084 15.8381C9.89878 15.6888 9.31095 15.2972 8.77868 14.7063C8.25085 14.1204 7.80451 13.3674 7.5587 12.5393C7.07596 10.9129 7.35421 8.97426 9.40451 7.35692L8.78517 6.57179ZM1.0533 1.54699C3.49311 1.28544 5.24106 2.14888 6.45296 3.32939C7.68062 4.52525 8.36231 6.05398 8.60863 7.08097L9.58105 6.84774C9.29872 5.67063 8.53654 3.96299 7.15073 2.61307C5.74915 1.24779 3.71401 0.256024 0.946703 0.55269L1.0533 1.54699ZM2.12097 4.73907L1.49321 0.967743L0.506786 1.13194L1.13455 4.90327L2.12097 4.73907ZM7.18261 11.3505C7.27885 8.47467 6.42064 6.65602 5.21877 5.58149C4.03316 4.5215 2.58132 4.24783 1.59016 4.32259L1.66537 5.31976C2.43634 5.26161 3.60457 5.47971 4.55226 6.32698C5.48367 7.15971 6.27196 8.66382 6.18317 11.3171L7.18261 11.3505ZM3.41151 8.06219C4.20012 8.03677 4.82325 8.50268 5.30929 9.22147C5.79549 9.94048 6.08168 10.8303 6.19117 11.4244L7.17461 11.2432C7.04731 10.5524 6.72061 9.52339 6.13768 8.66132C5.5546 7.79903 4.65239 7.02167 3.3793 7.06271L3.41151 8.06219ZM10.2678 15.8179C7.19252 15.8179 5.51127 14.6436 4.63005 13.1058C3.7245 11.5256 3.60931 9.4666 3.88963 7.63822L2.90118 7.48668C2.6033 9.42963 2.69959 11.7484 3.76242 13.603C4.84958 15.5002 6.89361 16.8179 10.2678 16.8179V15.8179ZM17.115 6.87198C13.7597 4.49589 10.6497 5.32571 9.44803 6.1144L9.99673 6.95041C10.8876 6.3657 13.5486 5.5718 16.537 7.68807L17.115 6.87198ZM13.2792 5.81762C14.8735 5.96013 16.0504 7.06025 16.4207 7.5728L17.2313 6.98726C16.7535 6.32577 15.3423 4.99805 13.3683 4.82159L13.2792 5.81762ZM8.44314 3.7945C10.5231 3.01979 11.6075 3.24496 12.1476 3.63251C12.695 4.02532 12.8673 4.71675 12.8251 5.28242L13.8224 5.35679C13.8793 4.59335 13.665 3.4905 12.7306 2.82002C11.7889 2.14429 10.2962 2.03718 8.09409 2.85739L8.44314 3.7945ZM10.211 6.42646C9.81123 4.58251 9.02715 3.38653 8.62612 2.97639L7.91111 3.67551C8.15987 3.92991 8.867 4.94689 9.23373 6.63835L10.211 6.42646Z" fill="#FF8369"/>
<path fill-rule="evenodd" clip-rule="evenodd" d="M72.9464 12.7523H76.115V27.4866H79.7197V12.7523H83.0045V8.98103H79.7197V2.57861H76.115V8.98103H72.9464V12.7523ZM19.429 8.98026C19.429 14.4699 15.0039 18.9201 9.54525 18.9201C7.32031 18.9201 5.26708 18.1807 3.61523 16.933V27.5151H7.13268V20.6157C9.87492 22.1262 16.4408 23.5684 20.7664 17.2537C22.2268 14.8183 23.636 8.96945 18.253 4.2739C19.0033 5.67484 19.429 7.27755 19.429 8.98026ZM24.1384 27.4868H27.743V17.2254C27.6074 15.6857 28.3651 12.5888 32.4814 12.5186V9.47822C29.8845 9.45873 24.5802 10.8639 24.1384 16.6407V27.4868ZM43.5859 27.4866C48.5468 27.4866 52.5685 23.4422 52.5685 18.4531C52.5685 13.464 48.5468 9.41955 43.5859 9.41955C38.625 9.41955 34.6034 13.464 34.6034 18.4531C34.6034 23.4422 38.625 27.4866 43.5859 27.4866ZM43.5859 23.9785C46.6202 23.9785 49.08 21.5047 49.08 18.4531C49.08 15.4015 46.6202 12.9277 43.5859 12.9277C40.5515 12.9277 38.0917 15.4015 38.0917 18.4531C38.0917 21.5047 40.5515 23.9785 43.5859 23.9785ZM100.999 18.4531C100.999 23.4422 96.9772 27.4866 92.0162 27.4866C87.0553 27.4866 83.0337 23.4422 83.0337 18.4531C83.0337 13.464 87.0553 9.41955 92.0162 9.41955C96.9772 9.41955 100.999 13.464 100.999 18.4531ZM97.5105 18.4531C97.5105 21.5047 95.0506 23.9785 92.0163 23.9785C88.9819 23.9785 86.5221 21.5047 86.5221 18.4531C86.5221 15.4015 88.9819 12.9277 92.0163 12.9277C95.0506 12.9277 97.5105 15.4015 97.5105 18.4531ZM63.9642 9.06874C59.5973 9.06874 56.0572 12.6088 56.0572 16.9757V27.4866L59.5455 27.4867V17.3463C59.5455 14.906 61.5238 12.9277 63.9641 12.9277C66.4045 12.9277 68.3827 14.906 68.3827 17.3463V27.4867L71.8712 27.4866V16.9757C71.8712 12.6088 68.3311 9.06874 63.9642 9.06874Z" fill="#483D8F"/>
</svg>
