<svg width="133" height="36" viewBox="0 0 133 36" fill="none" xmlns="http://www.w3.org/2000/svg">
<path fill-rule="evenodd" clip-rule="evenodd" d="M13.2334 21.2197C9.94064 20.2547 5.81921 13.5002 11.6852 8.87294C10.9874 5.96354 7.87339 0.328935 1 1.06579L1.82864 6.04395C4.15466 5.86851 8.74565 7.34222 8.50141 14.6406C8.18886 12.9447 6.88338 9.57471 4.16193 9.66243C3.39871 14.6406 4.72024 21.2197 13.2334 21.2197ZM12.5136 8.30278C13.8947 7.39633 17.7036 6.32468 21.8904 9.28964C21.3307 8.51477 19.6225 6.91241 17.2674 6.70188C17.3983 4.94746 16.2469 1.96495 10.5947 4.07025C11.0235 4.50886 12.0077 5.96941 12.5136 8.30278Z" fill="#FF8369"/>
<path d="M11.6852 8.87294L11.9949 9.26551L12.246 9.06739L12.1714 8.75633L11.6852 8.87294ZM13.2334 21.2197V21.7197L13.3741 20.7398L13.2334 21.2197ZM1 1.06579L0.946703 0.568639L0.41977 0.625128L0.506786 1.14789L1 1.06579ZM1.82864 6.04395L1.33543 6.12605L1.41048 6.57691L1.86625 6.54253L1.82864 6.04395ZM8.50141 14.6406L8.00969 14.7312L9.00113 14.6573L8.50141 14.6406ZM4.16193 9.66243L4.14582 9.16269L3.73066 9.17607L3.66771 9.58666L4.16193 9.66243ZM21.8904 9.28964L21.6014 9.69768L22.2957 8.99687L21.8904 9.28964ZM12.5136 8.30278L12.025 8.40873L12.1793 9.12031L12.788 8.72079L12.5136 8.30278ZM17.2674 6.70188L16.7688 6.66469L16.7322 7.15602L17.2229 7.19989L17.2674 6.70188ZM10.5947 4.07025L10.4201 3.6017L9.69963 3.87007L10.2372 4.41981L10.5947 4.07025ZM11.3755 8.48038C8.27087 10.9294 7.78258 13.9919 8.54544 16.562C8.92244 17.8321 9.60195 18.9762 10.406 19.8688C11.2056 20.7564 12.1556 21.4248 13.0928 21.6995L13.3741 20.7398C12.6649 20.532 11.865 19.9943 11.149 19.1995C10.4374 18.4096 9.83581 17.3949 9.5041 16.2774C8.84955 14.0722 9.23353 11.4437 11.9949 9.26551L11.3755 8.48038ZM1.0533 1.56294C4.32624 1.21207 6.67949 2.37234 8.30955 3.96018C9.95537 5.56337 10.8681 7.60992 11.199 8.98956L12.1714 8.75633C11.8045 7.22656 10.8113 5.00111 9.00732 3.24386C7.18758 1.47126 4.54715 0.182657 0.946703 0.568639L1.0533 1.56294ZM2.32186 5.96185L1.49321 0.983692L0.506786 1.14789L1.33543 6.12605L2.32186 5.96185ZM9.00113 14.6573C9.12697 10.8968 8.00533 8.54653 6.46213 7.16684C4.9352 5.80169 3.06415 5.44934 1.79104 5.54536L1.86625 6.54253C2.91916 6.46311 4.50661 6.7599 5.79562 7.91234C7.06836 9.05023 8.12009 11.086 8.00169 14.6239L9.00113 14.6573ZM4.17804 10.1622C5.29652 10.1261 6.16371 10.791 6.82081 11.7627C7.47806 12.7347 7.86232 13.9316 8.00969 14.7312L8.99313 14.55C8.82795 13.6537 8.40319 12.3176 7.6492 11.2026C6.89506 10.0873 5.74879 9.11102 4.14582 9.16269L4.17804 10.1622ZM13.2334 20.7197C9.1263 20.7197 6.849 19.1466 5.65285 17.0592C4.43236 14.9294 4.28333 12.17 4.65616 9.7382L3.66771 9.58666C3.27731 12.133 3.40744 15.1522 4.78521 17.5565C6.18732 20.0032 8.82739 21.7197 13.2334 21.7197V20.7197ZM22.1794 8.88159C17.8091 5.78672 13.7758 6.87633 12.2393 7.88477L12.788 8.72079C14.0137 7.91633 17.5981 6.86263 21.6014 9.69768L22.1794 8.88159ZM17.2229 7.19989C19.3881 7.39345 20.9792 8.88201 21.4851 9.58241L22.2957 8.99687C21.6822 8.14753 19.8569 6.43137 17.312 6.20386L17.2229 7.19989ZM10.7692 4.53881C13.5342 3.50891 15.031 3.78724 15.8082 4.34491C16.5927 4.90785 16.8269 5.88637 16.7688 6.66469L17.7661 6.73906C17.8388 5.76297 17.5627 4.37303 16.3912 3.53243C15.2124 2.68657 13.3073 2.5263 10.4201 3.6017L10.7692 4.53881ZM13.0023 8.19683C12.4798 5.78721 11.4572 4.23717 10.9522 3.72069L10.2372 4.41981C10.5899 4.78055 11.5356 6.1516 12.025 8.40873L13.0023 8.19683Z" fill="#FF8369"/>
<path fill-rule="evenodd" clip-rule="evenodd" d="M95.9704 16.5133H100.153V35.9626H104.911V16.5133H109.247V11.5352H104.911V3.08398H100.153V11.5352H95.9704V16.5133ZM25.3274 11.5342C25.3274 18.7804 19.4863 24.6547 12.2809 24.6547C9.34389 24.6547 6.63359 23.6788 4.45312 22.0317V36.0002H9.09615V26.8929C12.7159 28.8868 21.3829 30.7905 27.0927 22.4551C29.0203 19.2405 30.8805 11.52 23.7752 5.32195C24.7655 7.17115 25.3274 9.28666 25.3274 11.5342ZM31.5437 35.9628H36.3019V22.4178C36.1228 20.3854 37.123 16.2974 42.5565 16.2048V12.1915C39.1286 12.1657 32.127 14.0206 31.5437 21.646V35.9628ZM57.2146 35.9626C63.763 35.9626 69.0715 30.6239 69.0715 24.0383C69.0715 17.4527 63.763 12.114 57.2146 12.114C50.6661 12.114 45.3576 17.4527 45.3576 24.0383C45.3576 30.6239 50.6661 35.9626 57.2146 35.9626ZM57.2145 31.3318C61.2199 31.3318 64.4668 28.0664 64.4668 24.0383C64.4668 20.0102 61.2199 16.7448 57.2145 16.7448C53.2092 16.7448 49.9622 20.0102 49.9622 24.0383C49.9622 28.0664 53.2092 31.3318 57.2145 31.3318ZM133 24.0383C133 30.6239 127.691 35.9626 121.143 35.9626C114.594 35.9626 109.286 30.6239 109.286 24.0383C109.286 17.4527 114.594 12.114 121.143 12.114C127.691 12.114 133 17.4527 133 24.0383ZM128.395 24.0383C128.395 28.0664 125.148 31.3318 121.143 31.3318C117.137 31.3318 113.89 28.0664 113.89 24.0383C113.89 20.0102 117.137 16.7448 121.143 16.7448C125.148 16.7448 128.395 20.0102 128.395 24.0383ZM84.1137 11.651C78.3494 11.651 73.6765 16.3238 73.6765 22.0882V35.9626L78.2811 35.9626V22.5774C78.2811 19.3561 80.8924 16.7448 84.1136 16.7448C87.3349 16.7448 89.9462 19.3562 89.9462 22.5774V35.9626L94.5509 35.9626V22.0882C94.5509 16.3238 89.878 11.651 84.1137 11.651Z" fill="white"/>
</svg>
