<svg width="124" height="34" viewBox="0 0 124 34" fill="none" xmlns="http://www.w3.org/2000/svg">
<g opacity="0.5">
<path fill-rule="evenodd" clip-rule="evenodd" d="M12.3993 20.0642C9.33105 19.1544 5.49063 12.7859 10.9567 8.42306C10.3064 5.67991 7.40475 0.367282 1 1.06203L1.77215 5.75572C3.93957 5.59031 8.21753 6.9798 7.98995 13.8611C7.69871 12.2621 6.48224 9.08473 3.94635 9.16743C3.23516 13.8611 4.46659 20.0642 12.3993 20.0642ZM11.7286 7.88548C13.0155 7.03083 16.5647 6.02041 20.466 8.81594C19.9445 8.08536 18.3528 6.57455 16.1583 6.37605C16.2802 4.72189 15.2073 1.90981 9.94046 3.89481C10.3401 4.30835 11.2572 5.68544 11.7286 7.88548Z" fill="#7A7A7A"/>
<path d="M10.9567 8.42306L11.2686 8.81384L11.5163 8.61613L11.4432 8.30774L10.9567 8.42306ZM12.3993 20.0642V20.5642L12.5415 19.5849L12.3993 20.0642ZM1 1.06203L0.946079 0.564947L0.420878 0.621918L0.506631 1.14319L1 1.06203ZM1.77215 5.75572L1.27878 5.83688L1.35318 6.28915L1.81019 6.25427L1.77215 5.75572ZM7.98995 13.8611L7.49805 13.9507L8.48968 13.8777L7.98995 13.8611ZM3.94635 9.16743L3.93005 8.6677L3.5143 8.68126L3.45199 9.09253L3.94635 9.16743ZM20.466 8.81594L20.1748 9.22237L20.873 8.52544L20.466 8.81594ZM11.7286 7.88548L11.2397 7.99024L11.3935 8.70821L12.0052 8.30199L11.7286 7.88548ZM16.1583 6.37605L15.6596 6.3393L15.6235 6.82972L16.1132 6.87402L16.1583 6.37605ZM9.94046 3.89481L9.76413 3.42693L9.05229 3.69522L9.58091 4.24226L9.94046 3.89481ZM10.6447 8.03228C7.74097 10.35 7.28478 13.2485 7.99785 15.6793C8.35022 16.8805 8.98537 17.9628 9.73738 18.8075C10.4848 19.647 11.3752 20.2821 12.2572 20.5436L12.5415 19.5849C11.8894 19.3915 11.1491 18.8893 10.4843 18.1425C9.82406 17.4009 9.26543 16.4478 8.95741 15.3978C8.3497 13.3262 8.70631 10.859 11.2686 8.81384L10.6447 8.03228ZM1.05392 1.55911C4.09022 1.22975 6.27231 2.31819 7.78528 3.80943C9.31407 5.31626 10.1626 7.24093 10.4701 8.53839L11.4432 8.30774C11.1005 6.86204 10.173 4.75881 8.48725 3.09723C6.78564 1.42006 4.31453 0.199558 0.946079 0.564947L1.05392 1.55911ZM2.26551 5.67456L1.49337 0.980868L0.506631 1.14319L1.27878 5.83688L2.26551 5.67456ZM8.48968 13.8777C8.60709 10.3276 7.56078 8.10337 6.11461 6.79511C4.68379 5.50073 2.92966 5.16593 1.7341 5.25717L1.81019 6.25427C2.78206 6.1801 4.25062 6.45734 5.44375 7.53669C6.62152 8.60215 7.6004 10.5133 7.49023 13.8446L8.48968 13.8777ZM3.96265 9.66717C4.98539 9.63381 5.78389 10.2482 6.39418 11.1614C7.004 12.074 7.36111 13.1989 7.49805 13.9507L8.48186 13.7715C8.32755 12.9243 7.9308 11.6611 7.22561 10.6058C6.52087 9.55126 5.44319 8.61835 3.93005 8.6677L3.96265 9.66717ZM12.3993 19.5642C8.58522 19.5642 6.4753 18.0875 5.36644 16.1296C4.23311 14.1284 4.09366 11.5327 4.4407 9.24234L3.45199 9.09253C3.08784 11.4958 3.20852 14.3485 4.4963 16.6224C5.80854 18.9394 8.28072 20.5642 12.3993 20.5642V19.5642ZM20.7573 8.40951C16.6714 5.48176 12.8952 6.51048 11.452 7.46896L12.0052 8.30199C13.1358 7.55117 16.4579 6.55905 20.1748 9.22237L20.7573 8.40951ZM16.1132 6.87402C18.1157 7.05515 19.5903 8.4498 20.0591 9.10645L20.873 8.52544C20.2987 7.72091 18.5899 6.09396 16.2033 5.87809L16.1132 6.87402ZM10.1168 4.36268C12.6884 3.39348 14.067 3.66032 14.7764 4.17535C15.4954 4.69736 15.7135 5.60884 15.6596 6.3393L16.6569 6.41281C16.725 5.4891 16.4676 4.16746 15.3639 3.36614C14.2506 2.55785 12.4594 2.41114 9.76413 3.42693L10.1168 4.36268ZM12.2175 7.78072C11.7299 5.5054 10.7752 4.03906 10.3 3.54736L9.58091 4.24226C9.905 4.57764 10.7844 5.86548 11.2397 7.99024L12.2175 7.78072Z" fill="#7A7A7A"/>
<path fill-rule="evenodd" clip-rule="evenodd" d="M89.4952 15.6266H93.3926V33.9645H97.8263V15.6266H101.867V10.933H97.8263V2.96472H93.3926V10.933H89.4952V15.6266ZM23.6688 10.932C23.6688 17.7642 18.2259 23.3028 11.5118 23.3028C8.77507 23.3028 6.24956 22.3826 4.21777 20.8297V34H8.54423V25.4132C11.9172 27.293 19.9932 29.088 25.3137 21.2289C27.1099 18.198 28.8433 10.9187 22.2224 5.07476C23.1452 6.8183 23.6688 8.81294 23.6688 10.932ZM29.4613 33.9648H33.895V21.1937C33.7281 19.2775 34.6602 15.4231 39.7232 15.3358V11.5518C36.529 11.5275 30.0048 13.2764 29.4613 20.466V33.9648ZM53.3818 33.9645C59.4837 33.9645 64.4304 28.9309 64.4304 22.7216C64.4304 16.5124 59.4837 11.4788 53.3818 11.4788C47.2799 11.4788 42.3333 16.5124 42.3333 22.7216C42.3333 28.9309 47.2799 33.9645 53.3818 33.9645ZM53.3818 29.5984C57.114 29.5984 60.1396 26.5195 60.1396 22.7216C60.1396 18.9237 57.114 15.8449 53.3818 15.8449C49.6495 15.8449 46.6239 18.9237 46.6239 22.7216C46.6239 26.5195 49.6495 29.5984 53.3818 29.5984ZM124 22.7216C124 28.9309 119.053 33.9645 112.951 33.9645C106.849 33.9645 101.903 28.9309 101.903 22.7216C101.903 16.5124 106.849 11.4788 112.951 11.4788C119.053 11.4788 124 16.5124 124 22.7216ZM119.709 22.7216C119.709 26.5195 116.683 29.5984 112.951 29.5984C109.219 29.5984 106.193 26.5195 106.193 22.7216C106.193 18.9237 109.219 15.8449 112.951 15.8449C116.683 15.8449 119.709 18.9237 119.709 22.7216ZM78.447 11.0421C73.0757 11.0421 68.7214 15.3964 68.7214 20.7677V33.9645L73.012 33.9646V21.2798C73.012 18.2782 75.4453 15.8449 78.4469 15.8449C81.4485 15.8449 83.8818 18.2782 83.8818 21.2798V33.9646L88.1726 33.9645V20.7677C88.1726 15.3964 83.8183 11.0421 78.447 11.0421Z" fill="#BABCBE"/>
</g>
</svg>
