<svg width="15" height="14" viewBox="0 0 15 14" fill="none" xmlns="http://www.w3.org/2000/svg">
<path d="M0.825413 10.1808C0.374187 10.1808 0 9.80661 0 9.35538V4.63401C0 4.18278 0.374187 3.80859 0.825413 3.80859C1.27664 3.80859 1.65083 4.18278 1.65083 4.63401V9.35538C1.65083 9.81761 1.27664 10.1808 0.825413 10.1808Z" fill="#FF8369"/>
<path d="M4.12717 11.7544C3.67595 11.7544 3.30176 11.3802 3.30176 10.929V3.07102C3.30176 2.61979 3.67595 2.24561 4.12717 2.24561C4.5784 2.24561 4.95258 2.61979 4.95258 3.07102V10.929C4.95258 11.3912 4.5784 11.7544 4.12717 11.7544Z" fill="#FF8369"/>
<path d="M7.42893 13.3282C6.9777 13.3282 6.60352 12.954 6.60352 12.5028V1.49729C6.60352 1.04606 6.9777 0.671875 7.42893 0.671875C7.88015 0.671875 8.25434 1.04606 8.25434 1.49729V12.5028C8.25434 12.954 7.88015 13.3282 7.42893 13.3282Z" fill="#FF8369"/>
<path d="M10.7307 11.7544C10.2795 11.7544 9.90527 11.3802 9.90527 10.929V3.07102C9.90527 2.61979 10.2795 2.24561 10.7307 2.24561C11.1819 2.24561 11.5561 2.61979 11.5561 3.07102V10.929C11.5561 11.3912 11.1819 11.7544 10.7307 11.7544Z" fill="#FF8369"/>
<path d="M14.0324 10.1808C13.5812 10.1808 13.207 9.80661 13.207 9.35538V4.63401C13.207 4.18278 13.5812 3.80859 14.0324 3.80859C14.4837 3.80859 14.8579 4.18278 14.8579 4.63401V9.35538C14.8579 9.81761 14.4837 10.1808 14.0324 10.1808Z" fill="#FF8369"/>
</svg>
