<svg width="16" height="16" viewBox="0 0 16 16" fill="none" xmlns="http://www.w3.org/2000/svg">
<path fill-rule="evenodd" clip-rule="evenodd" d="M3.78009 4.84882C3.78009 7.15507 5.67308 9.03129 7.99993 9.03129C10.3268 9.03129 12.2198 7.15507 12.2198 4.84882C12.2198 2.54291 10.3268 0.666687 7.99993 0.666687C5.67308 0.666687 3.78009 2.54291 3.78009 4.84882ZM4.92681 4.84882C4.92681 3.16974 6.30551 1.80324 7.99993 1.80324C9.69435 1.80324 11.0731 3.16941 11.0731 4.84882C11.0731 6.52824 9.69435 7.89473 7.99993 7.89473C6.30551 7.89473 4.92681 6.52824 4.92681 4.84882ZM1.04619 15.2992C1.11006 15.3225 1.17559 15.3334 1.24012 15.3334C1.47509 15.3334 1.6955 15.1887 1.77989 14.9568C2.72042 12.3649 5.22036 10.6228 8.00027 10.6228C10.7802 10.6228 13.2795 12.3649 14.22 14.9568C14.3272 15.252 14.6562 15.4055 14.954 15.2992C15.2515 15.1933 15.4064 14.8676 15.2995 14.5724C14.1955 11.5301 11.2624 9.48623 8.00027 9.48623C4.73784 9.48623 1.80437 11.5304 0.700684 14.5724C0.593459 14.8679 0.748339 15.1933 1.04619 15.2992Z" fill="#FF8369"/>
</svg>
