<svg width="16" height="16" viewBox="0 0 16 16" fill="none" xmlns="http://www.w3.org/2000/svg">
<path fill-rule="evenodd" clip-rule="evenodd" d="M12.0112 1.83332C11.5451 1.83447 11.1667 2.21339 11.1667 2.67331V6.83331H12.9467C13.3663 6.83331 13.6602 6.70267 13.8481 6.51476C14.036 6.32684 14.1667 6.03293 14.1667 5.61331V3.99998C14.1667 3.40642 13.9245 2.86432 13.5319 2.46566C13.1439 2.07826 12.6035 1.83939 12.0112 1.83332ZM10.1667 2.67331C10.1667 1.65394 11.0005 0.833313 12.0134 0.833313H12.018L12.018 0.833334C12.8774 0.841219 13.6689 1.18841 14.2403 1.75976L14.2427 1.7622L14.2427 1.76221C14.8094 2.33677 15.1667 3.12749 15.1667 3.99998V5.61331C15.1667 6.24703 14.964 6.81312 14.5552 7.22187C14.1465 7.63062 13.5804 7.83331 12.9467 7.83331H10.6667C10.3905 7.83331 10.1667 7.60946 10.1667 7.33331V2.67331Z" fill="#7A7A7A"/>
<path fill-rule="evenodd" clip-rule="evenodd" d="M1.53822 1.78735C2.07474 1.16606 2.89762 0.833313 3.99998 0.833313H12C12.2761 0.833313 12.5 1.05717 12.5 1.33331C12.5 1.60946 12.2761 1.83331 12 1.83331C11.5428 1.83331 11.1666 2.20946 11.1666 2.66665V14C11.1666 14.9611 10.069 15.5042 9.30195 14.9348L9.30037 14.9336L8.1551 14.0763C8.09762 14.0321 8.00573 14.0347 7.94688 14.0935L6.82688 15.2135C6.37162 15.6688 5.62834 15.6688 5.17308 15.2135L5.17202 15.2125L4.06643 14.1002C4.06632 14.1001 4.06653 14.1003 4.06643 14.1002C4.00027 14.0343 3.9051 14.0311 3.83998 14.08L2.70189 14.9319C2.70145 14.9322 2.701 14.9325 2.70055 14.9329C1.92842 15.5162 0.833313 14.9623 0.833313 14V3.99998C0.833313 3.19807 1.01353 2.39494 1.53822 1.78735ZM10.3678 1.83331H3.99998C3.10234 1.83331 2.59188 2.09723 2.29507 2.44094C1.98642 2.79835 1.83331 3.32856 1.83331 3.99998V14C1.83331 14.1438 1.99023 14.2164 2.09803 14.1348L2.10034 14.133L3.23998 13.28C3.70809 12.9289 4.35971 12.9793 4.77354 13.3931L4.7746 13.3942L5.88019 14.5064C5.88029 14.5065 5.88008 14.5063 5.88019 14.5064C5.94496 14.5709 6.05514 14.5711 6.11977 14.5064L7.23977 13.3864C7.64671 12.9795 8.29949 12.9281 8.76183 13.2814L9.89805 14.1319C9.89823 14.132 9.89842 14.1321 9.8986 14.1323C10.0115 14.2155 10.1666 14.1319 10.1666 14V2.66665C10.1666 2.36694 10.2393 2.08359 10.3678 1.83331Z" fill="#7A7A7A"/>
<path fill-rule="evenodd" clip-rule="evenodd" d="M3.5 6C3.5 5.72386 3.72386 5.5 4 5.5H8C8.27614 5.5 8.5 5.72386 8.5 6C8.5 6.27614 8.27614 6.5 8 6.5H4C3.72386 6.5 3.5 6.27614 3.5 6Z" fill="#7A7A7A"/>
<path fill-rule="evenodd" clip-rule="evenodd" d="M4 8.66669C4 8.39054 4.22386 8.16669 4.5 8.16669H7.5C7.77614 8.16669 8 8.39054 8 8.66669C8 8.94283 7.77614 9.16669 7.5 9.16669H4.5C4.22386 9.16669 4 8.94283 4 8.66669Z" fill="#7A7A7A"/>
</svg>
