<svg width="31" height="29" viewBox="0 0 31 29" fill="none" xmlns="http://www.w3.org/2000/svg">
<g filter="url(#filter0_d)">
<mask id="path-1-inside-1" fill="white">
<path fill-rule="evenodd" clip-rule="evenodd" d="M26.9596 8.29749C26.9544 9.49419 26.9425 11.1225 26.9306 12.7509C26.9148 14.9174 26.899 17.084 26.899 18.2338C26.899 19.6721 25.9171 20.697 24.5343 20.6976C18.4816 20.7005 12.4288 20.7005 6.37602 20.6976C5.15993 20.6976 4.26475 19.9266 4.03767 18.7031C4.02855 18.6748 4.01587 18.6479 4 18.623L4.05983 7.09849C4.06005 7.09872 4.06028 7.09894 4.0605 7.09917L4.05963 6.50435C4.06759 6.49425 4.07519 6.29459 4.08172 6.12289C4.08655 5.99626 4.09079 5.88483 4.09417 5.87587C4.35531 4.57226 5.21404 3.84967 6.49587 3.84905H11.2766V3.57219V1.87627C11.2831 0.766965 12.0116 0.00589726 13.0759 0.00279344C14.7014 -0.000931147 16.3266 -0.000931147 17.9516 0.00279344C19.016 0.00589726 19.7444 0.76633 19.751 1.87688C19.7538 2.25885 19.7528 2.64083 19.7519 3.02281C19.7514 3.21379 19.751 3.40478 19.751 3.59577C19.751 3.64723 19.7539 3.69844 19.7569 3.75223C19.7586 3.78345 19.7604 3.81554 19.7617 3.84905H20.0563C20.5657 3.84905 21.0751 3.84863 21.5845 3.84822C22.6034 3.84739 23.6223 3.84656 24.641 3.84905C25.755 3.85277 26.7326 4.60452 26.8862 5.71756C26.9934 6.47559 27.0382 7.35247 26.9622 8.28101C26.9613 8.28651 26.9605 8.292 26.9596 8.29749ZM18.2917 1.86882V3.84099L12.7383 3.84905C12.7326 3.81842 12.7346 3.78479 12.7367 3.75151C12.7381 3.72822 12.7395 3.7051 12.7383 3.68331V1.87254C12.7389 1.59817 12.819 1.51685 13.0879 1.51685H17.9379C18.2098 1.51685 18.2917 1.59754 18.2917 1.86882Z"/>
</mask>
<path fill-rule="evenodd" clip-rule="evenodd" d="M26.9596 8.29749C26.9544 9.49419 26.9425 11.1225 26.9306 12.7509C26.9148 14.9174 26.899 17.084 26.899 18.2338C26.899 19.6721 25.9171 20.697 24.5343 20.6976C18.4816 20.7005 12.4288 20.7005 6.37602 20.6976C5.15993 20.6976 4.26475 19.9266 4.03767 18.7031C4.02855 18.6748 4.01587 18.6479 4 18.623L4.05983 7.09849C4.06005 7.09872 4.06028 7.09894 4.0605 7.09917L4.05963 6.50435C4.06759 6.49425 4.07519 6.29459 4.08172 6.12289C4.08655 5.99626 4.09079 5.88483 4.09417 5.87587C4.35531 4.57226 5.21404 3.84967 6.49587 3.84905H11.2766V3.57219V1.87627C11.2831 0.766965 12.0116 0.00589726 13.0759 0.00279344C14.7014 -0.000931147 16.3266 -0.000931147 17.9516 0.00279344C19.016 0.00589726 19.7444 0.76633 19.751 1.87688C19.7538 2.25885 19.7528 2.64083 19.7519 3.02281C19.7514 3.21379 19.751 3.40478 19.751 3.59577C19.751 3.64723 19.7539 3.69844 19.7569 3.75223C19.7586 3.78345 19.7604 3.81554 19.7617 3.84905H20.0563C20.5657 3.84905 21.0751 3.84863 21.5845 3.84822C22.6034 3.84739 23.6223 3.84656 24.641 3.84905C25.755 3.85277 26.7326 4.60452 26.8862 5.71756C26.9934 6.47559 27.0382 7.35247 26.9622 8.28101C26.9613 8.28651 26.9605 8.292 26.9596 8.29749ZM18.2917 1.86882V3.84099L12.7383 3.84905C12.7326 3.81842 12.7346 3.78479 12.7367 3.75151C12.7381 3.72822 12.7395 3.7051 12.7383 3.68331V1.87254C12.7389 1.59817 12.819 1.51685 13.0879 1.51685H17.9379C18.2098 1.51685 18.2917 1.59754 18.2917 1.86882Z" fill="white"/>
<path d="M26.9596 8.29749L26.4657 8.21967L26.4598 8.25726L26.4596 8.29532L26.9596 8.29749ZM26.9306 12.7509L26.4307 12.7472V12.7472L26.9306 12.7509ZM24.5343 20.6976L24.5341 20.1976H24.5341L24.5343 20.6976ZM6.37602 20.6976L6.37626 20.1976H6.37602V20.6976ZM4.03767 18.7031L4.52927 18.6119L4.52341 18.5803L4.51354 18.5497L4.03767 18.7031ZM4 18.623L3.50001 18.6204L3.49924 18.7678L3.57852 18.892L4 18.623ZM4.05983 7.09849L4.41437 6.74593L3.56608 5.89288L3.55984 7.09589L4.05983 7.09849ZM4.0605 7.09917L3.70592 7.45169L4.56227 8.31304L4.5605 7.09844L4.0605 7.09917ZM4.05963 6.50435L3.66681 6.19501L3.55938 6.33144L3.55963 6.50508L4.05963 6.50435ZM4.08172 6.12289L3.58209 6.10387L4.08172 6.12289ZM4.09417 5.87587L4.56204 6.05221L4.57642 6.01406L4.58443 5.97408L4.09417 5.87587ZM6.49587 3.84905V3.34905H6.49563L6.49587 3.84905ZM11.2766 3.84905V4.34905H11.7766V3.84905H11.2766ZM11.2766 1.87627L10.7766 1.87331V1.87627H11.2766ZM13.0759 0.00279344L13.0748 -0.497205L13.0745 -0.497204L13.0759 0.00279344ZM17.9516 0.00279344L17.9531 -0.497205L17.9528 -0.497205L17.9516 0.00279344ZM19.751 1.87688L19.251 1.87984L19.251 1.88053L19.751 1.87688ZM19.7519 3.02281L19.2519 3.02159V3.02159L19.7519 3.02281ZM19.7569 3.75223L19.2577 3.78026L19.2577 3.78026L19.7569 3.75223ZM19.7617 3.84905L19.2621 3.86868L19.281 4.34905H19.7617V3.84905ZM21.5845 3.84822L21.5841 3.34822L21.5845 3.84822ZM24.641 3.84905L24.6427 3.34905L24.6423 3.34905L24.641 3.84905ZM26.8862 5.71756L26.3909 5.7859L26.3911 5.78756L26.8862 5.71756ZM26.9622 8.28101L27.4564 8.35688L27.4591 8.33941L27.4605 8.3218L26.9622 8.28101ZM18.2917 3.84099L18.2924 4.34098L18.7917 4.34026V3.84099H18.2917ZM12.7383 3.84905L12.2467 3.94041L12.3227 4.34965L12.739 4.34905L12.7383 3.84905ZM12.7367 3.75151L13.2357 3.78213V3.78212L12.7367 3.75151ZM12.7383 3.68331H12.2383V3.69774L12.2391 3.71214L12.7383 3.68331ZM12.7383 1.87254L12.2383 1.87146V1.87254H12.7383ZM26.4596 8.29532C26.4545 9.49111 26.4426 11.1186 26.4307 12.7472L27.4306 12.7545C27.4425 11.1265 27.4544 9.49727 27.4596 8.29965L26.4596 8.29532ZM26.4307 12.7472C26.4148 14.9127 26.399 17.0816 26.399 18.2338H27.399C27.399 17.0863 27.4148 14.9222 27.4306 12.7545L26.4307 12.7472ZM26.399 18.2338C26.399 19.4157 25.6217 20.1971 24.5341 20.1976L24.5345 21.1976C26.2126 21.1969 27.399 19.9286 27.399 18.2338H26.399ZM24.5341 20.1976C18.4815 20.2005 12.4289 20.2005 6.37626 20.1976L6.37579 21.1976C12.4287 21.2005 18.4816 21.2005 24.5346 21.1976L24.5341 20.1976ZM6.37602 20.1976C5.41283 20.1976 4.71461 19.6104 4.52927 18.6119L3.54607 18.7944C3.8149 20.2428 4.90704 21.1976 6.37602 21.1976V20.1976ZM4.51354 18.5497C4.49134 18.4808 4.46041 18.415 4.42148 18.354L3.57852 18.892C3.57133 18.8808 3.56576 18.8688 3.5618 18.8566L4.51354 18.5497ZM4.49999 18.6256L4.55982 7.10109L3.55984 7.09589L3.50001 18.6204L4.49999 18.6256ZM3.70529 7.45105C3.7055 7.45126 3.70571 7.45148 3.70592 7.45169L4.41508 6.74664C4.41485 6.74641 4.41461 6.74617 4.41437 6.74593L3.70529 7.45105ZM4.5605 7.09844L4.55963 6.50362L3.55963 6.50508L3.5605 7.0999L4.5605 7.09844ZM4.45246 6.81369C4.50221 6.7505 4.52414 6.69054 4.53009 6.67425C4.5392 6.64927 4.54455 6.62848 4.54731 6.61697C4.55293 6.59356 4.55598 6.5738 4.55741 6.56395C4.56053 6.54243 4.56249 6.52151 4.56374 6.50684C4.5664 6.47541 4.56864 6.43737 4.57056 6.39974C4.57447 6.32316 4.57813 6.22671 4.58136 6.14191L3.58209 6.10387C3.57878 6.19078 3.57537 6.28001 3.57186 6.34871C3.57007 6.38371 3.56851 6.40821 3.56731 6.42243C3.56662 6.43057 3.56663 6.42826 3.56779 6.42025C3.56824 6.41716 3.57029 6.4029 3.57493 6.3836C3.57719 6.37416 3.58205 6.35508 3.59067 6.33146C3.5951 6.31933 3.60208 6.30168 3.61231 6.2811C3.6219 6.26182 3.63919 6.23009 3.66681 6.19501L4.45246 6.81369ZM4.58136 6.14191C4.5838 6.07778 4.58598 6.02071 4.58795 5.9785C4.58895 5.95701 4.58974 5.94286 4.59028 5.93499C4.59059 5.93054 4.59053 5.93233 4.58997 5.93758C4.58971 5.9399 4.58883 5.94797 4.58704 5.95898C4.58614 5.96453 4.58444 5.97433 4.5817 5.98656C4.58028 5.99285 4.57824 6.00135 4.57544 6.01136C4.57275 6.02095 4.56844 6.03523 4.56204 6.05221L3.6263 5.69952C3.60682 5.7512 3.60041 5.796 3.60001 5.79847C3.59778 5.81217 3.59645 5.82367 3.59575 5.83014C3.59429 5.8437 3.59331 5.85665 3.59267 5.86588C3.59132 5.88539 3.59011 5.90869 3.58903 5.93201C3.58682 5.97941 3.58447 6.04137 3.58209 6.10387L4.58136 6.14191ZM4.58443 5.97408C4.69767 5.40879 4.93084 5.01222 5.23459 4.75608C5.53689 4.50116 5.95165 4.34931 6.49611 4.34905L6.49563 3.34905C5.75827 3.34941 5.10275 3.55917 4.58994 3.9916C4.07858 4.42281 3.75181 5.03934 3.60391 5.77766L4.58443 5.97408ZM6.49587 4.34905H11.2766V3.34905H6.49587V4.34905ZM11.7766 3.84905V3.57219H10.7766V3.84905H11.7766ZM11.7766 3.57219V1.87627H10.7766V3.57219H11.7766ZM11.7766 1.87923C11.7792 1.43459 11.9248 1.09561 12.1404 0.870878C12.3543 0.647933 12.6687 0.503983 13.0774 0.502791L13.0745 -0.497204C12.4188 -0.495292 11.8369 -0.257157 11.4188 0.178535C11.0025 0.612437 10.7805 1.20865 10.7766 1.87331L11.7766 1.87923ZM13.0771 0.502792C14.7018 0.499069 16.3262 0.499069 17.9505 0.502792L17.9528 -0.497205C16.327 -0.500932 14.701 -0.500932 13.0748 -0.497205L13.0771 0.502792ZM17.9502 0.502791C18.359 0.503983 18.6733 0.647852 18.8872 0.870714C19.1027 1.09536 19.2484 1.43444 19.251 1.87984L20.251 1.87392C20.247 1.20877 20.0251 0.612357 19.6087 0.178375C19.1906 -0.257393 18.6086 -0.495293 17.9531 -0.497204L17.9502 0.502791ZM19.251 1.88053C19.2538 2.25967 19.2528 2.63921 19.2519 3.02159L20.2519 3.02402C20.2528 2.64245 20.2538 2.25804 20.251 1.87323L19.251 1.88053ZM19.2519 3.02159C19.2514 3.21248 19.251 3.40407 19.251 3.59577H20.251C20.251 3.40549 20.2514 3.21511 20.2519 3.02402L19.2519 3.02159ZM19.251 3.59577C19.251 3.66364 19.2548 3.72895 19.2577 3.78026L20.2561 3.7242C20.2529 3.66793 20.251 3.63082 20.251 3.59577H19.251ZM19.2577 3.78026C19.2594 3.81201 19.261 3.84002 19.2621 3.86868L20.2614 3.82941C20.2599 3.79106 20.2578 3.75489 20.2561 3.7242L19.2577 3.78026ZM19.7617 4.34905H20.0563V3.34905H19.7617V4.34905ZM20.0563 4.34905C20.5659 4.34905 21.0755 4.34863 21.5849 4.34822L21.5841 3.34822C21.0746 3.34863 20.5654 3.34905 20.0563 3.34905V4.34905ZM21.5849 4.34822C22.6039 4.34739 23.6221 4.34657 24.6398 4.34905L24.6423 3.34905C23.6226 3.34656 22.6028 3.34739 21.5841 3.34822L21.5849 4.34822ZM24.6394 4.34905C25.5365 4.35205 26.2756 4.95035 26.3909 5.7859L27.3815 5.64921C27.1896 4.2587 25.9734 3.3535 24.6427 3.34905L24.6394 4.34905ZM26.3911 5.78756C26.4936 6.5128 26.5365 7.35235 26.4639 8.24021L27.4605 8.3218C27.5399 7.3526 27.4931 6.43839 27.3813 5.64755L26.3911 5.78756ZM26.468 8.20513C26.4672 8.20989 26.4665 8.21472 26.4657 8.21967L27.4535 8.37531C27.4545 8.36929 27.4554 8.36314 27.4564 8.35688L26.468 8.20513ZM18.7917 3.84099V1.86882H17.7917V3.84099H18.7917ZM12.739 4.34905L18.2924 4.34098L18.2909 3.34099L12.7375 3.34905L12.739 4.34905ZM12.2376 3.72089C12.2364 3.74008 12.2277 3.83805 12.2467 3.94041L13.2299 3.75769C13.2324 3.77136 13.2335 3.78233 13.234 3.78962C13.2346 3.79688 13.2346 3.80168 13.2346 3.80308C13.2346 3.80444 13.2345 3.80383 13.2347 3.80001C13.2349 3.79584 13.2352 3.79105 13.2357 3.78213L12.2376 3.72089ZM12.2391 3.71214C12.2386 3.70282 12.2388 3.69787 12.2388 3.7004C12.2387 3.70142 12.2386 3.70341 12.2385 3.70697C12.2382 3.71071 12.238 3.71478 12.2376 3.7209L13.2357 3.78212C13.2368 3.7652 13.2407 3.7114 13.2374 3.65448L12.2391 3.71214ZM12.2383 1.87254V3.68331H13.2383V1.87254H12.2383ZM13.0879 1.01685C12.9371 1.01685 12.6625 1.03113 12.4559 1.24126C12.2523 1.44835 12.2386 1.72092 12.2383 1.87146L13.2383 1.87363C13.2384 1.82462 13.2425 1.81433 13.2398 1.82486C13.2359 1.8403 13.2194 1.89111 13.169 1.94235C13.1181 1.99414 13.066 2.01243 13.0469 2.01743C13.0336 2.02094 13.041 2.01685 13.0879 2.01685V1.01685ZM17.9379 1.01685H13.0879V2.01685H17.9379V1.01685ZM18.7917 1.86882C18.7917 1.71701 18.7773 1.44309 18.5691 1.23634C18.3619 1.0306 18.0888 1.01685 17.9379 1.01685V2.01685C17.9859 2.01685 17.995 2.02093 17.9834 2.01795C17.9666 2.01363 17.9155 1.99657 17.8644 1.94586C17.8132 1.89499 17.7955 1.84345 17.7908 1.82557C17.7876 1.81307 17.7917 1.82142 17.7917 1.86882H18.7917Z" fill="#BABCBE" mask="url(#path-1-inside-1)"/>
</g>
<path d="M9.7251 9.46094H12.4578C13.0651 9.46094 13.5261 9.62472 13.8408 9.95228C14.1555 10.2798 14.3128 10.7345 14.3128 11.3162C14.3128 11.8979 14.1472 12.3582 13.8159 12.697C13.4902 13.0302 13.0182 13.1968 12.3999 13.1968H10.7851V15.2723H9.7251V9.46094ZM12.3668 12.2734C12.6428 12.2734 12.8581 12.1887 13.0127 12.0193C13.1673 11.8499 13.2446 11.6155 13.2446 11.3162C13.2446 11.0225 13.17 10.7938 13.021 10.63C12.8719 10.4662 12.6538 10.3843 12.3668 10.3843H10.7851V12.2734H12.3668Z" fill="#FF8369"/>
<path d="M15.2402 10.8164H16.06L16.1511 11.5195H16.2091C16.4079 10.983 16.7336 10.7147 17.1863 10.7147C17.3409 10.7147 17.4789 10.7401 17.6003 10.7909V11.7482H17.2856C16.5845 11.7482 16.234 12.1492 16.234 12.9512V15.2723H15.2402V10.8164Z" fill="#FF8369"/>
<path d="M20.1767 15.374C19.459 15.374 18.9207 15.1848 18.5619 14.8064C18.2086 14.428 18.0319 13.8407 18.0319 13.0443C18.0319 12.248 18.2086 11.6607 18.5619 11.2823C18.9207 10.9039 19.459 10.7147 20.1767 10.7147C20.8944 10.7147 21.4299 10.9039 21.7832 11.2823C22.1421 11.6607 22.3215 12.248 22.3215 13.0443C22.3215 13.8407 22.1421 14.428 21.7832 14.8064C21.4299 15.1848 20.8944 15.374 20.1767 15.374ZM20.1767 14.5438C20.5687 14.5438 20.853 14.428 21.0297 14.1965C21.2063 13.9593 21.2947 13.595 21.2947 13.1036V12.985C21.2947 12.4937 21.2063 12.1323 21.0297 11.9007C20.853 11.6635 20.5687 11.5449 20.1767 11.5449C19.7792 11.5449 19.4921 11.6635 19.3155 11.9007C19.1443 12.1323 19.0588 12.4937 19.0588 12.985V13.1036C19.0588 13.595 19.1443 13.9593 19.3155 14.1965C19.4921 14.428 19.7792 14.5438 20.1767 14.5438Z" fill="#FF8369"/>
<defs>
<filter id="filter0_d" x="0" y="0" width="31.0001" height="28.6998" filterUnits="userSpaceOnUse" color-interpolation-filters="sRGB">
<feFlood flood-opacity="0" result="BackgroundImageFix"/>
<feColorMatrix in="SourceAlpha" type="matrix" values="0 0 0 0 0 0 0 0 0 0 0 0 0 0 0 0 0 0 127 0" result="hardAlpha"/>
<feOffset dy="4"/>
<feGaussianBlur stdDeviation="2"/>
<feComposite in2="hardAlpha" operator="out"/>
<feColorMatrix type="matrix" values="0 0 0 0 0 0 0 0 0 0 0 0 0 0 0 0 0 0 0.08 0"/>
<feBlend mode="normal" in2="BackgroundImageFix" result="effect1_dropShadow"/>
<feBlend mode="normal" in="SourceGraphic" in2="effect1_dropShadow" result="shape"/>
</filter>
</defs>
</svg>
