<svg width="23" height="23" viewBox="0 0 23 23" fill="none" xmlns="http://www.w3.org/2000/svg">
<g clip-path="url(#clip0)">
<g filter="url(#filter0_d)">
<mask id="path-1-inside-1" fill="white">
<path fill-rule="evenodd" clip-rule="evenodd" d="M0.00195312 6.72896V8.40105C0.0140818 8.46405 0.0250252 8.52751 0.0359616 8.59093C0.0580346 8.71894 0.080079 8.84678 0.111782 8.9703C0.474861 10.3551 1.33365 11.2901 2.69234 11.7C4.73869 12.3175 6.79223 12.9126 8.84544 13.5076C9.37723 13.6617 9.909 13.8158 10.4406 13.9703C11.249 14.2057 12.052 14.1363 12.8513 13.9003C13.7821 13.6259 14.7134 13.3538 15.6447 13.0817C17.1677 12.6368 18.6906 12.1919 20.2107 11.7368C21.7027 11.2901 22.6683 10.2995 22.9156 8.74089C23.0288 8.0046 23.0316 7.25541 22.9239 6.51827C22.7697 5.43593 21.7879 4.70491 20.6693 4.70129C19.6462 4.69887 18.6229 4.69968 17.5997 4.70048C17.0881 4.70089 16.5765 4.70129 16.065 4.70129H15.7692C15.7679 4.6687 15.7661 4.6375 15.7643 4.60714C15.7613 4.55483 15.7584 4.50503 15.7584 4.455C15.7584 4.26927 15.7588 4.08355 15.7593 3.89783C15.7602 3.52639 15.7612 3.15494 15.7584 2.7835C15.7518 1.70357 15.0202 0.964109 13.9514 0.96109C12.3194 0.957469 10.6873 0.957469 9.05493 0.96109C7.9861 0.964109 7.25452 1.70419 7.24792 2.78291V4.43206V4.70129H2.44687C1.15959 4.70189 0.297206 5.40456 0.0349486 6.67222C0.0269571 6.69275 0.0158316 6.71189 0.00195312 6.72896ZM14.2929 2.77566V4.69345H8.73506C8.72534 4.64282 8.71891 4.59159 8.71583 4.54012V2.77928C8.71643 2.51247 8.79686 2.4334 9.06692 2.4334H13.9376C14.2106 2.4334 14.2929 2.51186 14.2929 2.77566ZM2.32973 13.1366C1.43373 12.8753 0.668562 12.3935 0.0018168 11.7446L0 19.0651C0.015937 19.0892 0.0286707 19.1154 0.0378305 19.1429C0.26588 20.3327 1.16487 21.0824 2.38613 21.0824C8.46465 21.0853 14.5432 21.0853 20.6217 21.0824C22.0104 21.0818 22.9964 20.0852 22.9964 18.6866V11.9776C22.9964 11.9352 22.9931 11.8924 22.9891 11.8406C22.9872 11.8158 22.9851 11.789 22.9832 11.7591C22.969 11.7712 22.9559 11.7821 22.9439 11.7922C22.902 11.8273 22.8718 11.8527 22.8434 11.8799C22.2757 12.4429 21.5794 12.8575 20.8155 13.0872C19.4977 13.4772 18.1783 13.8618 16.8588 14.2465C15.6233 14.6067 14.3879 14.9669 13.1537 15.3315C12.0887 15.6601 10.9507 15.6639 9.88354 15.3424C8.77541 15.0115 7.66405 14.6905 6.55252 14.3693C6.00503 14.2112 5.45749 14.053 4.91029 13.8936C4.0505 13.6409 3.19031 13.3886 2.32973 13.1366Z"/>
</mask>
<path fill-rule="evenodd" clip-rule="evenodd" d="M0.00195312 6.72896V8.40105C0.0140818 8.46405 0.0250252 8.52751 0.0359616 8.59093C0.0580346 8.71894 0.080079 8.84678 0.111782 8.9703C0.474861 10.3551 1.33365 11.2901 2.69234 11.7C4.73869 12.3175 6.79223 12.9126 8.84544 13.5076C9.37723 13.6617 9.909 13.8158 10.4406 13.9703C11.249 14.2057 12.052 14.1363 12.8513 13.9003C13.7821 13.6259 14.7134 13.3538 15.6447 13.0817C17.1677 12.6368 18.6906 12.1919 20.2107 11.7368C21.7027 11.2901 22.6683 10.2995 22.9156 8.74089C23.0288 8.0046 23.0316 7.25541 22.9239 6.51827C22.7697 5.43593 21.7879 4.70491 20.6693 4.70129C19.6462 4.69887 18.6229 4.69968 17.5997 4.70048C17.0881 4.70089 16.5765 4.70129 16.065 4.70129H15.7692C15.7679 4.6687 15.7661 4.6375 15.7643 4.60714C15.7613 4.55483 15.7584 4.50503 15.7584 4.455C15.7584 4.26927 15.7588 4.08355 15.7593 3.89783C15.7602 3.52639 15.7612 3.15494 15.7584 2.7835C15.7518 1.70357 15.0202 0.964109 13.9514 0.96109C12.3194 0.957469 10.6873 0.957469 9.05493 0.96109C7.9861 0.964109 7.25452 1.70419 7.24792 2.78291V4.43206V4.70129H2.44687C1.15959 4.70189 0.297206 5.40456 0.0349486 6.67222C0.0269571 6.69275 0.0158316 6.71189 0.00195312 6.72896ZM14.2929 2.77566V4.69345H8.73506C8.72534 4.64282 8.71891 4.59159 8.71583 4.54012V2.77928C8.71643 2.51247 8.79686 2.4334 9.06692 2.4334H13.9376C14.2106 2.4334 14.2929 2.51186 14.2929 2.77566ZM2.32973 13.1366C1.43373 12.8753 0.668562 12.3935 0.0018168 11.7446L0 19.0651C0.015937 19.0892 0.0286707 19.1154 0.0378305 19.1429C0.26588 20.3327 1.16487 21.0824 2.38613 21.0824C8.46465 21.0853 14.5432 21.0853 20.6217 21.0824C22.0104 21.0818 22.9964 20.0852 22.9964 18.6866V11.9776C22.9964 11.9352 22.9931 11.8924 22.9891 11.8406C22.9872 11.8158 22.9851 11.789 22.9832 11.7591C22.969 11.7712 22.9559 11.7821 22.9439 11.7922C22.902 11.8273 22.8718 11.8527 22.8434 11.8799C22.2757 12.4429 21.5794 12.8575 20.8155 13.0872C19.4977 13.4772 18.1783 13.8618 16.8588 14.2465C15.6233 14.6067 14.3879 14.9669 13.1537 15.3315C12.0887 15.6601 10.9507 15.6639 9.88354 15.3424C8.77541 15.0115 7.66405 14.6905 6.55252 14.3693C6.00503 14.2112 5.45749 14.053 4.91029 13.8936C4.0505 13.6409 3.19031 13.3886 2.32973 13.1366Z" fill="white"/>
<path d="M0.00195312 8.40105H-0.498047V8.44874L-0.489031 8.49557L0.00195312 8.40105ZM0.00195312 6.72896L-0.385966 6.4135L-0.498047 6.55132V6.72896H0.00195312ZM0.0359616 8.59093L0.52869 8.50597L0.52869 8.50597L0.0359616 8.59093ZM0.111782 8.9703L-0.372527 9.0946L-0.37187 9.09711L0.111782 8.9703ZM2.69234 11.7L2.8368 11.2213L2.83675 11.2213L2.69234 11.7ZM8.84544 13.5076L8.70627 13.9879L8.70627 13.9879L8.84544 13.5076ZM10.4406 13.9703L10.5804 13.4903L10.5801 13.4902L10.4406 13.9703ZM12.8513 13.9003L12.7099 13.4207L12.7098 13.4208L12.8513 13.9003ZM15.6447 13.0817L15.785 13.5617L15.785 13.5617L15.6447 13.0817ZM20.2107 11.7368L20.3541 12.2158L20.3542 12.2158L20.2107 11.7368ZM22.9156 8.74089L23.4094 8.81923L23.4097 8.81688L22.9156 8.74089ZM22.9239 6.51827L22.4289 6.58881L22.4292 6.59052L22.9239 6.51827ZM20.6693 4.70129L20.6709 4.20129L20.6704 4.20129L20.6693 4.70129ZM17.5997 4.70048L17.5993 4.20048L17.5993 4.20048L17.5997 4.70048ZM15.7692 4.70129L15.2696 4.72157L15.2891 5.20129H15.7692V4.70129ZM15.7643 4.60714L15.2651 4.63608L15.2651 4.63609L15.7643 4.60714ZM15.7593 3.89783L16.2593 3.89909L16.2593 3.89909L15.7593 3.89783ZM15.7584 2.7835L15.2584 2.78656L15.2584 2.78727L15.7584 2.7835ZM13.9514 0.96109L13.9528 0.461092L13.9525 0.461092L13.9514 0.96109ZM9.05493 0.96109L9.05382 0.461092L9.05352 0.461092L9.05493 0.96109ZM7.24792 2.78291L6.74792 2.77985V2.78291H7.24792ZM7.24792 4.70129V5.20129H7.74792V4.70129H7.24792ZM2.44687 4.70129L2.44687 4.20129L2.44664 4.20129L2.44687 4.70129ZM0.0349486 6.67222L0.500896 6.85359L0.516093 6.81454L0.52458 6.77352L0.0349486 6.67222ZM14.2929 4.69345V5.19345H14.7929V4.69345H14.2929ZM8.73506 4.69345L8.24402 4.7877L8.3219 5.19345H8.73506V4.69345ZM8.71583 4.54012H8.21583V4.55502L8.21672 4.56989L8.71583 4.54012ZM8.71583 2.77928L8.21583 2.77816V2.77928H8.71583ZM0.0018168 11.7446L0.350548 11.3863L-0.497889 10.5606L-0.498183 11.7445L0.0018168 11.7446ZM2.32973 13.1366L2.4702 12.6568L2.46975 12.6567L2.32973 13.1366ZM0 19.0651L-0.5 19.0649L-0.500037 19.215L-0.417485 19.3402L0 19.0651ZM0.0378305 19.1429L0.528891 19.0488L0.522668 19.0163L0.512224 18.985L0.0378305 19.1429ZM2.38613 21.0824L2.38637 20.5824H2.38613V21.0824ZM20.6217 21.0824L20.6215 20.5824L20.6215 20.5824L20.6217 21.0824ZM22.9891 11.8406L22.4906 11.879L22.4906 11.879L22.9891 11.8406ZM22.9832 11.7591L23.4822 11.7267L23.4179 10.7376L22.6606 11.3771L22.9832 11.7591ZM22.9439 11.7922L23.2652 12.1753L23.2652 12.1753L22.9439 11.7922ZM22.8434 11.8799L22.4977 11.5185L22.4913 11.5249L22.8434 11.8799ZM20.8155 13.0872L20.9574 13.5666L20.9595 13.566L20.8155 13.0872ZM16.8588 14.2465L16.7188 13.7665L16.7188 13.7665L16.8588 14.2465ZM13.1537 15.3315L13.012 14.8519L13.0063 14.8537L13.1537 15.3315ZM9.88354 15.3424L10.0278 14.8636L10.0266 14.8633L9.88354 15.3424ZM6.55252 14.3693L6.41374 14.8497L6.41374 14.8497L6.55252 14.3693ZM4.91029 13.8936L4.76928 14.3733L4.77048 14.3737L4.91029 13.8936ZM0.501953 8.40105V6.72896H-0.498047V8.40105H0.501953ZM0.52869 8.50597C0.517893 8.44336 0.506138 8.37509 0.492937 8.30652L-0.489031 8.49557C-0.477975 8.553 -0.467843 8.61166 -0.456767 8.6759L0.52869 8.50597ZM0.596084 8.84599C0.570242 8.74531 0.551381 8.63756 0.52869 8.50597L-0.456767 8.6759C-0.435311 8.80032 -0.410084 8.94825 -0.37252 9.0946L0.596084 8.84599ZM2.83675 11.2213C1.65438 10.8646 0.917009 10.07 0.595433 8.84349L-0.37187 9.09711C0.032713 10.6402 1.01292 11.7156 2.54794 12.1787L2.83675 11.2213ZM8.98461 13.0274C6.93095 12.4323 4.88007 11.8379 2.8368 11.2213L2.54789 12.1787C4.59731 12.7971 6.6535 13.393 8.70627 13.9879L8.98461 13.0274ZM10.5801 13.4902C10.0483 13.3356 9.51637 13.1815 8.98461 13.0274L8.70627 13.9879C9.23809 14.142 9.76969 14.296 10.3011 14.4505L10.5801 13.4902ZM12.7098 13.4208C11.9726 13.6384 11.2712 13.6914 10.5804 13.4903L10.3008 14.4504C11.2268 14.7201 12.1314 14.6342 12.9929 14.3798L12.7098 13.4208ZM15.5045 12.6018C14.5733 12.8738 13.6414 13.1461 12.7099 13.4207L12.9927 14.3799C13.9228 14.1057 14.8535 13.8338 15.785 13.5617L15.5045 12.6018ZM20.0673 11.2578C18.5491 11.7124 17.0278 12.1568 15.5045 12.6018L15.785 13.5617C17.3076 13.1168 18.8321 12.6715 20.3541 12.2158L20.0673 11.2578ZM22.4217 8.66256C22.3119 9.355 22.0473 9.89871 21.6621 10.3172C21.275 10.7375 20.7441 11.0552 20.0673 11.2578L20.3542 12.2158C21.1693 11.9717 21.8672 11.5707 22.3977 10.9945C22.9301 10.4163 23.272 9.6854 23.4094 8.81923L22.4217 8.66256ZM22.4292 6.59052C22.5296 7.2785 22.527 7.97774 22.4214 8.66491L23.4097 8.81688C23.5305 8.03147 23.5335 7.23232 23.4187 6.44603L22.4292 6.59052ZM20.6676 5.20129C21.5827 5.20425 22.3157 5.79405 22.4289 6.58881L23.4189 6.44774C23.2237 5.07782 21.9931 4.20557 20.6709 4.20129L20.6676 5.20129ZM17.6001 5.20048C18.6234 5.19968 19.6459 5.19887 20.6681 5.20129L20.6704 4.20129C19.6465 4.19887 18.6224 4.19968 17.5993 4.20048L17.6001 5.20048ZM16.065 5.20129C16.5768 5.20129 17.0885 5.20089 17.6001 5.20048L17.5993 4.20048C17.0877 4.20089 16.5763 4.20129 16.065 4.20129V5.20129ZM15.7692 5.20129H16.065V4.20129H15.7692V5.20129ZM15.2651 4.63609C15.2669 4.66699 15.2685 4.69398 15.2696 4.72157L16.2688 4.68101C16.2673 4.64342 16.2652 4.60801 16.2635 4.5782L15.2651 4.63609ZM15.2584 4.455C15.2584 4.52198 15.2622 4.58634 15.2651 4.63608L16.2635 4.5782C16.2603 4.52333 16.2584 4.48809 16.2584 4.455H15.2584ZM15.2593 3.89657C15.2588 4.08219 15.2584 4.26854 15.2584 4.455H16.2584C16.2584 4.27001 16.2588 4.08491 16.2593 3.89909L15.2593 3.89657ZM15.2584 2.78727C15.2612 3.15578 15.2602 3.52471 15.2593 3.89657L16.2593 3.89909C16.2602 3.52806 16.2612 3.15411 16.2584 2.77973L15.2584 2.78727ZM13.95 1.46109C14.3661 1.46226 14.6841 1.60444 14.8981 1.82039C15.1125 2.03685 15.2558 2.36117 15.2584 2.78656L16.2584 2.78044C16.2544 2.12591 16.0285 1.54053 15.6084 1.11652C15.1877 0.692001 14.6056 0.462936 13.9528 0.461092L13.95 1.46109ZM9.05604 1.46109C10.6877 1.45747 12.3191 1.45747 13.9503 1.46109L13.9525 0.461092C12.3198 0.457468 10.6869 0.457468 9.05382 0.461092L9.05604 1.46109ZM7.74791 2.78597C7.75051 2.36132 7.89367 2.03709 8.10825 1.82055C8.32231 1.60452 8.64037 1.46226 9.05634 1.46109L9.05352 0.461092C8.40066 0.462936 7.81851 0.692229 7.39792 1.11668C6.97785 1.54061 6.75193 2.12578 6.74793 2.77985L7.74791 2.78597ZM7.74792 4.43206V2.78291H6.74792V4.43206H7.74792ZM7.74792 4.70129V4.43206H6.74792V4.70129H7.74792ZM2.44687 5.20129H7.24792V4.20129H2.44687V5.20129ZM0.52458 6.77352C0.637099 6.22964 0.86866 5.84721 1.17276 5.5989C1.47676 5.35067 1.896 5.20155 2.44711 5.20129L2.44664 4.20129C1.71046 4.20163 1.05487 4.40414 0.540288 4.82432C0.0258154 5.24441 -0.304944 5.84714 -0.454683 6.57093L0.52458 6.77352ZM0.389872 7.04443C0.436711 6.98683 0.474107 6.92241 0.500896 6.85359L-0.430999 6.49086C-0.420193 6.46309 -0.405047 6.43696 -0.385966 6.4135L0.389872 7.04443ZM14.7929 4.69345V2.77566H13.7929V4.69345H14.7929ZM8.73506 5.19345H14.2929V4.19345H8.73506V5.19345ZM8.21672 4.56989C8.22109 4.64313 8.23024 4.71588 8.24402 4.7877L9.22609 4.59919C9.22044 4.56975 9.21672 4.54006 9.21495 4.51034L8.21672 4.56989ZM8.21583 2.77928V4.54012H9.21583V2.77928H8.21583ZM9.06692 1.9334C8.9181 1.9334 8.64625 1.94641 8.43948 2.15004C8.23067 2.35569 8.21617 2.62888 8.21584 2.77816L9.21583 2.78041C9.21594 2.73399 9.21999 2.7267 9.21645 2.74012C9.21146 2.75906 9.19315 2.81134 9.14117 2.86253C9.08956 2.91336 9.03808 2.93026 9.02149 2.93448C9.00995 2.93742 9.01909 2.9334 9.06692 2.9334V1.9334ZM13.9376 1.9334H9.06692V2.9334H13.9376V1.9334ZM14.7929 2.77566C14.7929 2.6249 14.7776 2.3504 14.5642 2.14522C14.357 1.94597 14.0866 1.9334 13.9376 1.9334V2.9334C13.9865 2.9334 13.9973 2.93741 13.9875 2.93497C13.9731 2.93139 13.9227 2.91567 13.871 2.86599C13.8183 2.81527 13.7987 2.76235 13.793 2.74094C13.7888 2.72553 13.7929 2.73087 13.7929 2.77566H14.7929ZM-0.346915 12.1029C0.369851 12.8005 1.20452 13.3292 2.1897 13.6166L2.46975 12.6567C1.66294 12.4213 0.967273 11.9866 0.350548 11.3863L-0.346915 12.1029ZM0.5 19.0652L0.501817 11.7448L-0.498183 11.7445L-0.5 19.0649L0.5 19.0652ZM0.512224 18.985C0.489231 18.9159 0.457324 18.8504 0.417485 18.7899L-0.417485 19.3402C-0.42545 19.3281 -0.43189 19.3149 -0.436563 19.3009L0.512224 18.985ZM2.38613 20.5824C1.40555 20.5824 0.711947 20.0039 0.528891 19.0488L-0.453231 19.2371C-0.180187 20.6616 0.92419 21.5824 2.38613 21.5824V20.5824ZM20.6215 20.5824C14.5431 20.5853 8.46473 20.5853 2.38637 20.5824L2.3859 21.5824C8.46458 21.5853 14.5432 21.5853 20.6219 21.5824L20.6215 20.5824ZM22.4964 18.6866C22.4964 19.8134 21.7299 20.582 20.6215 20.5824L20.6219 21.5824C22.2909 21.5817 23.4964 20.357 23.4964 18.6866H22.4964ZM22.4964 11.9776V18.6866H23.4964V11.9776H22.4964ZM22.4906 11.879C22.4949 11.9351 22.4964 11.9579 22.4964 11.9776H23.4964C23.4964 11.9124 23.4913 11.8498 23.4876 11.8023L22.4906 11.879ZM22.4843 11.7916C22.4864 11.8248 22.4887 11.8544 22.4906 11.879L23.4876 11.8023C23.4857 11.7773 23.4839 11.7532 23.4822 11.7267L22.4843 11.7916ZM23.2652 12.1753C23.2773 12.1652 23.2909 12.1537 23.3058 12.1411L22.6606 11.3771C22.6471 11.3886 22.6346 11.399 22.6225 11.4092L23.2652 12.1753ZM23.189 12.2412C23.2033 12.2275 23.2201 12.2131 23.2652 12.1753L22.6225 11.4092C22.5839 11.4416 22.5403 11.4779 22.4978 11.5185L23.189 12.2412ZM20.9595 13.566C21.8021 13.3126 22.5697 12.8555 23.1955 12.2349L22.4913 11.5249C21.9816 12.0304 21.3568 12.4023 20.6716 12.6083L20.9595 13.566ZM16.9987 14.7265C18.318 14.3419 19.6384 13.9569 20.9574 13.5666L20.6736 12.6077C19.3569 12.9974 18.0385 13.3818 16.7188 13.7665L16.9987 14.7265ZM13.2953 15.811C14.5285 15.4467 15.7632 15.0868 16.9987 14.7265L16.7188 13.7665C15.4835 14.1267 14.2472 14.4871 13.012 14.852L13.2953 15.811ZM9.73931 15.8211C10.9016 16.1713 12.1411 16.1672 13.3011 15.8093L13.0063 14.8537C12.0362 15.153 10.9998 15.1565 10.0278 14.8636L9.73931 15.8211ZM6.41374 14.8497C7.52563 15.1709 8.63485 15.4914 9.74051 15.8215L10.0266 14.8633C8.91596 14.5317 7.80247 14.21 6.6913 13.889L6.41374 14.8497ZM4.77048 14.3737C5.31829 14.5332 5.86634 14.6916 6.41374 14.8497L6.6913 13.889C6.14372 13.7308 5.5967 13.5728 5.0501 13.4136L4.77048 14.3737ZM2.18925 13.6165C3.04966 13.8684 3.90967 14.1207 4.76928 14.3733L5.05129 13.4139C4.19133 13.1611 3.33096 12.9088 2.4702 12.6568L2.18925 13.6165Z" fill="#BABCBE" mask="url(#path-1-inside-1)"/>
</g>
</g>
<defs>
<filter id="filter0_d" x="-4" y="0.958374" width="31.0026" height="28.1262" filterUnits="userSpaceOnUse" color-interpolation-filters="sRGB">
<feFlood flood-opacity="0" result="BackgroundImageFix"/>
<feColorMatrix in="SourceAlpha" type="matrix" values="0 0 0 0 0 0 0 0 0 0 0 0 0 0 0 0 0 0 127 0" result="hardAlpha"/>
<feOffset dy="4"/>
<feGaussianBlur stdDeviation="2"/>
<feComposite in2="hardAlpha" operator="out"/>
<feColorMatrix type="matrix" values="0 0 0 0 0 0 0 0 0 0 0 0 0 0 0 0 0 0 0.08 0"/>
<feBlend mode="normal" in2="BackgroundImageFix" result="effect1_dropShadow"/>
<feBlend mode="normal" in="SourceGraphic" in2="effect1_dropShadow" result="shape"/>
</filter>
<clipPath id="clip0">
<rect width="23" height="23" fill="white"/>
</clipPath>
</defs>
</svg>
