<svg width="23" height="17" viewBox="0 0 23 17" fill="none" xmlns="http://www.w3.org/2000/svg">
<g clip-path="url(#clip0)">
<g filter="url(#filter0_d)">
<path d="M23.0004 7.63463C22.8861 7.50659 22.8909 7.33227 22.8117 7.18766C22.4974 6.60922 22.0242 6.28682 21.3278 6.28853C20.0558 6.29196 18.7832 6.28853 17.5112 6.28853C17.2339 6.28853 16.9571 6.29196 16.6779 6.28853C15.9595 6.2771 15.4559 6.60748 15.1821 7.22308C14.7453 8.20563 14.2238 9.14759 13.7447 10.1096C13.259 11.0853 12.7548 12.053 12.2668 13.0275C12.2019 13.1578 12.1364 13.199 11.9828 13.1887C11.64 13.171 11.2947 13.1778 10.9507 13.1887C10.9119 13.1955 10.8719 13.1885 10.838 13.1691C10.8042 13.1496 10.7788 13.119 10.7668 13.0829C9.83585 11.2476 8.89184 9.41853 7.97638 7.57632C7.78829 7.19794 7.64544 6.80925 7.27104 6.55604C7.04297 6.39049 6.76642 6.2981 6.4806 6.29197C4.84136 6.29197 3.20209 6.27939 1.56345 6.29197C0.789659 6.2994 0.169447 6.87729 0.0402835 7.65464C0.0153065 7.81085 0.0033583 7.96871 0.00456432 8.12675C0.00218343 11.0087 0.000193542 13.8906 -0.00139372 16.7725C-0.00139372 16.9469 0.0337279 16.996 0.225389 16.9954C2.74754 16.9886 5.26971 16.9886 7.79186 16.9954C7.97043 16.9954 8.00972 16.9503 8.00853 16.7845C8.00198 15.1761 8.00495 13.5676 8.00495 11.9495C8.08948 11.9752 8.10079 12.0455 8.12996 12.097C8.65375 13.0229 9.17577 13.9495 9.69599 14.8766C9.7698 15.0086 9.81503 15.1555 9.89598 15.2841C10.1412 15.6842 10.4977 15.9129 10.9941 15.9129C11.3239 15.9129 11.6531 15.9129 11.9822 15.9129C12.5179 15.918 12.9072 15.6779 13.134 15.227C13.6316 14.2398 14.2137 13.2956 14.7411 12.3233C14.8095 12.197 14.8845 12.0735 14.9649 11.9335C15.0167 12.0032 14.9958 12.0672 14.9958 12.1244C14.9958 13.6837 14.9958 15.2431 14.9958 16.8028C14.9958 16.9491 15.0256 16.9943 15.1875 16.9943C17.7922 16.9882 20.3967 16.9861 23.001 16.988L23.0004 7.63463Z" fill="white"/>
<path d="M21.3278 6.28853C20.4798 6.29082 19.6315 6.29006 18.7833 6.28929C18.3593 6.28891 17.9352 6.28853 17.5112 6.28853C17.4188 6.28853 17.3265 6.28891 17.2341 6.28929C17.0492 6.29006 16.8641 6.29082 16.6779 6.28853C15.9595 6.2771 15.4559 6.60748 15.1821 7.22308M21.3278 6.28853C22.0242 6.28682 22.4974 6.60922 22.8117 7.18766C22.8442 7.24714 22.8626 7.31164 22.8809 7.37588C22.9071 7.46784 22.9331 7.55925 23.0004 7.63463M21.3278 6.28853L21.3285 6.53853M21.3278 6.28853L21.3284 6.53853M23.0004 7.63463L23.001 16.738C22.9176 16.7379 22.8343 16.7379 22.751 16.7378M23.0004 7.63463L22.8139 7.8011C22.7893 7.77351 22.7683 7.74503 22.7504 7.7165M23.0004 7.63463L22.7504 7.63464L22.7504 7.7165M22.751 16.7378L22.751 16.9878C20.23 16.9862 17.7088 16.9884 15.1875 16.9943M22.751 16.7378C20.2494 16.7363 17.7477 16.7384 15.2458 16.7442M22.751 16.7378L22.7504 7.7165M15.1875 16.9943C15.0256 16.9943 14.9958 16.9491 14.9958 16.8028V12.3791C15.0279 12.322 15.061 12.2654 15.0965 12.2047C15.1116 12.1788 15.1272 12.1521 15.1433 12.1244C15.1558 12.1029 15.1686 12.0808 15.1817 12.0579L14.9649 11.9335L14.7642 12.0825C14.7609 12.0781 14.7565 12.0705 14.7534 12.0607C14.7504 12.0513 14.75 12.0446 14.75 12.0435C14.75 12.0432 14.75 12.0442 14.7499 12.0472L14.749 12.0614L14.7471 12.0867C14.7465 12.0969 14.7458 12.1099 14.7458 12.1244V12.1335V12.1427V12.1518V12.1609V12.1701V12.1792V12.1883V12.1975V12.2066V12.2158V12.2249V12.234V12.2432V12.2523V12.2614V12.2706V12.2797V12.2888V12.298V12.3071V12.3146C14.7442 12.3175 14.7427 12.3204 14.7411 12.3233M15.1875 16.9943V16.8028V16.7602C15.1958 16.7659 15.2047 16.7732 15.2135 16.7826C15.22 16.7895 15.2252 16.7963 15.2295 16.8028C15.2429 16.8229 15.2468 16.8392 15.2474 16.842C15.2477 16.8433 15.2458 16.8339 15.2458 16.8028V16.7937V16.7845V16.7754V16.7662V16.7571V16.748V16.7442M15.1875 16.9943L15.187 16.8028L15.1869 16.7599C15.1699 16.7483 15.1557 16.7439 15.151 16.7427C15.1504 16.7425 15.1501 16.7425 15.1503 16.7425C15.1509 16.7425 15.1612 16.7443 15.1873 16.7443C15.2068 16.7442 15.2263 16.7442 15.2458 16.7442M14.7411 12.3233C14.5335 12.706 14.3175 13.0843 14.1014 13.4627C13.7686 14.0455 13.4357 14.6284 13.134 15.227C12.9072 15.6779 12.5179 15.918 11.9822 15.9129H10.9941C10.4977 15.9129 10.1412 15.6842 9.89598 15.2841C9.85106 15.2128 9.81715 15.1358 9.78324 15.0588C9.75604 14.9971 9.72885 14.9353 9.69599 14.8766C9.21714 14.0232 8.73678 13.1703 8.25491 12.3179C8.25493 12.2207 8.25495 12.1235 8.25495 12.0263C8.25495 12.0262 8.25495 12.0261 8.25495 12.0261C8.25495 12.0006 8.25495 11.975 8.25495 11.9495H8.00495L7.93217 12.1887C7.92321 12.1859 7.9103 12.18 7.89733 12.1693C7.88497 12.1591 7.87835 12.1495 7.8763 12.1462C7.87542 12.1448 7.8755 12.1448 7.87666 12.1471L7.88251 12.1595L7.88412 12.163C7.88662 12.1686 7.89027 12.1766 7.89373 12.1839C7.89838 12.1937 7.90461 12.2064 7.91236 12.22C7.94321 12.2746 7.97405 12.3291 8.00489 12.3837C8.00483 12.6241 8.00472 12.8643 8.00462 13.1044C8.00408 14.334 8.00354 15.5592 8.00853 16.7845C8.00972 16.9503 7.97043 16.9954 7.79186 16.9954M14.7411 12.3233L14.5213 12.2042C14.5213 12.2042 14.5213 12.2041 14.5213 12.2041M14.7411 12.3233L14.5213 12.2041M7.79186 16.9954C5.2697 16.9886 2.74754 16.9886 0.225389 16.9954C0.0337276 16.996 -0.00139427 16.9469 -0.00139427 16.7725M7.79186 16.9954V16.7861V16.7854V16.7743V16.7454C7.80921 16.7454 7.82193 16.7449 7.83111 16.7441C7.8404 16.7433 7.84397 16.7424 7.84354 16.7425C7.84215 16.7429 7.818 16.749 7.79246 16.7737L7.79243 16.7854L7.79243 16.7861L7.79186 16.9954ZM-0.00139427 16.7725C0.000192642 13.8906 0.00218391 11.0087 0.00456429 8.12675C0.00335884 7.96871 0.0153065 7.81085 0.0402832 7.65464M-0.00139427 16.7725H0.216581C0.205482 16.7618 0.19413 16.7542 0.184439 16.7492C0.174303 16.7439 0.167635 16.7423 0.167385 16.7422C0.167261 16.7422 0.171398 16.7432 0.18165 16.7441C0.191788 16.7449 0.20573 16.7455 0.224644 16.7454H0.22471C0.232681 16.7454 0.24065 16.7454 0.248621 16.7454M-0.00139427 16.7725L0.216705 16.7726C0.217884 16.7738 0.219061 16.775 0.220232 16.7762C0.221806 16.7778 0.223312 16.7795 0.224751 16.7811C0.22477 16.7811 0.224789 16.7811 0.224808 16.7812C0.234489 16.7922 0.241159 16.8031 0.245489 16.8122C0.247862 16.8172 0.249352 16.8212 0.250237 16.8239C0.251112 16.8266 0.251442 16.8281 0.251455 16.8282C0.251467 16.8283 0.25123 16.8272 0.250893 16.8246C0.250557 16.8221 0.250166 16.8186 0.249807 16.8137C0.249073 16.8038 0.248606 16.7905 0.248606 16.7727C0.248611 16.7636 0.248615 16.7545 0.248621 16.7454M0.0402832 7.65464C0.169447 6.87729 0.78966 6.2994 1.56345 6.29197C2.65586 6.28358 3.74854 6.28638 4.84131 6.28917C5.38773 6.29057 5.93416 6.29197 6.4806 6.29197M0.0402832 7.65464L0.287148 7.69411C0.287111 7.69434 0.287073 7.69457 0.287037 7.6948M0.0402832 7.65464L0.286901 7.69561C0.286947 7.69534 0.286991 7.69507 0.287037 7.6948M6.4806 6.29197C6.76642 6.2981 7.04297 6.39049 7.27104 6.55604C7.59124 6.7726 7.74208 7.08824 7.8967 7.41179C7.92288 7.46655 7.94916 7.52155 7.97638 7.57632C8.60251 8.8363 9.24199 10.0901 9.88151 11.344C10.177 11.9234 10.4726 12.5029 10.7668 13.0829M6.4806 6.29197V6.54197C6.47966 6.54197 6.47872 6.54197 6.47779 6.54197M6.4806 6.29197L6.47524 6.54191C6.47609 6.54193 6.47694 6.54195 6.47779 6.54197M10.7668 13.0829C10.7788 13.119 10.8042 13.1496 10.838 13.1691C10.8719 13.1885 10.9119 13.1955 10.9507 13.1887M10.7668 13.0829L10.5438 13.196C10.5417 13.1919 10.5396 13.1877 10.5375 13.1836M10.7668 13.0829L10.5297 13.1623C10.5321 13.1695 10.5347 13.1766 10.5375 13.1836M10.9507 13.1887C11.2947 13.1778 11.64 13.171 11.9828 13.1887M10.9507 13.1887L10.9939 13.4349C10.9868 13.4362 10.9796 13.4372 10.9724 13.4381M10.9507 13.1887L10.9586 13.4386C10.9632 13.4384 10.9678 13.4383 10.9724 13.4381M11.9828 13.1887C12.1364 13.199 12.2019 13.1578 12.2668 13.0275M11.9828 13.1887L11.9699 13.4384C11.9693 13.4383 11.9687 13.4383 11.9681 13.4383M11.9828 13.1887L11.9661 13.4381C11.9668 13.4382 11.9675 13.4382 11.9681 13.4383M12.2668 13.0275C12.4936 12.5745 12.7239 12.1231 12.9543 11.6715C13.2195 11.1517 13.4847 10.6318 13.7447 10.1096M12.2668 13.0275L12.4906 13.1389C12.4905 13.139 12.4905 13.1391 12.4904 13.1392M12.2668 13.0275L12.4903 13.1395C12.4903 13.1394 12.4904 13.1393 12.4904 13.1392M13.7447 10.1096C13.9041 9.78952 14.0682 9.47169 14.2323 9.15384C14.5614 8.51632 14.8906 7.87873 15.1821 7.22308M13.7447 10.1096L13.9685 10.221C13.9685 10.221 13.9685 10.221 13.9685 10.221M13.7447 10.1096L13.9685 10.221M15.1821 7.22308L15.4106 7.32467M15.1821 7.22308L15.4106 7.32465C15.4106 7.32466 15.4106 7.32467 15.4106 7.32467M15.4106 7.32467C15.1162 7.98672 14.7811 8.63593 14.4499 9.27743C14.2867 9.59363 14.1244 9.90796 13.9685 10.221M15.4106 7.32467C15.5307 7.05466 15.6951 6.85967 15.897 6.73194C16.099 6.6041 16.3548 6.53342 16.674 6.5385L16.6749 6.53852C16.863 6.54083 17.0518 6.54005 17.2379 6.53929C17.3298 6.53891 17.421 6.53853 17.5112 6.53853C17.9347 6.53853 18.3585 6.53891 18.7825 6.53929C19.6309 6.54006 20.48 6.54082 21.3284 6.53853M13.9685 10.221C13.7098 10.7406 13.4423 11.265 13.1755 11.7881C12.9446 12.2407 12.7142 12.6924 12.4904 13.1392M13.9685 10.221L21.3285 6.53853M13.9685 10.221L21.3284 6.53853M12.4904 13.1392C12.4498 13.2207 12.3897 13.3156 12.2833 13.3772C12.1775 13.4385 12.0646 13.4445 11.9681 13.4383M11.9681 13.4383C11.6413 13.4215 11.31 13.4276 10.9724 13.4381M10.9724 13.4381C10.8832 13.449 10.7921 13.4311 10.7134 13.3858C10.6345 13.3404 10.5718 13.2697 10.5375 13.1836M10.5375 13.1836C10.2459 12.6087 9.95279 12.034 9.65953 11.459C9.0197 10.2045 8.37921 8.94873 7.7525 7.68758M7.7525 7.68758C7.72198 7.62617 7.69353 7.56713 7.66622 7.51043C7.51011 7.18642 7.39085 6.93888 7.13098 6.76313L7.13091 6.76324L7.12418 6.75836C6.93863 6.62367 6.71256 6.54751 6.47779 6.54197M7.7525 7.68758L7.976 7.57652L7.75252 7.6876C7.75251 7.6876 7.75251 7.68759 7.7525 7.68758ZM6.47779 6.54197C5.93091 6.54196 5.38471 6.54056 4.83891 6.53917C3.74702 6.53637 2.65671 6.53359 1.56561 6.54196M1.56561 6.54196C0.92547 6.54822 0.398613 7.02549 0.287037 7.6948M1.56561 6.54196C1.56553 6.54196 1.56545 6.54196 1.56537 6.54196L1.56345 6.29246L1.56585 6.54195C1.56577 6.54195 1.56569 6.54196 1.56561 6.54196ZM0.287037 7.6948C0.264318 7.83712 0.253458 7.98091 0.254566 8.12484L0.254564 8.12696C0.252192 10.9998 0.250206 13.8726 0.248621 16.7454M0.248621 16.7454C2.75187 16.7386 5.25512 16.7386 7.75837 16.7453C7.75355 15.5329 7.75408 14.3202 7.75462 13.1039C7.75479 12.7195 7.75495 12.3347 7.75495 11.9495V11.6121L8.07774 11.7103C8.18886 11.7441 8.25786 11.8134 8.30012 11.8809C8.3182 11.9098 8.33083 11.9375 8.3375 11.9522L8.34562 11.9699C8.34689 11.9726 8.34751 11.9738 8.34761 11.974M8.34761 11.974C8.87153 12.9002 9.39367 13.8269 9.91401 14.7542L9.91421 14.7546C9.95329 14.8245 9.98546 14.8976 10.0121 14.9582C10.0155 14.9658 10.0188 14.9733 10.0219 14.9805C10.0525 15.0497 10.0778 15.1036 10.1076 15.1509L10.1076 15.1509L10.1091 15.1535C10.3134 15.4868 10.593 15.6629 10.9941 15.6629H10.9961H10.998H10.9999H11.0019H11.0038H11.0057H11.0077H11.0096H11.0115H11.0135H11.0154H11.0173H11.0193H11.0212H11.0231H11.0251H11.027H11.0289H11.0309H11.0328H11.0347H11.0366H11.0386H11.0405H11.0424H11.0444H11.0463H11.0482H11.0502H11.0521H11.054H11.056H11.0579H11.0598H11.0618H11.0637H11.0656H11.0676H11.0695H11.0714H11.0733H11.0753H11.0772H11.0791H11.0811H11.083H11.0849H11.0869H11.0888H11.0907H11.0927H11.0946H11.0965H11.0985H11.1004H11.1023H11.1043H11.1062H11.1081H11.11H11.112H11.1139H11.1158H11.1178H11.1197H11.1216H11.1236H11.1255H11.1274H11.1294H11.1313H11.1332H11.1352H11.1371H11.139H11.1409H11.1429H11.1448H11.1467H11.1487H11.1506H11.1525H11.1545H11.1564H11.1583H11.1603H11.1622H11.1641H11.1661H11.168H11.1699H11.1718H11.1738H11.1757H11.1776H11.1796H11.1815H11.1834H11.1854H11.1873H11.1892H11.1912H11.1931H11.195H11.1969H11.1989H11.2008H11.2027H11.2047H11.2066H11.2085H11.2105H11.2124H11.2143H11.2163H11.2182H11.2201H11.222H11.224H11.2259H11.2278H11.2298H11.2317H11.2336H11.2356H11.2375H11.2394H11.2414H11.2433H11.2452H11.2471H11.2491H11.251H11.2529H11.2549H11.2568H11.2587H11.2607H11.2626H11.2645H11.2665H11.2684H11.2703H11.2722H11.2742H11.2761H11.278H11.28H11.2819H11.2838H11.2858H11.2877H11.2896H11.2915H11.2935H11.2954H11.2973H11.2993H11.3012H11.3031H11.3051H11.307H11.3089H11.3109H11.3128H11.3147H11.3166H11.3186H11.3205H11.3224H11.3244H11.3263H11.3282H11.3302H11.3321H11.334H11.3359H11.3379H11.3398H11.3417H11.3437H11.3456H11.3475H11.3495H11.3514H11.3533H11.3552H11.3572H11.3591H11.361H11.363H11.3649H11.3668H11.3688H11.3707H11.3726H11.3745H11.3765H11.3784H11.3803H11.3823H11.3842H11.3861H11.3881H11.39H11.3919H11.3938H11.3958H11.3977H11.3996H11.4016H11.4035H11.4054H11.4074H11.4093H11.4112H11.4131H11.4151H11.417H11.4189H11.4209H11.4228H11.4247H11.4267H11.4286H11.4305H11.4324H11.4344H11.4363H11.4382H11.4402H11.4421H11.444H11.446H11.4479H11.4498H11.4517H11.4537H11.4556H11.4575H11.4595H11.4614H11.4633H11.4652H11.4672H11.4691H11.471H11.473H11.4749H11.4768H11.4788H11.4807H11.4826H11.4845H11.4865H11.4884H11.4903H11.4923H11.4942H11.4961H11.4981H11.5H11.5019H11.5038H11.5058H11.5077H11.5096H11.5116H11.5135H11.5154H11.5173H11.5193H11.5212H11.5231H11.5251H11.527H11.5289H11.5309H11.5328H11.5347H11.5366H11.5386H11.5405H11.5424H11.5444H11.5463H11.5482H11.5501H11.5521H11.554H11.5559H11.5579H11.5598H11.5617H11.5637H11.5656H11.5675H11.5694H11.5714H11.5733H11.5752H11.5772H11.5791H11.581H11.5829H11.5849H11.5868H11.5887H11.5907H11.5926H11.5945H11.5964H11.5984H11.6003H11.6022H11.6042H11.6061H11.608H11.61H11.6119H11.6138H11.6157H11.6177H11.6196H11.6215H11.6235H11.6254H11.6273H11.6292H11.6312H11.6331H11.635H11.637H11.6389H11.6408H11.6427H11.6447H11.6466H11.6485H11.6505H11.6524H11.6543H11.6563H11.6582H11.6601H11.662H11.664H11.6659H11.6678H11.6698H11.6717H11.6736H11.6755H11.6775H11.6794H11.6813H11.6833H11.6852H11.6871H11.689H11.691H11.6929H11.6948H11.6968H11.6987H11.7006H11.7025H11.7045H11.7064H11.7083H11.7103H11.7122H11.7141H11.7161H11.718H11.7199H11.7218H11.7238H11.7257H11.7276H11.7296H11.7315H11.7334H11.7353H11.7373H11.7392H11.7411H11.7431H11.745H11.7469H11.7488H11.7508H11.7527H11.7546H11.7566H11.7585H11.7604H11.7623H11.7643H11.7662H11.7681H11.7701H11.772H11.7739H11.7758H11.7778H11.7797H11.7816H11.7836H11.7855H11.7874H11.7893H11.7913H11.7932H11.7951H11.7971H11.799H11.8009H11.8028H11.8048H11.8067H11.8086H11.8106H11.8125H11.8144H11.8163H11.8183H11.8202H11.8221H11.8241H11.826H11.8279H11.8299H11.8318H11.8337H11.8356H11.8376H11.8395H11.8414H11.8434H11.8453H11.8472H11.8491H11.8511H11.853H11.8549H11.8569H11.8588H11.8607H11.8626H11.8646H11.8665H11.8684H11.8704H11.8723H11.8742H11.8761H11.8781H11.88H11.8819H11.8839H11.8858H11.8877H11.8896H11.8916H11.8935H11.8954H11.8974H11.8993H11.9012H11.9031H11.9051H11.907H11.9089H11.9109H11.9128H11.9147H11.9166H11.9186H11.9205H11.9224H11.9244H11.9263H11.9282H11.9301H11.9321H11.934H11.9359H11.9379H11.9398H11.9417H11.9436H11.9456H11.9475H11.9494H11.9514H11.9533H11.9552H11.9571H11.9591H11.961H11.9629H11.9649H11.9668H11.9687H11.9706H11.9726H11.9745H11.9764H11.9784H11.9803L11.9822 15.6628L11.9846 15.6629C12.2138 15.6651 12.3981 15.615 12.5452 15.5267C12.692 15.4384 12.8155 15.3037 12.9106 15.1146L12.9107 15.1144C13.2141 14.5125 13.5542 13.9169 13.8904 13.3279C14.1058 12.9505 14.3197 12.5759 14.5213 12.2041M8.34761 11.974C8.34765 11.974 8.34763 11.974 8.34755 11.9739C8.34757 11.9739 8.34759 11.9739 8.34761 11.974ZM14.5213 12.2041C14.5679 12.1181 14.6192 12.0304 14.6706 11.9424C14.6966 11.898 14.7226 11.8535 14.7481 11.8091L14.938 11.478L15.1656 11.7844C15.2275 11.8678 15.2468 11.9528 15.2496 12.0238C15.2508 12.0553 15.2488 12.0832 15.2476 12.0992L15.2461 12.1186C15.2458 12.1229 15.2458 12.1244 15.2458 12.1244V12.1335V12.1427V12.1518V12.1609V12.1701V12.1792V12.1883V12.1975V12.2066V12.2158V12.2249V12.234V12.2432V12.2523V12.2614V12.2706V12.2797V12.2888V12.298V12.3071V12.3163V12.3254V12.3345V12.3437V12.3528V12.3619V12.3711V12.3802V12.3894V12.3985V12.4076V12.4168V12.4259V12.435V12.4442V12.4533V12.4624V12.4716V12.4807V12.4899V12.499V12.5081V12.5173V12.5264V12.5355V12.5447V12.5538V12.5629V12.5721V12.5812V12.5904V12.5995V12.6086V12.6178V12.6269V12.636V12.6452V12.6543V12.6634V12.6726V12.6817V12.6909V12.7V12.7091V12.7183V12.7274V12.7365V12.7457V12.7548V12.764V12.7731V12.7822V12.7914V12.8005V12.8096V12.8188V12.8279V12.837V12.8462V12.8553V12.8645V12.8736V12.8827V12.8919V12.901V12.9101V12.9193V12.9284V12.9376V12.9467V12.9558V12.965V12.9741V12.9832V12.9924V13.0015V13.0106V13.0198V13.0289V13.0381V13.0472V13.0563V13.0655V13.0746V13.0837V13.0929V13.102V13.1111V13.1203V13.1294V13.1386V13.1477V13.1568V13.166V13.1751V13.1842V13.1934V13.2025V13.2117V13.2208V13.2299V13.2391V13.2482V13.2573V13.2665V13.2756V13.2848V13.2939V13.303V13.3122V13.3213V13.3304V13.3396V13.3487V13.3578V13.367V13.3761V13.3853V13.3944V13.4035V13.4127V13.4218V13.4309V13.4401V13.4492V13.4584V13.4675V13.4766V13.4858V13.4949V13.504V13.5132V13.5223V13.5315V13.5406V13.5497V13.5589V13.568V13.5771V13.5863V13.5954V13.6045V13.6137V13.6228V13.632V13.6411V13.6502V13.6594V13.6685V13.6776V13.6868V13.6959V13.7051V13.7142V13.7233V13.7325V13.7416V13.7507V13.7599V13.769V13.7782V13.7873V13.7964V13.8056V13.8147V13.8238V13.833V13.8421V13.8513V13.8604V13.8695V13.8787V13.8878V13.8969V13.9061V13.9152V13.9243V13.9335V13.9426V13.9518V13.9609V13.97V13.9792V13.9883V13.9974V14.0066V14.0157V14.0249V14.034V14.0431V14.0523V14.0614V14.0705V14.0797V14.0888V14.098V14.1071V14.1162V14.1254V14.1345V14.1436V14.1528V14.1619V14.1711V14.1802V14.1893V14.1985V14.2076V14.2167V14.2259V14.235V14.2442V14.2533V14.2624V14.2716V14.2807V14.2898V14.299V14.3081V14.3173V14.3264V14.3355V14.3447V14.3538V14.3629V14.3721V14.3812V14.3904V14.3995V14.4086V14.4178V14.4269V14.436V14.4452V14.4543V14.4635V14.4726V14.4817V14.4909V14.5V14.5091V14.5183V14.5274V14.5366V14.5457V14.5548V14.564V14.5731V14.5822V14.5914V14.6005V14.6097V14.6188V14.6279V14.6371V14.6462V14.6553V14.6645V14.6736V14.6828V14.6919V14.701V14.7102V14.7193V14.7284V14.7376V14.7467V14.7559V14.765V14.7741V14.7833V14.7924V14.8015V14.8107V14.8198V14.829V14.8381V14.8472V14.8564V14.8655V14.8746V14.8838V14.8929V14.9021V14.9112V14.9203V14.9295V14.9386V14.9477V14.9569V14.966V14.9752V14.9843V14.9934V15.0026V15.0117V15.0209V15.03V15.0391V15.0483V15.0574V15.0665V15.0757V15.0848V15.094V15.1031V15.1122V15.1214V15.1305V15.1396V15.1488V15.1579V15.1671V15.1762V15.1853V15.1945V15.2036V15.2127V15.2219V15.231V15.2402V15.2493V15.2584V15.2676V15.2767V15.2858V15.295V15.3041V15.3133V15.3224V15.3315V15.3407V15.3498V15.359V15.3681V15.3772V15.3864V15.3955V15.4046V15.4138V15.4229V15.4321V15.4412V15.4503V15.4595V15.4686V15.4777V15.4869V15.496V15.5052V15.5143V15.5234V15.5326V15.5417V15.5508V15.56V15.5691V15.5783V15.5874V15.5965V15.6057V15.6148V15.624V15.6331V15.6422V15.6514V15.6605V15.6696V15.6788V15.6879V15.6971V15.7062V15.7153V15.7245V15.7336V15.7427V15.7519V15.761V15.7702V15.7793V15.7884V15.7976V15.8067V15.8159V15.825V15.8341V15.8433V15.8524V15.8615V15.8707V15.8798V15.889V15.8981V15.9072V15.9164V15.9255V15.9347V15.9438V15.9529V15.9621V15.9712V15.9803V15.9895V15.9986V16.0078V16.0169V16.026V16.0352V16.0443V16.0534V16.0626V16.0717V16.0809V16.09V16.0991V16.1083V16.1174V16.1266V16.1357V16.1448V16.154V16.1631V16.1722V16.1814V16.1905V16.1997V16.2088V16.2179V16.2271V16.2362V16.2454V16.2545V16.2636V16.2728V16.2819V16.291V16.3002V16.3093V16.3185V16.3276V16.3367V16.3459V16.355V16.3642V16.3733V16.3824V16.3916V16.4007V16.4098V16.419V16.4281V16.4373V16.4464V16.4555V16.4647V16.4738V16.483V16.4921V16.5012V16.5104V16.5195V16.5286V16.5378V16.5469V16.5561V16.5652V16.5743V16.5835V16.5926V16.6018V16.6109V16.62V16.6292V16.6383V16.6474V16.6566V16.6657V16.6749V16.684V16.6931V16.7023V16.7114V16.7206V16.7297V16.7388V16.7442M22.7504 7.7165C22.6983 7.63368 22.6716 7.55058 22.6532 7.48834C22.6471 7.46778 22.6419 7.44971 22.6372 7.4336C22.6199 7.37349 22.6105 7.34071 22.5924 7.30771L22.5924 7.30771L22.592 7.30701C22.4508 7.04707 22.2812 6.85775 22.0807 6.73262C21.8812 6.60814 21.6363 6.53778 21.3285 6.53853M21.3285 6.53853L21.3284 6.53853" stroke="#BABCBE" stroke-width="0.5"/>
</g>
<g filter="url(#filter1_d)">
<mask id="path-3-inside-1" fill="white">
<path fill-rule="evenodd" clip-rule="evenodd" d="M16.4893 4.5211C16.1559 4.04424 15.9774 3.48312 15.9762 2.90878C15.9771 2.14026 16.2943 1.40326 16.8587 0.858394C17.4231 0.313528 18.1889 0.00499337 18.9892 1.62518e-05C19.5873 -0.00190502 20.1725 0.166561 20.6709 0.484131C21.1692 0.801701 21.5583 1.2541 21.7889 1.78406C22.0194 2.31402 22.081 2.89773 21.966 3.46135C21.851 4.02498 21.5645 4.54317 21.1427 4.95037C20.7209 5.35757 20.1828 5.63546 19.5965 5.74891C19.0102 5.86236 18.402 5.80627 17.8489 5.58771C17.2958 5.36915 16.8226 4.99796 16.4893 4.5211ZM6.52536 1.30334C6.85723 1.78064 7.0343 2.34172 7.03418 2.91563C7.02287 4.51606 5.66516 5.82098 4.00746 5.81755C3.40981 5.81676 2.82582 5.64584 2.3293 5.32641C1.83278 5.00697 1.44602 4.55337 1.2179 4.0229C0.98979 3.49244 0.930563 2.90892 1.04771 2.34614C1.16485 1.78336 1.45311 1.26656 1.87605 0.861058C2.29898 0.45556 2.83762 0.179593 3.42386 0.0679879C4.01011 -0.0436171 4.61764 0.0141605 5.16969 0.234048C5.72173 0.453936 6.1935 0.826036 6.52536 1.30334Z"/>
</mask>
<path fill-rule="evenodd" clip-rule="evenodd" d="M16.4893 4.5211C16.1559 4.04424 15.9774 3.48312 15.9762 2.90878C15.9771 2.14026 16.2943 1.40326 16.8587 0.858394C17.4231 0.313528 18.1889 0.00499337 18.9892 1.62518e-05C19.5873 -0.00190502 20.1725 0.166561 20.6709 0.484131C21.1692 0.801701 21.5583 1.2541 21.7889 1.78406C22.0194 2.31402 22.081 2.89773 21.966 3.46135C21.851 4.02498 21.5645 4.54317 21.1427 4.95037C20.7209 5.35757 20.1828 5.63546 19.5965 5.74891C19.0102 5.86236 18.402 5.80627 17.8489 5.58771C17.2958 5.36915 16.8226 4.99796 16.4893 4.5211ZM6.52536 1.30334C6.85723 1.78064 7.0343 2.34172 7.03418 2.91563C7.02287 4.51606 5.66516 5.82098 4.00746 5.81755C3.40981 5.81676 2.82582 5.64584 2.3293 5.32641C1.83278 5.00697 1.44602 4.55337 1.2179 4.0229C0.98979 3.49244 0.930563 2.90892 1.04771 2.34614C1.16485 1.78336 1.45311 1.26656 1.87605 0.861058C2.29898 0.45556 2.83762 0.179593 3.42386 0.0679879C4.01011 -0.0436171 4.61764 0.0141605 5.16969 0.234048C5.72173 0.453936 6.1935 0.826036 6.52536 1.30334Z" fill="#FF8369"/>
<path d="M15.9762 2.90878L15.4762 2.90981L15.4762 2.90818L15.9762 2.90878ZM16.4893 4.5211L16.8991 4.23463L16.8991 4.23463L16.4893 4.5211ZM16.8587 0.858394L16.5115 0.498673L16.5115 0.498673L16.8587 0.858394ZM18.9892 1.62518e-05L18.9861 -0.499976L18.9876 -0.499981L18.9892 1.62518e-05ZM20.6709 0.484131L20.4022 0.905794L20.4022 0.905794L20.6709 0.484131ZM21.7889 1.78406L21.3304 1.98351L21.3304 1.98351L21.7889 1.78406ZM21.966 3.46135L21.4761 3.36138L21.4761 3.36138L21.966 3.46135ZM21.1427 4.95037L20.7954 4.59065L20.7954 4.59065L21.1427 4.95037ZM19.5965 5.74891L19.5015 5.25802L19.5015 5.25802L19.5965 5.74891ZM17.8489 5.58771L17.6652 6.05272L17.6652 6.05272L17.8489 5.58771ZM7.03418 2.91563L7.53419 2.91573L7.53417 2.91916L7.03418 2.91563ZM6.52536 1.30334L6.93588 1.0179L6.93588 1.0179L6.52536 1.30334ZM4.00746 5.81755L4.00812 5.31755L4.0085 5.31755L4.00746 5.81755ZM2.3293 5.32641L2.05877 5.7469L2.05877 5.7469L2.3293 5.32641ZM1.2179 4.0229L1.67723 3.82538L1.67723 3.82538L1.2179 4.0229ZM1.04771 2.34614L1.53721 2.44803L1.53721 2.44803L1.04771 2.34614ZM1.87605 0.861058L2.22208 1.22197L2.22208 1.22197L1.87605 0.861058ZM3.42386 0.0679879L3.33035 -0.423191L3.33036 -0.423191L3.42386 0.0679879ZM5.16969 0.234048L4.98467 0.698556L4.98467 0.698556L5.16969 0.234048ZM16.4762 2.90775C16.4772 3.37856 16.6234 3.84031 16.8991 4.23463L16.0795 4.80757C15.6884 4.24816 15.4776 3.58768 15.4762 2.90981L16.4762 2.90775ZM17.206 1.21812C16.7368 1.67111 16.477 2.27946 16.4762 2.90938L15.4762 2.90818C15.4773 2.00107 15.8519 1.13541 16.5115 0.498673L17.206 1.21812ZM18.9923 0.500007C18.3176 0.504203 17.6759 0.764477 17.206 1.21812L16.5115 0.498673C17.1703 -0.13742 18.0602 -0.494216 18.9861 -0.499974L18.9923 0.500007ZM20.4022 0.905794C19.9856 0.640339 19.4944 0.498396 18.9908 0.500014L18.9876 -0.499981C19.6802 -0.502206 20.3595 -0.307217 20.9396 0.0624678L20.4022 0.905794ZM21.3304 1.98351C21.1405 1.54703 20.8186 1.17113 20.4022 0.905794L20.9396 0.0624677C21.5199 0.432275 21.9761 0.961172 22.2474 1.58461L21.3304 1.98351ZM21.4761 3.36138C21.5705 2.89892 21.5201 2.41973 21.3304 1.98351L22.2474 1.58461C22.5187 2.20831 22.5916 2.89654 22.4559 3.56133L21.4761 3.36138ZM20.7954 4.59065C21.146 4.2522 21.3817 3.82399 21.4761 3.36138L22.4559 3.56133C22.3203 4.22596 21.983 4.83415 21.49 5.31009L20.7954 4.59065ZM19.5015 5.25802C19.9947 5.16259 20.4446 4.92931 20.7954 4.59065L21.49 5.31009C20.9972 5.78583 20.3709 6.10834 19.6915 6.23981L19.5015 5.25802ZM18.0327 5.1227C18.4968 5.30611 19.0082 5.35346 19.5015 5.25802L19.6915 6.23981C19.0121 6.37126 18.3072 6.30643 17.6652 6.05272L18.0327 5.1227ZM16.8991 4.23463C17.1749 4.62921 17.5686 4.93933 18.0327 5.1227L17.6652 6.05272C17.023 5.79896 16.4703 5.36671 16.0795 4.80757L16.8991 4.23463ZM6.53418 2.91553C6.53428 2.4451 6.38924 1.98342 6.11484 1.58877L6.93588 1.0179C7.32522 1.57786 7.53432 2.23833 7.53418 2.91573L6.53418 2.91553ZM4.0085 5.31755C5.40629 5.32045 6.52493 4.22235 6.53419 2.9121L7.53417 2.91916C7.52081 4.80977 5.92403 6.32152 4.00643 6.31755L4.0085 5.31755ZM2.59982 4.90591C3.01481 5.17289 3.50494 5.31689 4.00812 5.31755L4.0068 6.31755C3.31468 6.31664 2.63682 6.11879 2.05877 5.7469L2.59982 4.90591ZM1.67723 3.82538C1.86508 4.26221 2.18503 4.63905 2.59982 4.90591L2.05877 5.7469C1.48053 5.37489 1.02695 4.84452 0.758573 4.22043L1.67723 3.82538ZM1.53721 2.44803C1.4411 2.90979 1.48949 3.3888 1.67723 3.82538L0.758573 4.22043C0.490087 3.59608 0.420028 2.90805 0.558199 2.24425L1.53721 2.44803ZM2.22208 1.22197C1.87053 1.55903 1.63336 1.98611 1.53721 2.44803L0.558199 2.24425C0.696337 1.58061 1.0357 0.974078 1.53001 0.500143L2.22208 1.22197ZM3.51737 0.559166C3.02425 0.653044 2.57384 0.884718 2.22208 1.22197L1.53001 0.500143C2.02413 0.0264025 2.65099 -0.293858 3.33035 -0.423191L3.51737 0.559166ZM4.98467 0.698556C4.52145 0.514048 4.01056 0.465276 3.51737 0.559166L3.33036 -0.423191C4.00965 -0.552511 4.71384 -0.485727 5.35471 -0.23046L4.98467 0.698556ZM6.11484 1.58877C5.84026 1.19386 5.44776 0.883012 4.98467 0.698556L5.35471 -0.23046C5.99571 0.0248599 6.54673 0.458213 6.93588 1.0179L6.11484 1.58877Z" fill="#FF8369" mask="url(#path-3-inside-1)"/>
</g>
</g>
<defs>
<filter id="filter0_d" x="-4.00146" y="6.28638" width="31.0024" height="18.7091" filterUnits="userSpaceOnUse" color-interpolation-filters="sRGB">
<feFlood flood-opacity="0" result="BackgroundImageFix"/>
<feColorMatrix in="SourceAlpha" type="matrix" values="0 0 0 0 0 0 0 0 0 0 0 0 0 0 0 0 0 0 127 0" result="hardAlpha"/>
<feOffset dy="4"/>
<feGaussianBlur stdDeviation="2"/>
<feComposite in2="hardAlpha" operator="out"/>
<feColorMatrix type="matrix" values="0 0 0 0 0 0 0 0 0 0 0 0 0 0 0 0 0 0 0.08 0"/>
<feBlend mode="normal" in2="BackgroundImageFix" result="effect1_dropShadow"/>
<feBlend mode="normal" in="SourceGraphic" in2="effect1_dropShadow" result="shape"/>
</filter>
<filter id="filter1_d" x="-3.01074" y="0" width="29.0334" height="13.8176" filterUnits="userSpaceOnUse" color-interpolation-filters="sRGB">
<feFlood flood-opacity="0" result="BackgroundImageFix"/>
<feColorMatrix in="SourceAlpha" type="matrix" values="0 0 0 0 0 0 0 0 0 0 0 0 0 0 0 0 0 0 127 0" result="hardAlpha"/>
<feOffset dy="4"/>
<feGaussianBlur stdDeviation="2"/>
<feComposite in2="hardAlpha" operator="out"/>
<feColorMatrix type="matrix" values="0 0 0 0 0 0 0 0 0 0 0 0 0 0 0 0 0 0 0.08 0"/>
<feBlend mode="normal" in2="BackgroundImageFix" result="effect1_dropShadow"/>
<feBlend mode="normal" in="SourceGraphic" in2="effect1_dropShadow" result="shape"/>
</filter>
<clipPath id="clip0">
<rect width="23" height="17" fill="white" transform="matrix(-1 0 0 1 23 0)"/>
</clipPath>
</defs>
</svg>
