<svg width="29" height="28" viewBox="0 0 29 28" fill="none" xmlns="http://www.w3.org/2000/svg">
<g filter="url(#filter0_d)">
<mask id="path-1-inside-1" fill="white">
<path fill-rule="evenodd" clip-rule="evenodd" d="M4.00146 5.73439V7.39599C4.01201 7.4586 4.02153 7.52166 4.03104 7.58469C4.05023 7.71189 4.0694 7.83893 4.09697 7.96167C4.41269 9.33776 5.15946 10.2669 6.34094 10.6742C8.12033 11.2879 9.90596 11.8792 11.6913 12.4705C12.1538 12.6236 12.6163 12.7768 13.0786 12.9303C13.7815 13.1643 14.4797 13.0953 15.1749 12.8607C15.9842 12.588 16.7941 12.3177 17.6039 12.0473C18.9282 11.6052 20.2525 11.1631 21.5743 10.7108C22.8717 10.2669 23.7113 9.28255 23.9263 7.73371C24.0248 7.00203 24.0272 6.25754 23.9336 5.52503C23.7995 4.44948 22.9458 3.72304 21.973 3.71944C21.0834 3.71704 20.1936 3.71784 19.3038 3.71864C18.859 3.71904 18.4141 3.71944 17.9694 3.71944H17.7121C17.711 3.68705 17.7094 3.65604 17.7079 3.62587C17.7052 3.5739 17.7027 3.52441 17.7027 3.47469C17.7027 3.29013 17.7031 3.10558 17.7035 2.92102C17.7043 2.55191 17.7051 2.18279 17.7027 1.81368C17.697 0.740526 17.0608 0.00569868 16.1314 0.00269938C14.7123 -0.000899792 13.2931 -0.000899792 11.8736 0.00269938C10.9442 0.00569868 10.308 0.741139 10.3023 1.81309V3.4519V3.71944H6.12748C5.00811 3.72004 4.25821 4.4183 4.03016 5.67801C4.02321 5.69841 4.01353 5.71743 4.00146 5.73439ZM16.4283 1.80589V3.71165H11.5955C11.587 3.66133 11.5814 3.61043 11.5788 3.55928V1.80949C11.5793 1.54435 11.6492 1.46577 11.884 1.46577H16.1194C16.3569 1.46577 16.4283 1.54375 16.4283 1.80589ZM6.02585 12.1019C5.24672 11.8422 4.58136 11.3635 4.00158 10.7186L4 17.9931C4.01386 18.0172 4.02493 18.0432 4.0329 18.0705C4.2312 19.2529 5.01293 19.9979 6.0749 19.9979C11.3606 20.0007 16.6462 20.0007 21.9319 19.9979C23.1395 19.9973 23.9969 19.0069 23.9969 17.617V10.9502C23.9969 10.908 23.994 10.8655 23.9905 10.814C23.9889 10.7894 23.9871 10.7627 23.9854 10.733C23.973 10.745 23.9617 10.7559 23.9512 10.7659C23.9148 10.8008 23.8885 10.826 23.8638 10.853C23.3702 11.4126 22.7647 11.8245 22.1005 12.0527C20.9545 12.4403 19.8072 12.8226 18.6598 13.2048C17.5855 13.5628 16.5112 13.9207 15.438 14.283C14.5119 14.6095 13.5223 14.6133 12.5944 14.2938C11.6308 13.9651 10.6644 13.646 9.69785 13.3269C9.22177 13.1697 8.74565 13.0125 8.26982 12.8541C7.52217 12.603 6.77419 12.3523 6.02585 12.1019Z"/>
</mask>
<path fill-rule="evenodd" clip-rule="evenodd" d="M4.00146 5.73439V7.39599C4.01201 7.4586 4.02153 7.52166 4.03104 7.58469C4.05023 7.71189 4.0694 7.83893 4.09697 7.96167C4.41269 9.33776 5.15946 10.2669 6.34094 10.6742C8.12033 11.2879 9.90596 11.8792 11.6913 12.4705C12.1538 12.6236 12.6163 12.7768 13.0786 12.9303C13.7815 13.1643 14.4797 13.0953 15.1749 12.8607C15.9842 12.588 16.7941 12.3177 17.6039 12.0473C18.9282 11.6052 20.2525 11.1631 21.5743 10.7108C22.8717 10.2669 23.7113 9.28255 23.9263 7.73371C24.0248 7.00203 24.0272 6.25754 23.9336 5.52503C23.7995 4.44948 22.9458 3.72304 21.973 3.71944C21.0834 3.71704 20.1936 3.71784 19.3038 3.71864C18.859 3.71904 18.4141 3.71944 17.9694 3.71944H17.7121C17.711 3.68705 17.7094 3.65604 17.7079 3.62587C17.7052 3.5739 17.7027 3.52441 17.7027 3.47469C17.7027 3.29013 17.7031 3.10558 17.7035 2.92102C17.7043 2.55191 17.7051 2.18279 17.7027 1.81368C17.697 0.740526 17.0608 0.00569868 16.1314 0.00269938C14.7123 -0.000899792 13.2931 -0.000899792 11.8736 0.00269938C10.9442 0.00569868 10.308 0.741139 10.3023 1.81309V3.4519V3.71944H6.12748C5.00811 3.72004 4.25821 4.4183 4.03016 5.67801C4.02321 5.69841 4.01353 5.71743 4.00146 5.73439ZM16.4283 1.80589V3.71165H11.5955C11.587 3.66133 11.5814 3.61043 11.5788 3.55928V1.80949C11.5793 1.54435 11.6492 1.46577 11.884 1.46577H16.1194C16.3569 1.46577 16.4283 1.54375 16.4283 1.80589ZM6.02585 12.1019C5.24672 11.8422 4.58136 11.3635 4.00158 10.7186L4 17.9931C4.01386 18.0172 4.02493 18.0432 4.0329 18.0705C4.2312 19.2529 5.01293 19.9979 6.0749 19.9979C11.3606 20.0007 16.6462 20.0007 21.9319 19.9979C23.1395 19.9973 23.9969 19.0069 23.9969 17.617V10.9502C23.9969 10.908 23.994 10.8655 23.9905 10.814C23.9889 10.7894 23.9871 10.7627 23.9854 10.733C23.973 10.745 23.9617 10.7559 23.9512 10.7659C23.9148 10.8008 23.8885 10.826 23.8638 10.853C23.3702 11.4126 22.7647 11.8245 22.1005 12.0527C20.9545 12.4403 19.8072 12.8226 18.6598 13.2048C17.5855 13.5628 16.5112 13.9207 15.438 14.283C14.5119 14.6095 13.5223 14.6133 12.5944 14.2938C11.6308 13.9651 10.6644 13.646 9.69785 13.3269C9.22177 13.1697 8.74565 13.0125 8.26982 12.8541C7.52217 12.603 6.77419 12.3523 6.02585 12.1019Z" fill="white"/>
<path d="M4.00146 7.39599H3.50146V7.43781L3.50841 7.47906L4.00146 7.39599ZM4.00146 5.73439L3.59408 5.4445L3.50146 5.57465V5.73439H4.00146ZM4.03104 7.58469L4.52544 7.51008L4.52544 7.51008L4.03104 7.58469ZM4.09697 7.96167L3.60912 8.07124L3.60963 8.07348L4.09697 7.96167ZM6.34094 10.6742L6.50395 10.2015L6.5039 10.2015L6.34094 10.6742ZM11.6913 12.4705L11.8485 11.9958L11.8485 11.9958L11.6913 12.4705ZM13.0786 12.9303L13.2365 12.4559L13.2362 12.4558L13.0786 12.9303ZM15.1749 12.8607L15.0152 12.3869L15.015 12.387L15.1749 12.8607ZM17.6039 12.0473L17.7622 12.5216L17.7622 12.5216L17.6039 12.0473ZM21.5743 10.7108L21.7362 11.1839L21.7362 11.1839L21.5743 10.7108ZM23.9263 7.73371L24.4216 7.80246L24.4219 7.80038L23.9263 7.73371ZM23.9336 5.52503L23.4375 5.5869L23.4377 5.5884L23.9336 5.52503ZM21.973 3.71944L21.9749 3.21944L21.9744 3.21944L21.973 3.71944ZM19.3038 3.71864L19.3043 4.21864L19.3043 4.21864L19.3038 3.71864ZM17.7121 3.71944L17.2124 3.73718L17.2296 4.21944H17.7121V3.71944ZM17.7079 3.62587L17.2085 3.65121L17.2085 3.65121L17.7079 3.62587ZM17.7035 2.92102L17.2035 2.91992L17.2035 2.91992L17.7035 2.92102ZM17.7027 1.81368L17.2027 1.81635L17.2027 1.81698L17.7027 1.81368ZM16.1314 0.00269938L16.133 -0.497298L16.1327 -0.497299L16.1314 0.00269938ZM11.8736 0.00269938L11.8724 -0.497299L11.872 -0.497298L11.8736 0.00269938ZM10.3023 1.81309L9.80231 1.81041V1.81309H10.3023ZM10.3023 3.71944V4.21944H10.8023V3.71944H10.3023ZM6.12748 3.71944L6.12748 3.21944L6.12721 3.21944L6.12748 3.71944ZM4.03016 5.67801L4.50346 5.83922L4.5155 5.80385L4.52216 5.76708L4.03016 5.67801ZM16.4283 3.71165V4.21165H16.9283V3.71165H16.4283ZM11.5955 3.71165L11.1024 3.79446L11.1724 4.21165H11.5955V3.71165ZM11.5788 3.55928H11.0788V3.57232L11.0794 3.58535L11.5788 3.55928ZM11.5788 1.80949L11.0788 1.80851V1.80949H11.5788ZM4.00158 10.7186L4.3734 10.3843L3.50186 9.41498L3.50158 10.7185L4.00158 10.7186ZM6.02585 12.1019L6.18447 11.6277L6.18398 11.6276L6.02585 12.1019ZM4 17.9931L3.5 17.993L3.49997 18.1269L3.56687 18.2429L4 17.9931ZM4.0329 18.0705L4.52601 17.9878L4.52115 17.9589L4.51293 17.9307L4.0329 18.0705ZM6.0749 19.9979L6.07516 19.4979H6.0749V19.9979ZM21.9319 19.9979L21.9317 19.4979L21.9316 19.4979L21.9319 19.9979ZM23.9905 10.814L23.4917 10.8476L23.4917 10.8476L23.9905 10.814ZM23.9854 10.733L24.4846 10.7047L24.4227 9.61604L23.6382 10.3733L23.9854 10.733ZM23.9512 10.7659L23.6052 10.405L23.6052 10.405L23.9512 10.7659ZM23.8638 10.853L23.4949 10.5154L23.4889 10.5222L23.8638 10.853ZM22.1005 12.0527L22.2607 12.5264L22.263 12.5256L22.1005 12.0527ZM18.6598 13.2048L18.5018 12.7305L18.5018 12.7305L18.6598 13.2048ZM15.438 14.283L15.278 13.8092L15.2717 13.8115L15.438 14.283ZM12.5944 14.2938L12.7572 13.821L12.7558 13.8206L12.5944 14.2938ZM9.69785 13.3269L9.54109 13.8017L9.54109 13.8017L9.69785 13.3269ZM8.26982 12.8541L8.1106 13.3281L8.11192 13.3286L8.26982 12.8541ZM4.50146 7.39599V5.73439H3.50146V7.39599H4.50146ZM4.52544 7.51008C4.51604 7.44778 4.50589 7.38047 4.49452 7.31293L3.50841 7.47906C3.51813 7.53672 3.52702 7.59554 3.53663 7.65929L4.52544 7.51008ZM4.58482 7.8521C4.56182 7.74971 4.54512 7.64052 4.52544 7.51008L3.53663 7.65929C3.55534 7.78326 3.57698 7.92814 3.60912 8.07124L4.58482 7.8521ZM6.5039 10.2015C5.51644 9.86111 4.86934 9.0922 4.58431 7.84986L3.60963 8.07348C3.95604 9.58331 4.80248 10.6727 6.17798 11.1469L6.5039 10.2015ZM11.8485 11.9958C10.0627 11.4044 8.27995 10.814 6.50395 10.2015L6.17792 11.1469C7.9607 11.7617 9.74926 12.354 11.5341 12.9451L11.8485 11.9958ZM13.2362 12.4558C12.7736 12.3022 12.311 12.149 11.8485 11.9958L11.5341 12.9451C11.9966 13.0983 12.4589 13.2514 12.921 13.4048L13.2362 12.4558ZM15.015 12.387C14.3891 12.5982 13.8068 12.6457 13.2365 12.4559L12.9207 13.4047C13.7562 13.6828 14.5704 13.5924 15.3347 13.3345L15.015 12.387ZM17.4456 11.573C16.6358 11.8434 15.8253 12.1139 15.0152 12.3869L15.3345 13.3346C16.1431 13.0621 16.9523 12.792 17.7622 12.5216L17.4456 11.573ZM21.4125 10.2378C20.0927 10.6893 18.7702 11.1308 17.4456 11.573L17.7622 12.5216C19.0863 12.0796 20.4123 11.6369 21.7362 11.1839L21.4125 10.2378ZM23.4311 7.66496C23.2408 9.03579 22.523 9.8578 21.4125 10.2378L21.7362 11.1839C23.2204 10.6761 24.1819 9.52931 24.4216 7.80246L23.4311 7.66496ZM23.4377 5.5884C23.5257 6.27775 23.5234 6.97853 23.4308 7.66704L24.4219 7.80038C24.5261 7.02554 24.5287 6.23733 24.4296 5.46165L23.4377 5.5884ZM21.9712 4.21944C22.6858 4.22208 23.3337 4.75436 23.4375 5.5869L24.4298 5.46316C24.2654 4.14459 23.2057 3.224 21.9749 3.21944L21.9712 4.21944ZM19.3043 4.21864C20.1942 4.21784 21.0831 4.21704 21.9717 4.21944L21.9744 3.21944C21.0837 3.21704 20.193 3.21784 19.3034 3.21864L19.3043 4.21864ZM17.9694 4.21944C18.4144 4.21944 18.8595 4.21904 19.3043 4.21864L19.3034 3.21864C18.8585 3.21904 18.4139 3.21944 17.9694 3.21944V4.21944ZM17.7121 4.21944H17.9694V3.21944H17.7121V4.21944ZM17.2085 3.65121C17.2101 3.68187 17.2114 3.70918 17.2124 3.73718L18.2118 3.70169C18.2105 3.66493 18.2087 3.63022 18.2072 3.60054L17.2085 3.65121ZM17.2027 3.47469C17.2027 3.53924 17.206 3.60147 17.2085 3.65121L18.2072 3.60054C18.2045 3.54632 18.2027 3.50958 18.2027 3.47469H17.2027ZM17.2035 2.91992C17.2031 3.10438 17.2027 3.28949 17.2027 3.47469H18.2027C18.2027 3.29077 18.2031 3.10677 18.2035 2.92212L17.2035 2.91992ZM17.2027 1.81698C17.2051 2.18353 17.2043 2.55044 17.2035 2.91992L18.2035 2.92212C18.2043 2.55337 18.2051 2.18206 18.2027 1.81038L17.2027 1.81698ZM16.1298 0.502697C16.454 0.503743 16.7069 0.628228 16.8857 0.834436C17.0695 1.04639 17.2004 1.37607 17.2027 1.81635L18.2027 1.811C18.1993 1.17813 18.0093 0.603828 17.6412 0.179326C17.2682 -0.250917 16.7382 -0.495345 16.133 -0.497298L16.1298 0.502697ZM11.8749 0.502698C13.2935 0.499101 14.7119 0.499101 16.1301 0.502698L16.1327 -0.497299C14.7127 -0.5009 13.2926 -0.5009 11.8724 -0.497299L11.8749 0.502698ZM10.8023 1.81577C10.8047 1.37621 10.9355 1.04663 11.1193 0.834595C11.2982 0.628291 11.5511 0.503743 11.8752 0.502697L11.872 -0.497298C11.2667 -0.495345 10.7368 -0.250673 10.3638 0.179481C9.9958 0.603908 9.8057 1.17802 9.80231 1.81041L10.8023 1.81577ZM10.8023 3.4519V1.81309H9.80231V3.4519H10.8023ZM10.8023 3.71944V3.4519H9.80231V3.71944H10.8023ZM6.12748 4.21944H10.3023V3.21944H6.12748V4.21944ZM4.52216 5.76708C4.62239 5.21342 4.82816 4.83244 5.08569 4.59212C5.33758 4.35708 5.67794 4.21968 6.12775 4.21944L6.12721 3.21944C5.45765 3.2198 4.86337 3.43183 4.40345 3.86099C3.94918 4.28489 3.66597 4.8829 3.53815 5.58894L4.52216 5.76708ZM4.40885 6.02429C4.45006 5.96638 4.48148 5.90373 4.50346 5.83922L3.55686 5.5168C3.56493 5.49309 3.57701 5.46849 3.59408 5.4445L4.40885 6.02429ZM16.9283 3.71165V1.80589H15.9283V3.71165H16.9283ZM11.5955 4.21165H16.4283V3.21165H11.5955V4.21165ZM11.0794 3.58535C11.0831 3.65555 11.0908 3.72539 11.1024 3.79446L12.0886 3.62883C12.0833 3.59727 12.0798 3.56532 12.0781 3.53321L11.0794 3.58535ZM11.0788 1.80949V3.55928H12.0788V1.80949H11.0788ZM11.884 0.96577C11.741 0.96577 11.4685 0.982464 11.2698 1.2061C11.0887 1.40993 11.079 1.66935 11.0788 1.80851L12.0788 1.81047C12.0789 1.76174 12.0825 1.74908 12.0809 1.7563C12.0785 1.76657 12.0652 1.81642 12.0173 1.87031C11.9664 1.92766 11.909 1.95299 11.8769 1.96231C11.8525 1.96941 11.8481 1.96577 11.884 1.96577V0.96577ZM16.1194 0.96577H11.884V1.96577H16.1194V0.96577ZM16.9283 1.80589C16.9283 1.66591 16.9183 1.40496 16.7327 1.20103C16.5331 0.981655 16.2619 0.96577 16.1194 0.96577V1.96577C16.1564 1.96577 16.1537 1.96942 16.131 1.96297C16.1012 1.95449 16.0445 1.93054 15.9931 1.87403C15.9441 1.82022 15.9298 1.76943 15.9268 1.75687C15.9247 1.7478 15.9283 1.75865 15.9283 1.80589H16.9283ZM3.62976 11.0529C4.25518 11.7485 4.99063 12.2838 5.86772 12.5762L6.18398 11.6276C5.50282 11.4005 4.90754 10.9784 4.3734 10.3843L3.62976 11.0529ZM4.5 17.9933L4.50158 10.7187L3.50158 10.7185L3.5 17.993L4.5 17.9933ZM4.51293 17.9307C4.49402 17.8658 4.46739 17.8027 4.43313 17.7433L3.56687 18.2429C3.56033 18.2316 3.55584 18.2206 3.55286 18.2104L4.51293 17.9307ZM6.0749 19.4979C5.30406 19.4979 4.6922 18.9787 4.52601 17.9878L3.53978 18.1532C3.7702 19.527 4.7218 20.4979 6.0749 20.4979V19.4979ZM21.9316 19.4979C16.6461 19.5007 11.3607 19.5007 6.07516 19.4979L6.07463 20.4979C11.3605 20.5007 16.6463 20.5007 21.9322 20.4979L21.9316 19.4979ZM23.4969 17.617C23.4969 18.8001 22.7987 19.4974 21.9317 19.4979L21.9322 20.4979C23.4802 20.4971 24.4969 19.2138 24.4969 17.617H23.4969ZM23.4969 10.9502V17.617H24.4969V10.9502H23.4969ZM23.4917 10.8476C23.4954 10.9029 23.4969 10.9279 23.4969 10.9502H24.4969C24.4969 10.888 24.4926 10.8282 24.4894 10.7804L23.4917 10.8476ZM23.4862 10.7614C23.4881 10.7941 23.49 10.8232 23.4917 10.8476L24.4894 10.7804C24.4877 10.7556 24.4861 10.7314 24.4846 10.7047L23.4862 10.7614ZM24.2972 11.1269C24.3077 11.1168 24.3196 11.1054 24.3326 11.0928L23.6382 10.3733C23.6265 10.3846 23.6157 10.3949 23.6052 10.405L24.2972 11.1269ZM24.2327 11.1905C24.2442 11.1779 24.2578 11.1646 24.2972 11.1269L23.6052 10.405C23.5717 10.437 23.5328 10.4741 23.4949 10.5155L24.2327 11.1905ZM22.263 12.5256C23.0143 12.2674 23.6915 11.8041 24.2388 11.1838L23.4889 10.5222C23.0488 11.021 22.5152 11.3815 21.938 11.5799L22.263 12.5256ZM18.8179 13.6792C19.965 13.297 21.1135 12.9144 22.2607 12.5264L21.9403 11.5791C20.7956 11.9662 19.6493 12.3481 18.5018 12.7305L18.8179 13.6792ZM15.5979 14.7567C16.67 14.3948 17.7434 14.0372 18.8179 13.6792L18.5018 12.7305C17.4276 13.0884 16.3524 13.4466 15.2781 13.8093L15.5979 14.7567ZM12.4316 14.7666C13.4663 15.1228 14.5718 15.1186 15.6042 14.7545L15.2717 13.8115C14.4519 14.1005 13.5784 14.1038 12.7572 13.821L12.4316 14.7666ZM9.54109 13.8017C10.508 14.1209 11.4721 14.4392 12.4329 14.767L12.7558 13.8206C11.7895 13.4909 10.8208 13.1711 9.8546 12.8521L9.54109 13.8017ZM8.11192 13.3286C8.58842 13.4871 9.06511 13.6445 9.54109 13.8017L9.8546 12.8521C9.37843 12.6949 8.90288 12.5379 8.42771 12.3797L8.11192 13.3286ZM5.86722 12.5761C6.61536 12.8264 7.36316 13.077 8.1106 13.3281L8.42903 12.3802C7.68119 12.129 6.93301 11.8781 6.18447 11.6277L5.86722 12.5761Z" fill="#BABCBE" mask="url(#path-1-inside-1)"/>
</g>
<circle cx="23.5" cy="8.5" r="5.5" fill="#FF8369"/>
<g clip-path="url(#clip0)">
<path d="M23.6793 4.64402C23.6793 4.49545 23.5589 4.375 23.4103 4.375C23.2617 4.375 23.1413 4.49545 23.1413 4.64402L23.1413 8.32065H19.644C19.4954 8.32065 19.375 8.4411 19.375 8.58967C19.375 8.73825 19.4954 8.8587 19.644 8.8587H23.1413L23.1413 12.356C23.1413 12.5046 23.2617 12.625 23.4103 12.625C23.5589 12.625 23.6793 12.5046 23.6793 12.356L23.6793 8.8587H27.356C27.5046 8.8587 27.625 8.73825 27.625 8.58967C27.625 8.4411 27.5046 8.32065 27.356 8.32065H23.6793L23.6793 4.64402Z" fill="white" stroke="white" stroke-width="0.3" stroke-linecap="round"/>
</g>
<defs>
<filter id="filter0_d" x="0" y="0" width="28.002" height="28" filterUnits="userSpaceOnUse" color-interpolation-filters="sRGB">
<feFlood flood-opacity="0" result="BackgroundImageFix"/>
<feColorMatrix in="SourceAlpha" type="matrix" values="0 0 0 0 0 0 0 0 0 0 0 0 0 0 0 0 0 0 127 0" result="hardAlpha"/>
<feOffset dy="4"/>
<feGaussianBlur stdDeviation="2"/>
<feComposite in2="hardAlpha" operator="out"/>
<feColorMatrix type="matrix" values="0 0 0 0 0 0 0 0 0 0 0 0 0 0 0 0 0 0 0.08 0"/>
<feBlend mode="normal" in2="BackgroundImageFix" result="effect1_dropShadow"/>
<feBlend mode="normal" in="SourceGraphic" in2="effect1_dropShadow" result="shape"/>
</filter>
<clipPath id="clip0">
<rect width="8.25" height="8.25" fill="white" transform="translate(19.375 4.375)"/>
</clipPath>
</defs>
</svg>
