<svg width="12" height="12" viewBox="0 0 12 12" fill="none" xmlns="http://www.w3.org/2000/svg">
<g clip-path="url(#clip0)">
<path fill-rule="evenodd" clip-rule="evenodd" d="M0.409957 11.8C0.304968 11.8 0.204978 11.76 0.124987 11.685C-0.0299968 11.53 -0.0299968 11.275 0.124987 11.12L5.33943 5.9L0.114988 0.68C0.0399958 0.605 0 0.505 0 0.4C0 0.295 0.0399958 0.195 0.114988 0.12C0.194979 0.04 0.294969 0 0.399958 0C0.504947 0 0.604936 0.04 0.684927 0.115L5.90437 5.335L11.1188 0.115C11.1938 0.04 11.2938 0 11.3988 0C11.5038 0 11.6038 0.04 11.6838 0.115C11.8387 0.27 11.8387 0.525 11.6838 0.68L6.46931 5.9L11.6788 11.11C11.7538 11.185 11.7938 11.285 11.7938 11.39C11.7938 11.495 11.7538 11.595 11.6788 11.675C11.6038 11.755 11.5038 11.79 11.3938 11.79C11.2838 11.79 11.1888 11.75 11.1088 11.675L5.90437 6.465L0.689927 11.685C0.614935 11.76 0.514945 11.8 0.409957 11.8Z" fill="#7A7A7A"/>
</g>
<defs>
<clipPath id="clip0">
<rect width="11.8" height="11.8" fill="white"/>
</clipPath>
</defs>
</svg>
