<svg width="17" height="16" viewBox="0 0 17 16" fill="none" xmlns="http://www.w3.org/2000/svg">
<path fill-rule="evenodd" clip-rule="evenodd" d="M7.49994 0.998805C6.94762 0.998805 6.49987 1.44599 6.49987 1.99761H10.5002C10.5002 1.44599 10.0524 0.998805 9.5001 0.998805H7.49994ZM11.5003 1.99761C11.5003 0.894361 10.6048 0 9.5001 0H7.49994C6.39529 0 5.49979 0.894361 5.49979 1.99761H2.49955H1.49947H0.999429C0.723265 1.99761 0.49939 2.2212 0.49939 2.49701C0.49939 2.77283 0.723265 2.99642 0.999429 2.99642H1.49947V10.9869C1.49947 13.745 3.73822 15.9809 6.49987 15.9809H10.5002C13.2618 15.9809 15.5006 13.745 15.5006 10.9869V2.99642H16.0006C16.2768 2.99642 16.5007 2.77283 16.5007 2.49701C16.5007 2.2212 16.2768 1.99761 16.0006 1.99761H15.5006H14.5005H11.5003ZM2.49955 10.9869V2.99642H6.49987H10.5002H14.5005V10.9869C14.5005 13.1934 12.7095 14.9821 10.5002 14.9821H6.49987C4.29055 14.9821 2.49955 13.1934 2.49955 10.9869ZM6.49987 11.4863V5.49343C6.49987 5.21762 6.27599 4.99403 5.99983 4.99403C5.72366 4.99403 5.49979 5.21762 5.49979 5.49343V11.4863C5.49979 11.7621 5.72366 11.9857 5.99983 11.9857C6.27599 11.9857 6.49987 11.7621 6.49987 11.4863ZM11.5003 5.49343V11.4863C11.5003 11.7621 11.2764 11.9857 11.0002 11.9857C10.7241 11.9857 10.5002 11.7621 10.5002 11.4863V5.49343C10.5002 5.21762 10.7241 4.99403 11.0002 4.99403C11.2764 4.99403 11.5003 5.21762 11.5003 5.49343Z" fill="#7A7A7A"/>
</svg>
