<svg width="17" height="16" viewBox="0 0 17 16" fill="none" xmlns="http://www.w3.org/2000/svg">
<g clip-path="url(#clip0)">
<path fill-rule="evenodd" clip-rule="evenodd" d="M7.00055 0.998805C6.44823 0.998805 6.00048 1.44599 6.00048 1.99761H10.0008C10.0008 1.44599 9.55304 0.998805 9.00071 0.998805H7.00055ZM11.0009 1.99761C11.0009 0.894361 10.1054 0 9.00071 0H7.00055C5.8959 0 5.0004 0.894361 5.0004 1.99761H2.00016H1.00008H0.50004C0.223875 1.99761 0 2.2212 0 2.49701C0 2.77283 0.223875 2.99642 0.50004 2.99642H1.00008V10.9869C1.00008 13.745 3.23883 15.9809 6.00048 15.9809H10.0008C12.7624 15.9809 15.0012 13.745 15.0012 10.9869V2.99642H15.5012C15.7774 2.99642 16.0013 2.77283 16.0013 2.49701C16.0013 2.2212 15.7774 1.99761 15.5012 1.99761H15.0012H14.0011H11.0009ZM2.00016 10.9869V2.99642H6.00048H10.0008H14.0011V10.9869C14.0011 13.1934 12.2101 14.9821 10.0008 14.9821H6.00048C3.79116 14.9821 2.00016 13.1934 2.00016 10.9869ZM6.00048 11.4863V5.49343C6.00048 5.21762 5.7766 4.99403 5.50044 4.99403C5.22427 4.99403 5.0004 5.21762 5.0004 5.49343V11.4863C5.0004 11.7621 5.22427 11.9857 5.50044 11.9857C5.7766 11.9857 6.00048 11.7621 6.00048 11.4863ZM11.0009 5.49343V11.4863C11.0009 11.7621 10.777 11.9857 10.5008 11.9857C10.2247 11.9857 10.0008 11.7621 10.0008 11.4863V5.49343C10.0008 5.21762 10.2247 4.99403 10.5008 4.99403C10.777 4.99403 11.0009 5.21762 11.0009 5.49343Z" fill="#7A7A7A"/>
</g>
<defs>
<clipPath id="clip0">
<rect width="16.0013" height="15.9809" fill="white"/>
</clipPath>
</defs>
</svg>
