<svg width="17" height="16" viewBox="0 0 17 16" fill="none" xmlns="http://www.w3.org/2000/svg">
<g clip-path="url(#clip0)">
<path d="M7.99933 0.104126C7.72645 0.104042 7.50519 0.324901 7.50512 0.597429L7.50322 7.98262L4.38473 4.55669C4.20117 4.35504 3.90357 4.35504 3.72001 4.55669C3.53645 4.75835 3.53645 5.08529 3.72001 5.28694L7.65821 9.61339C7.84176 9.81504 8.13937 9.81504 8.32293 9.61339L12.2611 5.28694C12.4447 5.08529 12.4447 4.75835 12.2611 4.55669C12.0776 4.35504 11.78 4.35504 11.5964 4.55669L8.4914 7.96781L8.49329 0.597734C8.49336 0.325206 8.2722 0.10421 7.99933 0.104126Z" fill="#FF8369"/>
<path d="M1.09217 7.21065C1.09217 6.93812 0.870964 6.71719 0.598089 6.71719C0.325213 6.71719 0.104004 6.93812 0.104004 7.21065V8.44418C0.104004 12.5321 3.42215 15.846 7.51528 15.846H8.50542C12.5985 15.846 15.9167 12.5321 15.9167 8.44418V7.21065C15.9167 6.93812 15.6955 6.71719 15.4226 6.71719C15.1497 6.71719 14.9285 6.93812 14.9285 7.21065V8.44418C14.9285 11.987 12.0528 14.8591 8.50542 14.8591H7.51528C3.9679 14.8591 1.09217 11.987 1.09217 8.44418V7.21065Z" fill="#FF8369"/>
</g>
<defs>
<clipPath id="clip0">
<rect width="16.0013" height="15.9809" fill="white"/>
</clipPath>
</defs>
</svg>
