<svg width="16" height="16" viewBox="0 0 16 16" fill="none" xmlns="http://www.w3.org/2000/svg">
<path fill-rule="evenodd" clip-rule="evenodd" d="M2.06309 2.06315C2.95274 1.17351 4.284 0.833374 5.99998 0.833374H7.33331C7.60946 0.833374 7.83331 1.05723 7.83331 1.33337C7.83331 1.60952 7.60946 1.83337 7.33331 1.83337H5.99998C4.38263 1.83337 3.38055 2.15991 2.7702 2.77026C2.15985 3.38061 1.83331 4.38269 1.83331 6.00004V10C1.83331 11.6174 2.15985 12.6195 2.7702 13.2298C3.38055 13.8402 4.38263 14.1667 5.99998 14.1667H9.99998C11.6173 14.1667 12.6194 13.8402 13.2298 13.2298C13.8401 12.6195 14.1666 11.6174 14.1666 10V8.66671C14.1666 8.39056 14.3905 8.16671 14.6666 8.16671C14.9428 8.16671 15.1666 8.39056 15.1666 8.66671V10C15.1666 11.716 14.8265 13.0473 13.9369 13.9369C13.0472 14.8266 11.716 15.1667 9.99998 15.1667H5.99998C4.284 15.1667 2.95274 14.8266 2.06309 13.9369C1.17345 13.0473 0.833313 11.716 0.833313 10V6.00004C0.833313 4.28406 1.17345 2.9528 2.06309 2.06315Z" fill="#7A7A7A"/>
<path fill-rule="evenodd" clip-rule="evenodd" d="M12.1311 0.675749C12.8734 0.602892 13.6093 0.92885 14.3402 1.6598C15.0712 2.39076 15.3971 3.12664 15.3243 3.86887C15.254 4.58488 14.8222 5.17829 14.3402 5.66024L9.08108 10.9194C8.93095 11.0647 8.73471 11.1916 8.54536 11.2868C8.35713 11.3814 8.13541 11.4648 7.92403 11.495L5.91482 11.782C5.4201 11.8501 4.94675 11.715 4.61465 11.3843C4.28184 11.0528 4.14571 10.5793 4.21848 10.0817C4.21852 10.0814 4.21857 10.0811 4.21862 10.0807L4.50479 8.07759C4.50483 8.0773 4.50487 8.077 4.50491 8.07671C4.53493 7.86255 4.61795 7.63924 4.71324 7.44965C4.80874 7.25966 4.93731 7.06226 5.08643 6.91314L10.3398 1.6598C10.8217 1.17785 11.4151 0.746032 12.1311 0.675749ZM12.2288 1.67097C11.8582 1.70735 11.4716 1.9422 11.0469 2.36691L5.79354 7.62024C5.74266 7.67112 5.67124 7.77039 5.60673 7.89873C5.54216 8.02721 5.50527 8.14355 5.49519 8.21579L5.49496 8.2174L5.2083 10.2241L5.20802 10.226C5.17445 10.4547 5.24169 10.5974 5.32032 10.6758C5.39976 10.7549 5.54604 10.823 5.7773 10.7915C5.7777 10.7915 5.77809 10.7914 5.77849 10.7914L7.78261 10.505C7.85123 10.4952 7.96618 10.4587 8.09628 10.3933C8.22344 10.3294 8.32613 10.2575 8.38318 10.2031L13.6331 4.95314C14.0578 4.52842 14.2927 4.14184 14.329 3.77118C14.3629 3.42675 14.2355 2.96929 13.6331 2.36691C13.0307 1.76453 12.5733 1.63716 12.2288 1.67097Z" fill="#7A7A7A"/>
<path fill-rule="evenodd" clip-rule="evenodd" d="M9.80498 2.28523C10.0709 2.21069 10.3468 2.36581 10.4214 2.6317C10.8208 4.05645 11.936 5.17276 13.3696 5.57894C13.6353 5.65421 13.7896 5.93062 13.7143 6.1963C13.6391 6.46199 13.3627 6.61634 13.097 6.54106C11.3306 6.04058 9.95243 4.66356 9.45851 2.90163C9.38397 2.63574 9.53909 2.35977 9.80498 2.28523Z" fill="#7A7A7A"/>
</svg>
