<svg width="13" height="13" viewBox="0 0 13 13" fill="none" xmlns="http://www.w3.org/2000/svg">
<path fill-rule="evenodd" clip-rule="evenodd" d="M9.97431 0.507524C10.5885 0.447233 11.1975 0.716973 11.8024 1.32186C12.4073 1.92675 12.677 2.53571 12.6167 3.14993C12.5586 3.74245 12.2012 4.23352 11.8024 4.63235L11.1822 5.25251C11.1803 5.25452 11.1783 5.25651 11.1763 5.25848L7.45029 8.98445C7.32605 9.10468 7.16366 9.20972 7.00697 9.28848C6.8512 9.36677 6.66772 9.43581 6.4928 9.4608L4.83011 9.69832C4.42071 9.75466 4.029 9.64289 3.75418 9.36918C3.47877 9.09489 3.36612 8.70304 3.42633 8.29128L3.42645 8.29045L3.66326 6.63278L3.66336 6.63205C3.68821 6.45483 3.75691 6.27003 3.83577 6.11314C3.91479 5.95591 4.02119 5.79256 4.14459 5.66916L7.86152 1.95224C7.86621 1.94731 7.87103 1.94248 7.87598 1.93778L8.4919 1.32186C8.89073 0.92303 9.3818 0.565686 9.97431 0.507524ZM7.99668 2.98739L4.72975 6.25431C4.68765 6.29642 4.62854 6.37857 4.57516 6.48477C4.52172 6.59109 4.49119 6.68737 4.48285 6.74715L4.48267 6.74848L4.24544 8.40906L4.24521 8.41064C4.21743 8.59992 4.27307 8.71803 4.33815 8.78284C4.40388 8.84831 4.52494 8.90473 4.71631 8.87865L4.71729 8.87851L6.37577 8.64158C6.43255 8.63347 6.52768 8.6032 6.63534 8.54909C6.74057 8.4962 6.82555 8.43672 6.87276 8.39167L10.1377 5.12675C9.19048 4.69154 8.43018 3.93218 7.99668 2.98739ZM10.772 4.49242C9.77055 4.13488 8.98475 3.34864 8.63131 2.35275L9.07705 1.90701C9.42851 1.55555 9.74842 1.36121 10.0552 1.3311C10.3402 1.30312 10.7187 1.40853 11.2172 1.90701C11.7157 2.4055 11.8211 2.78406 11.7931 3.06909C11.763 3.37582 11.5687 3.69573 11.2172 4.0472L10.772 4.49242ZM1.64268 1.65565C2.37889 0.919445 3.48055 0.637973 4.90058 0.637973H6.00396C6.23247 0.637973 6.41772 0.823222 6.41772 1.05174C6.41772 1.28026 6.23247 1.4655 6.00396 1.4655H4.90058C3.56217 1.4655 2.73292 1.73572 2.22783 2.24081C1.72275 2.7459 1.45253 3.57514 1.45253 4.91355V8.22368C1.45253 9.56209 1.72275 10.3913 2.22783 10.8964C2.73292 11.4015 3.56217 11.6717 4.90058 11.6717H8.21071C9.54912 11.6717 10.3784 11.4015 10.8835 10.8964C11.3885 10.3913 11.6588 9.56209 11.6588 8.22368V7.1203C11.6588 6.89179 11.844 6.70654 12.0725 6.70654C12.301 6.70654 12.4863 6.89179 12.4863 7.1203V8.22368C12.4863 9.64371 12.2048 10.7454 11.4686 11.4816C10.7324 12.2178 9.63073 12.4993 8.21071 12.4993H4.90058C3.48055 12.4993 2.37889 12.2178 1.64268 11.4816C0.906472 10.7454 0.625 9.64371 0.625 8.22368V4.91355C0.625 3.49352 0.906472 2.39186 1.64268 1.65565Z" fill="#7A7A7A"/>
</svg>
