<svg width="16" height="16" viewBox="0 0 16 16" fill="none" xmlns="http://www.w3.org/2000/svg">
<path fill-rule="evenodd" clip-rule="evenodd" d="M10.6667 4H9.66669H5.66669H4.66669V3C4.66669 1.89543 5.56212 1 6.66669 1H8.66669C9.77126 1 10.6667 1.89543 10.6667 3V4ZM11.6667 4C11.6667 4.13587 11.6396 4.26541 11.5905 4.38351C13.397 5.1372 14.6667 6.92032 14.6667 9V11C14.6667 13.7614 12.4281 16 9.66669 16H5.66669C2.90526 16 0.666687 13.7614 0.666687 11V9C0.666687 6.92032 1.93638 5.1372 3.74287 4.38351C3.69378 4.26541 3.66669 4.13587 3.66669 4V3C3.66669 1.34315 5.00983 0 6.66669 0H8.66669C10.3235 0 11.6667 1.34315 11.6667 3V4ZM5.66669 5H9.66669C11.8758 5 13.6667 6.79086 13.6667 9V11C13.6667 13.2091 11.8758 15 9.66669 15H5.66669C3.45755 15 1.66669 13.2091 1.66669 11V9C1.66669 6.79086 3.45755 5 5.66669 5ZM7.73812 12C7.97481 12 8.16669 11.8081 8.16669 11.5714V9.5C8.16669 9.22386 7.94283 9 7.66669 9C7.39054 9 7.16669 9.22386 7.16669 9.5V11.5714C7.16669 11.8081 7.35856 12 7.59526 12H7.73812Z" fill="#7A7A7A"/>
</svg>
