<svg width="17" height="16" viewBox="0 0 17 16" fill="none" xmlns="http://www.w3.org/2000/svg">
<path fill-rule="evenodd" clip-rule="evenodd" d="M7.38394 2.83483C6.85696 3.26189 6.52889 3.95277 6.43198 5.07678C6.40829 5.35157 6.16603 5.55516 5.89088 5.5315C5.61574 5.50783 5.4119 5.26588 5.43559 4.99109C5.54536 3.71797 5.93735 2.72087 6.75381 2.05923C7.55646 1.40877 8.67822 1.15857 10.0741 1.15857H10.1608C11.7004 1.15857 12.9083 1.4634 13.7188 2.27285C14.5293 3.0823 14.8345 4.28871 14.8345 5.82632V10.1678C14.8345 11.7054 14.5293 12.9118 13.7188 13.7213C12.9083 14.5307 11.7004 14.8355 10.1608 14.8355H10.0741C8.68836 14.8355 7.57335 14.5887 6.77234 13.9487C5.95687 13.2972 5.55969 12.3146 5.44257 11.0598C5.41694 10.7852 5.61907 10.5418 5.89404 10.5162C6.16901 10.4906 6.4127 10.6925 6.43833 10.9671C6.54123 12.0695 6.87078 12.7483 7.39708 13.1688C7.93784 13.6008 8.77966 13.8367 10.0741 13.8367H10.1608C11.6015 13.8367 12.4803 13.5456 13.0116 13.015C13.5429 12.4844 13.8344 11.6066 13.8344 10.1678V5.82632C13.8344 4.38749 13.5429 3.50972 13.0116 2.97911C12.4803 2.4485 11.6015 2.15737 10.1608 2.15737H10.0741C8.76979 2.15737 7.92473 2.39659 7.38394 2.83483Z" fill="#7A7A7A"/>
<path fill-rule="evenodd" clip-rule="evenodd" d="M1.91345 7.99037C1.91345 7.71456 2.13733 7.49097 2.41349 7.49097H10.0008C10.2769 7.49097 10.5008 7.71456 10.5008 7.99037C10.5008 8.26618 10.2769 8.48977 10.0008 8.48977H2.41349C2.13733 8.48977 1.91345 8.26618 1.91345 7.99037Z" fill="#7A7A7A"/>
<path fill-rule="evenodd" clip-rule="evenodd" d="M4.25388 5.40665C4.44916 5.60168 4.44916 5.91788 4.25388 6.11291L2.37395 7.99044L4.25388 9.86798C4.44916 10.063 4.44916 10.3792 4.25388 10.5742C4.0586 10.7693 3.74199 10.7693 3.54672 10.5742L1.31321 8.34357C1.11793 8.14855 1.11793 7.83234 1.31321 7.63731L3.54672 5.40665C3.74199 5.21162 4.0586 5.21162 4.25388 5.40665Z" fill="#7A7A7A"/>
</svg>
