<svg width="16" height="16" viewBox="0 0 16 16" fill="none" xmlns="http://www.w3.org/2000/svg">
<path fill-rule="evenodd" clip-rule="evenodd" d="M0.833313 5.66669C0.833313 5.39054 1.05717 5.16669 1.33331 5.16669H8.99998C9.27612 5.16669 9.49998 5.39054 9.49998 5.66669C9.49998 5.94283 9.27612 6.16669 8.99998 6.16669H1.33331C1.05717 6.16669 0.833313 5.94283 0.833313 5.66669Z" fill="#7A7A7A"/>
<path fill-rule="evenodd" clip-rule="evenodd" d="M3.5 11C3.5 10.7239 3.72386 10.5 4 10.5H5.33333C5.60948 10.5 5.83333 10.7239 5.83333 11C5.83333 11.2761 5.60948 11.5 5.33333 11.5H4C3.72386 11.5 3.5 11.2761 3.5 11Z" fill="#7A7A7A"/>
<path fill-rule="evenodd" clip-rule="evenodd" d="M6.5 11C6.5 10.7239 6.72386 10.5 7 10.5H9.66667C9.94281 10.5 10.1667 10.7239 10.1667 11C10.1667 11.2761 9.94281 11.5 9.66667 11.5H7C6.72386 11.5 6.5 11.2761 6.5 11Z" fill="#7A7A7A"/>
<path fill-rule="evenodd" clip-rule="evenodd" d="M2.27736 3.2747C1.99398 3.55488 1.83331 4.08743 1.83331 5.25998V10.74C1.83331 11.9125 1.99398 12.4451 2.27736 12.7253C2.5627 13.0074 3.10598 13.1666 4.29331 13.1666H11.7066C12.894 13.1666 13.4373 13.0074 13.7226 12.7253C14.006 12.4451 14.1666 11.9125 14.1666 10.74V7.35331C14.1666 7.07717 14.3905 6.85331 14.6666 6.85331C14.9428 6.85331 15.1666 7.07717 15.1666 7.35331V10.74C15.1666 11.9074 15.0307 12.8382 14.4257 13.4364C13.8227 14.0326 12.886 14.1666 11.7066 14.1666H4.29331C3.11398 14.1666 2.17726 14.0326 1.57427 13.4364C0.969308 12.8382 0.833313 11.9074 0.833313 10.74V5.25998C0.833313 4.09253 0.969308 3.16175 1.57427 2.5636C2.17726 1.9674 3.11398 1.83331 4.29331 1.83331H8.99998C9.27612 1.83331 9.49998 2.05717 9.49998 2.33331C9.49998 2.60946 9.27612 2.83331 8.99998 2.83331H4.29331C3.10598 2.83331 2.5627 2.99256 2.27736 3.2747Z" fill="#7A7A7A"/>
<path fill-rule="evenodd" clip-rule="evenodd" d="M15.0202 1.97976C15.2155 2.17502 15.2155 2.4916 15.0202 2.68687L12.3536 5.35353C12.1583 5.54879 11.8417 5.54879 11.6464 5.35353L10.6464 4.35353C10.4512 4.15827 10.4512 3.84169 10.6464 3.64643C10.8417 3.45116 11.1583 3.45116 11.3536 3.64643L12 4.29287L14.3131 1.97976C14.5084 1.7845 14.825 1.7845 15.0202 1.97976Z" fill="#7A7A7A"/>
</svg>
